<svg width="131" height="159" viewBox="0 0 131 159" fill="none" xmlns="http://www.w3.org/2000/svg">
<g id="Figure &#226;&#134;&#146; SVG">
<g id="Clip path group">
<mask id="mask0_70_371" style="mask-type:luminance" maskUnits="userSpaceOnUse" x="0" y="1" width="131" height="156">
<g id="__lottie_element_149">
<path id="Vector" d="M130.09 1.68811H0V156.562H130.09V1.68811Z" fill="white"/>
</g>
</mask>
<g mask="url(#mask0_70_371)">
<g id="Group">
<g id="Group_2">
<g id="Group_3">
<path id="Vector_2" d="M62.5861 35.4912C60.4713 35.2141 59.7114 34.07 58.1547 32.6522C57.6022 32.1281 57.1573 31.507 56.6717 30.9232C56.3756 30.6339 56.0366 30.2492 55.8136 29.9319C55.6542 29.7262 55.4551 29.4876 55.6029 29.2172C55.8833 28.702 56.4024 29.3008 56.7202 29.4764C57.7143 29.9587 58.608 30.6121 59.5347 31.2087C60.5461 31.8042 61.4376 32.3043 62.5075 32.7342C64.1355 33.2058 65.9537 33.4774 67.5795 32.8635C69.0904 32.2084 70.2992 31.0598 71.5821 30.0602C72.3933 29.4251 73.2419 28.8486 74.1847 28.426C74.7384 28.2041 75.2814 27.7129 75.9053 27.8289C76.6731 28.0692 76.8214 29.1397 76.4149 29.7507C76.0297 30.3088 75.282 30.4125 74.7317 30.761C73.8285 31.1518 73.0507 31.7512 72.2757 32.3467C70.1342 34.2139 68.238 43.8544 65.5852 43.8784C65.031 43.8834 63.2078 35.6183 62.5861 35.4912Z" fill="#004448"/>
</g>
<g id="Group_4">
<path id="Vector_3" d="M48.1269 71.807C48.0795 71.7624 48.0784 71.6949 48.1007 71.6352C48.1816 71.4735 48.3789 71.3999 48.5077 71.2762C49.3897 70.5358 50.2138 70.0256 51.1459 69.4463C52.5325 68.5615 53.8165 67.6984 55.2087 66.8621C57.145 65.737 58.7975 64.1987 60.7282 63.0674C62.2536 62.1609 63.3185 51.2229 64.816 51.2753C65.8926 51.3127 67.3795 62.1185 68.5481 62.6141C71.2543 63.9523 73.6088 65.9048 76.3702 67.1448C77.6626 67.7413 78.9599 68.3312 80.3326 68.7221C80.763 68.8626 81.1973 68.9936 81.6299 69.1279C81.9137 69.2093 82.193 69.2941 82.3714 69.5478C82.6865 70.0005 82.5259 70.65 82.1746 71.0375C81.7643 71.5037 81.2112 71.6023 80.6548 71.3514C78.7419 70.7839 76.8748 70.1165 75.0829 69.2356C73.8106 68.6323 72.5874 67.9331 71.4065 67.1682C69.9207 66.222 68.5197 65.2374 66.9218 64.57C65.8825 64.2149 64.7758 64.0013 63.6781 64.1552C61.0315 64.6938 59.1465 66.8331 56.898 68.1695C55.5482 68.9791 54.1923 69.7886 52.7773 70.4794C51.7698 71.0024 50.6648 71.2338 49.5748 71.5103C49.1823 71.6308 48.7926 71.7601 48.3895 71.8404C48.302 71.8566 48.1994 71.8744 48.1269 71.807Z" fill="#004448"/>
</g>
<g id="Group_5">
<path id="Vector_4" d="M60.4638 63.8781C59.8951 63.7008 59.7529 62.9827 59.9286 62.4748C60.0691 61.9317 60.5653 61.6094 60.8541 61.1517C61.57 59.9329 61.9485 58.5686 62.282 57.2065C62.6879 55.8483 63.0675 54.4862 63.285 53.0829C63.7149 51.2469 63.8331 49.3591 63.8916 47.4785C63.8492 45.0119 63.5727 42.5503 63.0207 40.1451C62.8066 39.0506 62.5267 37.9673 62.1727 36.9102C61.9787 36.4981 61.8158 36.0699 61.6073 35.6652C61.3486 35.2637 61.023 34.5529 61.5934 34.2702C62.7207 33.9825 63.8442 36.1424 64.1436 37.0217C65.3022 40.0497 65.7426 43.3147 65.8737 46.5407C65.9027 47.2331 65.8742 47.9256 65.8296 48.6175C65.7371 49.9913 65.659 51.3684 65.3557 52.7155C65.1082 53.9934 64.8996 55.2819 64.5127 56.528C63.9568 58.3523 63.6195 60.2568 62.6817 61.9412C62.4135 62.4887 62.0433 62.9726 61.6358 63.4237C61.3564 63.7627 60.9076 64.0086 60.4638 63.8781Z" fill="#004448"/>
</g>
<g id="Group_6">
<path id="Vector_5" d="M70.1433 65.2893C69.7787 65.2558 69.5423 64.9525 69.2947 64.7167C68.634 64.0694 68.2393 63.2252 67.8211 62.4151C67.1359 61.232 66.8527 59.8956 66.5627 58.5753C66.2845 57.2935 65.9349 56.0234 65.7721 54.7204C65.3584 51.9087 64.9776 49.0836 65.0886 46.2346C65.0886 44.8212 65.136 43.4067 65.3506 42.0073C65.6489 39.7197 66.1853 37.4293 67.2948 35.3892C67.6349 34.7263 68.0965 34.1308 68.6675 33.6508C69.0795 33.2432 69.2127 33.692 69.06 34.0818C68.057 37.3841 67.2652 40.6469 67.0941 44.0758C67.0456 45.7183 67.0495 47.0335 67.0907 48.6036C67.2413 50.7713 67.5585 52.9251 67.8958 55.0706C68.174 56.3535 68.4796 57.6314 68.7762 58.9104C68.929 59.7963 69.3566 60.5858 69.7697 61.3725C70.5888 61.0123 71.1184 61.9713 71.3833 62.6008C71.5171 62.9961 71.5182 63.4466 71.3961 63.8441C71.4167 64.5226 70.8971 65.3645 70.1433 65.2893Z" fill="#004448"/>
</g>
<g id="Group_7">
<path id="Vector_6" d="M70.7524 32.8412C70.1274 32.7871 69.8169 32.1113 70.0823 31.5677C70.6024 30.7091 71.5469 30.1761 72.3102 29.5455C74.1417 28.1723 76.2911 26.852 78.3986 26.0363C79.8309 25.4793 81.3397 25.0338 82.8818 24.9658C83.4132 24.9837 83.8575 25.0199 84.3755 25.0416C84.5138 25.0517 84.6671 25.1152 84.7078 25.2619C84.7702 25.6198 84.3153 25.6455 84.0711 25.7207C83.184 25.9711 82.3812 26.4472 81.5192 26.7673C79.5934 27.5417 77.7145 28.4271 75.9638 29.5461C74.7417 30.3367 73.3272 31.3458 72.318 32.2814C71.9199 32.6956 71.3273 32.9259 70.7524 32.8412Z" fill="#004448"/>
</g>
<g id="Group_8">
<path id="Vector_7" d="M47.4912 72.796C47.2726 72.5708 47.9724 72.2931 48.1034 72.1788C48.7306 71.7573 49.4041 71.4785 50.0827 71.1925C51.6154 70.3852 53.1341 69.5299 54.5915 68.5938C54.8976 68.3942 55.3058 67.9928 55.6765 68.2671C55.7418 68.3284 55.7334 68.4405 55.7183 68.5191C55.6442 68.8804 55.294 69.0605 55.0181 69.2567C53.976 69.9469 52.9551 70.5162 51.8746 71.1189C50.7311 71.8125 49.5078 72.3907 48.1909 72.6655C48.0175 72.7035 47.8436 72.7391 47.6774 72.8033C47.6161 72.8244 47.5481 72.8389 47.4912 72.796Z" fill="#004448"/>
</g>
<g id="Group_9">
<path id="Vector_8" d="M48.2082 72.4325C47.8363 72.1086 50.7333 70.9472 51.0344 70.8067C52.5799 70.1316 53.9805 69.1943 55.3548 68.2281C56.6015 67.2858 57.9613 66.5014 59.1645 65.505C59.4255 65.3528 59.741 65.2525 60.0438 65.3032C60.0666 65.9483 59.3948 66.3029 58.9599 66.6636C58.5618 66.9725 58.1498 67.2669 57.7283 67.5429C56.4521 68.3524 55.3058 69.2679 54.0412 70.0764C52.5643 70.9534 51.1281 71.8025 49.4459 72.1532C49.2151 72.2257 48.9815 72.2854 48.7462 72.3411C48.5728 72.3985 48.3922 72.4905 48.2082 72.4325Z" fill="#004448"/>
</g>
<g id="Group_10">
<path id="Vector_9" d="M82.2385 72.316C82.127 72.2859 82.015 72.2558 81.904 72.2235C81.7858 72.1894 81.6693 72.1538 81.5533 72.1131C81.5762 72.1214 81.599 72.1292 81.6219 72.137C80.9422 71.9123 80.2648 71.6447 79.6236 71.3286C79.6276 71.3308 79.6315 71.3325 79.6354 71.3347C79.6354 71.3347 79.637 71.3353 79.6404 71.337C78.9362 71.0398 78.2755 70.683 77.6064 70.3624C76.3118 69.7742 75.0356 69.1564 73.7767 68.4963C73.179 68.2024 72.5908 67.883 72.0405 67.5061C71.5582 67.1531 69.8554 65.8658 71.6307 66.5594C72.8812 67.1169 74.0471 67.7726 75.2592 68.3764C76.4172 68.9797 77.6265 69.4803 78.7812 70.0646C78.7723 70.0607 78.7639 70.0557 78.755 70.0513C78.7461 70.0474 78.7377 70.0429 78.7293 70.0384C79.627 70.4822 80.5364 70.9155 81.4786 71.2589C81.4769 71.2583 81.4747 71.2578 81.473 71.2572C81.4624 71.2533 81.4513 71.2494 81.4401 71.2455C81.671 71.3247 81.8856 71.4022 82.1192 71.4641C82.3651 71.5304 82.6517 71.5867 82.7933 71.8226C83.0314 72.1934 82.5558 72.4275 82.2385 72.316Z" fill="#004448"/>
</g>
<g id="Group_11">
<path id="Vector_10" d="M53.5789 95.0482C53.4775 96.3891 52.6016 148.47 51.5685 149.267C49.5575 150.723 47.1389 151.434 44.7527 152.002C38.7476 153.451 32.5149 153.782 26.3554 153.663C22.6512 153.533 18.938 153.346 15.2862 152.676C13.6331 152.39 11.8925 152.168 10.3944 151.375C8.84006 150.56 8.86849 98.3963 8.99784 96.9751C8.98892 96.8346 8.98055 96.6941 8.97275 96.5536C8.89637 95.1614 8.84396 93.4877 8.82277 92.1691C8.85121 89.1561 8.49383 84.6188 10.0661 82.0117C10.293 81.6097 11.1259 80.7522 11.6065 81.0154C12.0826 81.3588 11.6606 81.9492 11.4939 82.3518C11.3896 82.6674 11.3294 82.9935 11.2497 83.3152C11.2291 83.4201 11.2084 83.5254 11.1895 83.6308C11.582 83.7914 11.9934 84.035 12.2588 84.0841C13.0678 84.3082 13.8394 84.6539 14.6612 84.8267C15.3676 84.9477 16.0835 84.9711 16.7915 85.0838C17.9701 85.3073 19.1582 85.5309 20.3647 85.4523C23.4568 85.2795 26.5578 85.2014 29.6442 84.9271C31.6274 84.7113 33.6105 84.4894 35.6042 84.3846C38.2837 84.1516 40.9721 83.9414 43.6332 83.5477C46.1582 83.0922 48.6153 82.3401 51.1119 81.7563C51.3048 81.7056 51.5005 81.6627 51.6884 81.5935C51.816 81.5478 51.9404 81.5205 52.0585 81.5077C52.0558 81.0544 52.0262 80.6028 51.9286 80.1573C51.845 79.6934 51.6722 79.3332 51.5841 78.885C51.4469 78.4272 51.8026 77.7559 52.3401 77.9784C52.9149 78.2979 53.2673 78.9301 53.5159 79.5183C53.9497 80.5465 53.6481 94.038 53.5789 95.0482Z" fill="#0FFF80"/>
</g>
<g id="Group_12">
<path id="Vector_11" d="M14.8043 84.3523C13.7066 84.1995 12.4226 84.0256 11.6721 83.1262C10.9122 81.9877 11.5785 80.7583 12.7627 80.2933C14.5239 79.3678 16.5249 79.1325 18.4522 78.7562C20.233 78.4947 21.9909 78.1 23.7711 77.8318C27.5115 77.2737 31.1572 76.1285 34.9573 76.0237C38.2936 75.9891 41.636 75.8436 44.9633 76.1658C47.0027 76.3599 49.1364 76.4418 51.0069 77.3568C52.064 77.8942 53.697 79.4002 52.7191 80.61C52.1671 83.0315 46.5361 82.9099 44.5435 82.9824C42.8642 83.1235 41.1877 83.2684 39.5051 83.3738C35.381 83.5572 31.1187 84.127 27.0504 84.0847C24.6096 84.1471 22.1737 84.4582 19.7273 84.3751C18.0871 84.3144 16.4396 84.5039 14.8043 84.3523Z" fill="#004448"/>
</g>
<g id="Group_13">
<path id="Vector_12" d="M29.4442 85.7166C27.0452 85.6151 24.6104 85.6402 22.266 85.0492C21.4303 84.9026 20.8343 84.2096 20.6676 83.3983C20.2678 82.0034 19.8631 80.6101 19.5057 79.2045C18.4174 76.0583 17.1875 72.9761 15.6666 70.049C15.0555 68.7678 14.4578 67.4804 13.7827 66.2315C13.1543 64.9536 12.5935 63.6428 11.9936 62.3516C11.3669 61.0424 10.9136 59.6659 10.4219 58.3043C9.06375 54.8949 8.25701 51.2391 8.47891 47.5587C8.46441 46.7475 8.53466 45.938 8.70749 45.144C8.84687 44.393 8.91991 43.6241 9.12174 42.8854C10.399 38.3386 13.4476 34.6198 16.3724 31.0186C20.8767 25.7236 25.4936 20.7235 30.2432 15.6738C31.584 14.2125 32.955 12.7779 34.3756 11.3941C34.8612 10.9492 35.3596 10.4011 35.9154 9.97738C36.0465 9.90657 36.1808 9.84078 36.3185 9.78614C36.4089 9.75269 36.502 9.72983 36.5967 9.7092C36.7038 9.68578 36.8103 9.65568 36.9179 9.63226C36.9798 9.62111 37.0422 9.61498 37.1052 9.60717C37.1888 9.59602 37.2725 9.58598 37.3567 9.5832C37.4486 9.58264 37.5423 9.58542 37.6332 9.59881C37.7191 9.61498 37.8044 9.64062 37.8897 9.66348C37.9922 9.6908 38.0943 9.72314 38.1941 9.75994C38.2849 9.79785 38.3736 9.84245 38.4589 9.89319C38.489 9.9127 38.5185 9.93389 38.5464 9.95786C38.6234 10.0292 38.6925 10.1101 38.76 10.1909C38.7505 10.1792 38.741 10.1681 38.7315 10.1564C38.7488 10.1764 38.7655 10.1971 38.7828 10.2177C38.8676 10.3186 38.9462 10.4234 39.0209 10.5321C39.1541 10.8131 39.2478 11.1148 39.3125 11.4203C39.6659 12.88 39.2913 14.3625 38.7756 15.7352C38.2041 17.3565 37.4509 18.912 36.6057 20.4146C37.8768 19.8314 39.2656 19.4785 40.6444 19.3007C43.2442 18.9355 45.9482 19.0983 48.4236 20.0115C49.8944 20.5429 51.4515 21.1456 52.5019 22.3538C53.1799 23.1126 53.7006 24.1993 53.2747 25.2051C52.4384 27.3377 49.6702 27.4564 47.7423 27.4949C47.2946 27.4994 46.741 27.5116 46.4594 27.1264C45.2858 27.1972 44.1061 27.1855 42.9258 27.1732C41.009 27.1531 39.0928 27.1325 37.2067 27.4709C35.8664 27.8707 34.2707 28.1054 32.9806 28.5453C31.9035 28.8771 30.8743 29.5896 29.7681 29.8154C29.491 30.0106 29.2245 30.218 28.9692 30.4427C27.7309 31.5851 27.0875 33.1886 26.4163 34.6967C24.5402 38.3737 24.2949 42.4494 26.4113 46.0891C28.5945 49.7728 31.2757 53.1582 34.2902 56.1935C38.8358 60.1437 44.522 61.8453 46.232 68.3491C46.8876 71.1284 46.8519 74.0121 46.6038 76.8416C46.5542 77.4973 46.426 80.7918 46.4232 80.9412C46.4198 81.0288 46.4159 81.1163 46.4148 81.2044C46.4104 81.3577 46.3975 81.5116 46.3909 81.6649C46.3875 81.7402 46.3791 81.816 46.3713 81.8907C46.3641 81.9643 46.3596 82.0385 46.3513 82.1115C46.3479 82.1316 46.3435 82.1511 46.339 82.1706C46.3278 82.1751 46.3167 82.1807 46.3055 82.184C46.2727 82.1935 46.2375 82.1996 46.2046 82.2091C46.1349 82.2292 46.0686 82.2543 46.0067 82.2922C45.8924 82.363 45.8194 82.4717 45.8066 82.6072C45.7976 82.7009 45.8244 82.8034 45.8846 82.877C45.4988 83.2194 44.914 83.5422 44.0766 83.7914C41.8358 84.7727 39.3872 85.0676 36.977 85.3369C34.9799 85.5644 32.975 85.7551 30.9651 85.7551C30.4584 85.7551 29.9516 85.7434 29.4442 85.7166Z" fill="#A3453A"/>
</g>
<g id="Group_14">
<path id="Vector_13" d="M46.4152 81.1637C46.4152 81.1704 46.4146 81.1776 46.4141 81.1849C46.4141 81.1776 46.4152 81.1704 46.4152 81.1637Z" fill="#A3453A"/>
</g>
<g id="Group_15">
<path id="Vector_14" d="M36.3385 9.77881C36.3357 9.77992 36.3323 9.78104 36.3295 9.78271C36.3201 9.78606 36.3095 9.78996 36.3005 9.7933C36.3128 9.78829 36.3256 9.78327 36.3385 9.77881Z" fill="#A3453A"/>
</g>
<g id="Group_16">
<path id="Vector_15" d="M62.7674 45.4479C62.7646 46.1108 62.7451 46.7732 62.7178 47.4344C62.6224 50.7797 62.2422 54.1567 61.2147 57.3526C60.748 58.6405 60.3745 59.9714 59.7417 61.1913C59.4322 61.7773 59.0838 62.3471 58.7286 62.9063C58.4008 63.4237 58.02 63.8926 57.6242 64.3587C56.7823 65.3785 55.9728 66.4289 55.0194 67.35C52.5479 69.7686 49.3276 71.2951 45.9691 72.0216C44.2357 72.4783 42.514 73.1808 40.7015 73.1997C39.2207 73.1518 38.0494 72.602 36.7676 72.1789C35.5382 71.7629 34.2626 71.5087 33.0316 71.0989C31.6896 70.6651 30.4302 70.0256 29.2237 69.3008C26.5587 67.8696 24.6352 67.0076 22.8913 64.3593C22.1291 63.1126 21.4874 61.7756 21.0905 60.3656C20.4086 59.3269 20.0479 58.1097 19.6113 56.9545C18.9841 55.2428 18.4623 53.3868 18.3998 51.5664C18.1868 48.8405 18.4065 46.0361 18.9116 43.3654C19.0951 42.3909 19.3142 41.4218 19.6141 40.4757C19.7998 39.9639 19.8884 39.34 20.3634 39.0088C20.7353 38.158 21.2254 37.3729 21.7238 36.5924C22.4374 35.4305 23.1645 34.2691 24.1173 33.2834C25.4353 31.8689 26.8369 30.4778 28.563 29.5684C29.9685 28.8553 31.4159 28.1907 32.9117 27.6889C34.7165 27.1069 36.5669 26.6926 38.4413 26.4088C40.0849 26.125 41.7419 25.9087 43.4139 25.9678C44.9895 25.9321 46.5662 26.0564 48.096 26.4484C49.7614 26.822 51.4295 27.2869 52.9131 28.1523C54.8683 29.3443 56.7734 30.6662 58.2843 32.4052C59.0358 33.2493 59.74 34.2797 60.263 35.2364C61.1165 36.627 61.736 38.1613 62.0404 39.7665C62.3531 41.6504 62.7668 43.5305 62.7674 45.4479Z" fill="#0FFF80"/>
</g>
<g id="Group_17">
<path id="Vector_16" d="M57.0765 47.261C57.1662 49.3813 56.9611 51.5245 56.4727 53.5897C56.3522 54.0954 56.1783 54.5888 56.0735 55.0984C56.0317 55.3827 55.9525 55.6621 55.8421 55.9275C55.1586 57.5455 54.3607 59.1317 53.3366 60.5601C52.9597 61.2464 52.5482 61.9144 52.0977 62.56C50.3404 64.7651 48.3991 66.0123 46.2086 66.653C44.9892 67.2769 43.7354 67.68 42.2273 67.5116C41.3503 67.4168 40.4643 67.4162 39.5979 67.2445C38.707 67.0929 37.8289 66.8721 36.9385 66.7204C36.3152 66.5961 35.6908 66.4679 35.0792 66.2956C34.4927 66.1166 33.9407 65.8479 33.3787 65.6059C32.8541 65.3801 32.3161 65.1783 31.8148 64.9034C31.1007 64.4769 30.3251 63.8067 29.9025 63.0183C27.513 60.9058 25.5689 58.2179 24.6294 55.1776C23.8963 52.0787 23.1525 48.6805 23.9414 45.5315C24.4075 43.9308 25.1836 42.4666 26.1643 41.1313C26.2686 40.8336 26.3856 40.5403 26.5217 40.2549C26.9839 39.3778 27.62 38.6107 28.2199 37.8267C29.0646 36.6291 30.0447 35.5051 31.2255 34.6415C31.317 34.5673 31.4095 34.4948 31.5037 34.424C34.4754 32.5914 37.9622 31.6056 41.4423 31.4529C43.7588 31.4596 46.1333 31.8075 48.3316 32.5986C49.7199 33.0374 51.0434 33.6898 52.071 34.574C52.2996 34.7848 52.5142 35.0078 52.7194 35.2403C54.4332 36.9497 55.5968 39.2206 56.4041 41.4792C56.8128 42.8636 56.922 44.3099 56.9226 45.755C56.9873 46.2557 57.0391 46.7575 57.0765 47.261Z" fill="#D4FFBE"/>
</g>
<g id="Group_18">
<path id="Vector_17" d="M24.4197 66.5236C23.4234 66.1913 22.7878 65.1916 22.078 64.4746C20.8826 63.0456 19.9772 61.4421 19.239 59.7595C19.1838 59.5917 19.1141 59.4294 19.0444 59.2672C18.9703 59.0921 18.8961 58.9181 18.827 58.7408C18.7467 58.5318 18.6653 58.3221 18.5939 58.1097C18.5577 58.001 18.517 57.8934 18.478 57.7852C18.4445 57.6904 18.4155 57.5945 18.3871 57.4981C18.3269 57.2879 18.2683 57.0777 18.2009 56.8703C18.1975 56.8602 18.1942 56.8502 18.1908 56.8407C18.1423 56.7002 18.0888 56.5619 18.0392 56.4226C17.975 56.238 17.9332 56.0468 17.887 55.8578C17.8914 55.8734 17.8953 55.8901 17.8992 55.9057C17.8647 55.7619 17.8318 55.6175 17.7877 55.4759C17.7749 55.4357 17.7615 55.3956 17.7492 55.3554C17.7108 55.211 17.6729 55.0666 17.6327 54.9222C17.6305 54.9122 17.6271 54.9021 17.6243 54.8927C17.6032 54.8012 17.5842 54.7103 17.5664 54.6178C17.5223 54.3898 17.4794 54.1623 17.432 53.9354C17.4298 53.9248 17.4275 53.9147 17.4253 53.9041C17.3997 53.7748 17.3762 53.6449 17.35 53.515C17.3344 53.4391 17.3177 53.3633 17.3026 53.2869C17.2803 53.1386 17.2592 52.9903 17.2391 52.842C17.2402 52.8141 17.238 52.7862 17.2335 52.7584C17.229 52.7338 17.224 52.7087 17.2185 52.6837C16.7585 49.0858 17.0133 45.3954 17.7693 41.8388C18.8426 37.6662 21.1229 33.3418 24.5457 30.5458C25.9217 29.4613 27.3702 28.4499 28.9409 27.6543C29.8123 27.0639 30.8053 27.3209 30.7802 28.47C30.7657 29.1156 30.3057 29.6052 29.6935 29.7897C28.9587 30.1499 28.2512 30.5714 27.5693 31.0213C26.3444 31.89 25.0754 32.7458 24.069 33.8609C20.9022 37.5474 19.1743 42.1923 19.0439 46.966C18.6324 51.0015 19.4615 55.0538 21.0209 58.7654C21.7374 60.4241 22.6685 62.0003 23.7546 63.4499C24.2346 64.1624 24.9945 64.7395 25.2655 65.5613C25.3709 66.0073 25.0419 66.5381 24.5591 66.5381C24.5139 66.5381 24.4677 66.5337 24.4197 66.5236Z" fill="#004448"/>
</g>
<g id="Group_19">
<path id="Vector_18" d="M18.2002 56.8691L18.2008 56.8697C18.2008 56.8708 18.2013 56.8725 18.2013 56.8725C18.2008 56.8714 18.2008 56.8703 18.2002 56.8691Z" fill="#004448"/>
</g>
<g id="Group_20">
<path id="Vector_19" d="M56.9207 66.3586C56.4591 66.0821 56.274 65.5352 56.3543 65.0278C56.5271 64.8611 56.6983 64.691 56.856 64.5109C56.9581 64.3944 57.0595 64.2762 57.1577 64.1575C57.3054 63.979 57.4442 63.7945 57.5819 63.6094C57.578 63.615 57.5736 63.6211 57.5697 63.6267C57.7877 63.3323 57.9945 63.0301 58.2014 62.7279C58.3859 62.4586 58.5699 62.1888 58.7494 61.9156C58.9596 61.5966 59.1726 61.2788 59.3677 60.9505C59.5628 60.6209 59.7463 60.2853 59.9247 59.9469C60.0206 59.7651 60.1148 59.5811 60.1956 59.3921C60.2659 59.2299 60.3294 59.0648 60.3969 58.9015C60.5703 58.4855 60.6941 58.054 60.8334 57.6269C60.8329 57.6297 60.8318 57.6325 60.8307 57.6353C60.9661 57.2127 61.062 56.7795 61.1747 56.3507C61.1702 56.3663 61.1657 56.3819 61.1613 56.3975C61.2198 56.1818 61.2767 55.966 61.3308 55.7486C61.3269 55.7642 61.323 55.7803 61.3191 55.7954C61.3759 55.5713 61.4289 55.346 61.4924 55.1241C61.5766 54.8437 61.6753 54.5671 61.7489 54.2839C61.7935 54.1105 61.8281 53.9343 61.8693 53.7603C61.9039 53.612 61.9301 53.4637 61.9519 53.3132C61.9675 53.2017 61.9814 53.0902 61.9892 52.977C62.1676 52.0364 62.3254 51.0914 62.5105 50.1519C62.6967 48.6003 62.6911 47.0336 62.6198 45.4769C62.5869 44.4315 62.5306 43.3883 62.3416 42.3591C62.2027 41.2853 61.9045 40.2443 61.5833 39.2123C61.1819 37.7677 60.6734 36.3465 59.8667 35.0692C59.288 34.1671 58.7098 33.2399 57.9031 32.5134C57.0768 31.8337 56.1619 31.2656 55.2888 30.6445C53.6848 29.6108 51.8952 28.857 50.0938 28.2114C48.5232 27.7291 46.8913 27.4631 45.2678 27.1961C44.5988 27.098 43.9175 27.0444 43.239 27.0506C42.3937 27.0985 41.5463 27.1203 40.7 27.1236C38.6538 27.2206 36.6211 27.5613 34.6396 28.0809C33.5614 28.3268 32.492 28.6245 31.4846 29.085C30.7325 29.3889 29.9754 29.6415 29.2835 30.0485C28.6401 30.3155 28.0207 30.7633 27.4498 31.1229C26.6776 31.6057 25.8073 31.9369 25.1293 32.5574C24.8779 32.7844 24.6521 33.0369 24.3945 33.2583C24.0728 33.5476 23.6597 33.7283 23.3274 33.9981C23.1401 34.1615 22.9449 34.326 22.7816 34.5128C22.592 34.7391 22.4465 35.0201 22.1878 35.1796C22.0345 35.2565 21.8494 35.1573 21.7942 35.009C21.8377 35.1249 21.7797 34.9705 21.7763 34.9593C21.7613 34.9081 21.7513 34.8478 21.7591 34.7938C21.8667 34.3232 22.107 33.885 22.3528 33.4685C22.7325 32.766 23.3268 32.2764 23.74 31.6124C24.2975 30.8235 25.0122 30.1477 25.8636 29.6666C26.4875 29.2913 27.0127 28.7823 27.6371 28.4093C28.0881 28.1456 28.5475 27.8991 29.003 27.6421C29.6704 27.2981 30.3801 27.045 31.0631 26.7322C31.9557 26.3458 32.8912 26.0604 33.8385 25.8396C35.5768 25.3707 37.3459 25.0367 39.1361 24.8494C39.8782 24.7735 40.6214 24.7713 41.3668 24.7596C42.3859 24.7301 43.4085 24.6369 44.4248 24.7512C46.1665 24.9559 47.8993 25.277 49.5981 25.6941C50.6775 25.9851 51.7173 26.3932 52.7303 26.851C54.2295 27.4799 55.6679 28.2459 56.967 29.2099C57.9661 29.9013 59.0159 30.5547 59.7898 31.4981C61.3748 33.4306 62.6332 35.6462 63.2832 38.0537C64.0967 40.4869 64.5862 43.0209 64.6191 45.5912C64.696 47.4941 64.7178 49.4187 64.4033 51.3077C64.2901 51.9494 64.1407 52.5845 64.027 53.2262C63.9183 53.8417 63.8268 54.4612 63.6802 55.07C63.3451 56.3256 62.9052 57.5528 62.5066 58.7911C61.7439 61.0441 60.524 63.1199 59.08 65.025C58.7879 65.4064 58.4656 65.7643 58.1473 66.1256C57.9599 66.3581 57.6801 66.4874 57.3946 66.4874C57.2329 66.4874 57.0701 66.4456 56.9207 66.3586Z" fill="#004448"/>
</g>
<g id="Group_21">
<path id="Vector_20" d="M37.6945 73.5543C36.4813 73.3703 35.3222 72.9566 34.1693 72.5641C33.1094 72.1838 32.0534 71.7924 31.0281 71.3336C28.2873 70.0618 25.7433 68.3613 23.7084 66.1562C22.7304 65.1548 21.7386 64.1446 20.9915 62.9609C19.9829 61.4578 19.2459 59.794 18.69 58.0813C18.3951 57.2946 18.1175 56.5012 17.8515 55.7033C17.832 55.6275 17.8119 55.5511 17.788 55.4753C17.7751 55.4352 17.7629 55.395 17.7489 55.3549C17.711 55.2105 17.6731 55.0655 17.6335 54.9217C17.6302 54.9116 17.6279 54.9021 17.6252 54.8915C17.604 54.8007 17.5845 54.7098 17.5672 54.6178C17.5209 54.3786 17.4757 54.1416 17.4261 53.9036C17.4005 53.7742 17.3771 53.6443 17.3509 53.515C17.323 53.3795 17.2918 53.2451 17.2717 53.1074C17.2594 53.0226 17.2494 52.9379 17.2388 52.8526C17.2416 52.8214 17.2393 52.7896 17.2343 52.7589C17.221 52.6887 17.2048 52.6173 17.1875 52.5476C17.2304 52.4623 17.2895 52.382 17.3693 52.3062C17.7305 51.9845 18.258 52.0698 18.6337 52.3062C19.2242 52.6413 19.2955 53.3321 19.4494 53.9186C19.7856 55.0884 20.1575 56.131 20.5667 57.2561C21.2463 59.3168 22.0949 61.3602 23.4915 63.0585C24.3523 64.076 25.3185 64.9976 26.2551 65.9466C28.5488 68.0184 31.3777 69.4468 34.3153 70.4538C35.4003 70.839 36.4969 71.2293 37.6432 71.4094C39.7518 71.6508 41.8977 71.7294 44.0152 71.5042C46.0547 71.2466 48.011 70.5814 49.8425 69.6648C49.8966 69.6425 49.9512 69.6213 50.0059 69.6002C50.0861 69.5689 50.1675 69.5383 50.2445 69.4998C50.3437 69.4518 50.4402 69.3961 50.535 69.3398C50.545 69.3342 50.5545 69.3286 50.5645 69.3225C50.5522 69.3303 50.5389 69.3376 50.5266 69.3448C50.545 69.3342 50.5623 69.3231 50.5812 69.3125C50.5823 69.3113 50.584 69.3102 50.5862 69.3091C50.5862 69.3091 50.5862 69.3091 50.5868 69.3086C50.5868 69.3086 50.5874 69.3086 50.5874 69.308C50.5902 69.3069 50.5929 69.3047 50.5957 69.303C50.5952 69.3035 50.5952 69.3035 50.5946 69.3041C50.5952 69.3041 50.5952 69.3035 50.5957 69.303C50.5963 69.303 50.5968 69.303 50.5968 69.303C50.5974 69.3024 50.598 69.3024 50.5985 69.3019C50.5991 69.3019 50.5985 69.3019 50.5991 69.3019C50.5991 69.3019 50.5996 69.3013 50.6002 69.3013C50.6002 69.3013 50.5996 69.3013 50.5991 69.3019C50.6019 69.2996 50.6041 69.2985 50.6069 69.2969C50.6074 69.2969 50.6085 69.2963 50.6091 69.2957C50.6102 69.2952 50.6119 69.2941 50.613 69.2935L50.6119 69.2946C50.613 69.2941 50.613 69.2929 50.6141 69.2924H50.6147C50.6152 69.2918 50.6158 69.2918 50.6158 69.2913C50.6158 69.2913 50.6169 69.2907 50.6175 69.2907C50.618 69.2907 50.618 69.2902 50.6186 69.2902C50.6203 69.289 50.6214 69.2885 50.6225 69.2874C50.6242 69.2863 50.6258 69.2857 50.6281 69.2846C50.6219 69.2885 50.6169 69.2907 50.6119 69.2946C50.7256 69.2266 50.841 69.1614 50.9553 69.0939C51.131 68.9908 51.3055 68.8871 51.4805 68.785C51.6511 68.6858 51.8206 68.5854 51.9812 68.4711C51.9778 68.4734 51.9745 68.4756 51.9717 68.4778C51.9762 68.4745 51.9812 68.4711 51.9856 68.4678C51.9879 68.4661 51.9901 68.4644 51.9923 68.4628C51.9912 68.4639 51.9901 68.4644 51.9884 68.4656C51.9934 68.4616 51.9979 68.4589 52.0024 68.4555C52.0035 68.4544 52.0052 68.4533 52.0063 68.4522C52.0068 68.4522 52.0074 68.4527 52.0079 68.4522C52.0074 68.4522 52.0074 68.4522 52.0068 68.4522C52.0141 68.4466 52.0208 68.4416 52.0275 68.4366C52.0291 68.4354 52.0314 68.4349 52.033 68.4338C52.0342 68.4327 52.0353 68.4315 52.0369 68.4304C52.0431 68.4265 52.0475 68.4226 52.0531 68.4187C52.047 68.4232 52.0414 68.4276 52.0353 68.4321C52.0893 68.3931 52.1429 68.3529 52.1969 68.3139C52.609 68.0474 53.0126 67.7708 53.4073 67.4859C54.1539 66.9145 54.9071 66.3458 55.6029 65.7163C55.735 65.6014 55.8666 65.4855 55.9954 65.3673C55.982 65.3795 55.9686 65.3918 55.9558 65.4041C56.0589 65.3093 56.1615 65.2134 56.2624 65.1158C56.4665 64.9207 56.6706 64.7222 56.8562 64.5109C56.9588 64.3944 57.0597 64.2773 57.1578 64.1585C57.3039 63.9818 57.4411 63.7989 57.5782 63.616C57.5777 63.6166 57.5771 63.6166 57.5765 63.6166C57.7929 63.3261 57.9969 63.0261 58.2015 62.7278C58.3861 62.4586 58.5701 62.1881 58.7501 61.9155C58.9592 61.596 59.1727 61.2788 59.3679 60.9504C59.5625 60.6203 59.7464 60.2852 59.9249 59.9474C60.0207 59.765 60.115 59.5805 60.1964 59.3921C60.2661 59.2292 60.3296 59.0648 60.3971 58.902C60.5694 58.4883 60.692 58.0595 60.8308 57.6352C60.9669 57.2126 61.0622 56.7794 61.1748 56.3506C61.1715 56.3618 61.1681 56.3729 61.1654 56.3841C61.2205 56.18 61.2741 55.9749 61.3254 55.7691C61.3237 55.778 61.3215 55.787 61.3192 55.7953C61.3755 55.5717 61.4296 55.3459 61.4932 55.1235C61.5774 54.843 61.676 54.5676 61.7491 54.2838C61.7937 54.1104 61.8283 53.9342 61.869 53.7597C61.9035 53.612 61.9303 53.4637 61.952 53.3137C61.9643 53.2245 61.976 53.1364 61.9838 53.0472C62.0318 52.9312 62.0814 52.8158 62.1321 52.7015C62.3378 52.1696 62.4716 51.6171 62.6333 51.0729C62.7878 50.5187 62.8993 49.95 63.1061 49.4109C63.173 49.2325 63.1624 49.0362 63.2115 48.8539C63.2505 48.7072 63.3994 48.6364 63.5449 48.6649C63.9825 48.7836 64.0411 49.3278 64.0701 49.7041C64.2345 50.8019 64.2474 51.917 64.0673 53.0182C63.8476 54.1004 63.4657 55.148 63.2823 56.2397C62.9383 57.5298 62.6818 58.854 62.1611 60.0912C61.8015 60.9147 61.2986 61.6691 60.8576 62.4513C60.3653 63.2285 59.9455 64.0481 59.4498 64.822C58.9865 65.4961 58.5388 66.188 57.9657 66.7795C56.6193 68.1522 55.0381 69.2996 53.4347 70.3679C52.8487 70.7225 52.2516 71.0637 51.6428 71.3854C51.5424 71.4323 51.4421 71.478 51.3423 71.527C51.2882 71.5538 51.233 71.58 51.1778 71.6051C51.1321 71.6213 51.0875 71.643 51.0451 71.6664C51.0072 71.6848 50.9698 71.7038 50.9319 71.7216C50.8756 71.7467 50.8182 71.7701 50.7619 71.7963C50.763 71.7958 50.7641 71.7958 50.7652 71.7952C50.7596 71.7974 50.7546 71.7997 50.749 71.8019C50.7479 71.8025 50.7474 71.803 50.7468 71.8036C50.7357 71.8086 50.7245 71.8136 50.7128 71.8192C50.7145 71.8181 50.7167 71.817 50.7189 71.8158C50.7139 71.8181 50.7095 71.8209 50.7044 71.8231C50.6944 71.8276 50.6844 71.832 50.6743 71.837C50.6771 71.8359 50.6794 71.8342 50.6827 71.8331C50.6766 71.8359 50.671 71.8393 50.6643 71.8415C50.6582 71.8448 50.6515 71.8482 50.6453 71.8504C50.6426 71.8521 50.6403 71.8532 50.6381 71.8543C50.6364 71.8549 50.6348 71.8554 50.6331 71.8565C50.6325 71.8565 50.632 71.8565 50.6314 71.8565C50.6308 71.8565 50.6309 71.8577 50.6303 71.8577C50.6297 71.8582 50.6292 71.8582 50.6286 71.8588C50.6264 71.8599 50.6236 71.861 50.6214 71.8621C50.6242 71.861 50.6269 71.8588 50.6297 71.8577H50.6303C50.6325 71.8565 50.6353 71.8554 50.6381 71.8543C50.6398 71.8532 50.642 71.8526 50.6442 71.8515C50.5299 71.9051 50.419 71.9625 50.3086 72.0221C50.2261 72.0662 50.1458 72.1141 50.0627 72.1576C49.0452 72.6115 47.9965 72.9928 46.9138 73.2632C46.014 73.4757 45.1013 73.6351 44.1819 73.7394C43.1834 73.8152 42.1765 73.8102 41.1746 73.8208C40.0122 73.7857 38.8464 73.7082 37.6945 73.5543ZM53.2512 68.7248C53.2468 68.7477 53.2635 68.765 53.2864 68.765C53.3098 68.765 53.3332 68.746 53.3382 68.7226C53.3427 68.6997 53.3254 68.6819 53.3031 68.6819C53.2797 68.6819 53.2557 68.702 53.2512 68.7248Z" fill="#004448"/>
</g>
<g id="Group_22">
<path id="Vector_21" d="M50.741 71.8058C50.7315 71.8097 50.7226 71.8147 50.7131 71.8192C50.7221 71.8147 50.7315 71.8097 50.741 71.8058Z" fill="#004448"/>
</g>
<g id="Group_23">
<path id="Vector_22" d="M50.7483 71.8019L50.7478 71.803H50.7461L50.7483 71.8019Z" fill="#004448"/>
</g>
<g id="Group_24">
<path id="Vector_23" d="M50.5812 69.3119L50.5801 69.313L50.5812 69.3119Z" fill="#004448"/>
</g>
<g id="Group_25">
<path id="Vector_24" d="M50.599 69.3013L50.5985 69.3024H50.5979L50.599 69.3013Z" fill="#004448"/>
</g>
<g id="Group_26">
<path id="Vector_25" d="M51.9883 68.4656C51.9872 68.4661 51.986 68.4667 51.9849 68.4678C51.9833 68.4689 51.9816 68.4706 51.9805 68.4712C51.9827 68.4695 51.986 68.4672 51.9883 68.4656Z" fill="#004448"/>
</g>
<g id="Group_27">
<path id="Vector_26" d="M50.5303 69.3414C50.5208 69.3464 50.5119 69.3531 50.5024 69.3582C50.5119 69.3526 50.5208 69.3464 50.5303 69.3414Z" fill="#004448"/>
</g>
<g id="Group_28">
<path id="Vector_27" d="M50.6128 69.293C50.6111 69.2941 50.6094 69.2952 50.6083 69.2958L50.6072 69.2963C50.6089 69.2952 50.6111 69.2941 50.6128 69.293Z" fill="#004448"/>
</g>
<g id="Group_29">
<path id="Vector_28" d="M50.6128 69.293L50.6145 69.2919L50.6128 69.293Z" fill="#004448"/>
</g>
<g id="Group_30">
<path id="Vector_29" d="M50.6151 69.2913H50.6156L50.6145 69.2924L50.6151 69.2913Z" fill="#004448"/>
</g>
<g id="Group_31">
<path id="Vector_30" d="M50.6167 69.2908L50.6162 69.2913L50.6151 69.2919H50.6145L50.6167 69.2908Z" fill="#004448"/>
</g>
<g id="Group_32">
<path id="Vector_31" d="M50.6163 69.2913L50.6168 69.2902L50.6163 69.2913H50.6157H50.6163Z" fill="#004448"/>
</g>
<g id="Group_33">
<path id="Vector_32" d="M50.6178 69.2902L50.6167 69.2913L50.6178 69.2902Z" fill="#004448"/>
</g>
<g id="Group_34">
<path id="Vector_33" d="M50.6184 69.2897L50.6173 69.2902L50.6162 69.2908C50.6162 69.2908 50.6173 69.2902 50.6184 69.2897Z" fill="#004448"/>
</g>
<g id="Group_35">
<path id="Vector_34" d="M52.0061 68.4528C52.005 68.4533 52.0045 68.4544 52.0033 68.455C51.9994 68.4578 51.9961 68.46 51.9922 68.4628C51.9972 68.4594 52.0017 68.4561 52.0061 68.4528Z" fill="#004448"/>
</g>
<g id="Group_36">
<path id="Vector_35" d="M52.0028 68.4544C52.0039 68.4538 52.0055 68.4527 52.0067 68.4521H52.0061C52.005 68.4533 52.0033 68.4544 52.0022 68.4555L52.0028 68.4544Z" fill="#004448"/>
</g>
<g id="Group_37">
<path id="Vector_36" d="M52.034 68.4321L52.0324 68.4332C52.0307 68.4344 52.029 68.4355 52.0273 68.4366C52.0296 68.4355 52.0318 68.4338 52.034 68.4321Z" fill="#004448"/>
</g>
<g id="Group_38">
<path id="Vector_37" d="M52.0356 68.4315L52.0368 68.4304L52.0356 68.4315Z" fill="#004448"/>
</g>
<g id="Group_39">
<path id="Vector_38" d="M52.0367 68.4304C52.0417 68.4265 52.0473 68.4226 52.0529 68.4187C52.0478 68.4226 52.0417 68.4265 52.0361 68.431L52.0367 68.4304Z" fill="#004448"/>
</g>
<g id="Group_40">
<path id="Vector_39" d="M50.6295 71.8583H50.6301C50.6301 71.8583 50.6278 71.8588 50.6267 71.8594L50.6295 71.8583Z" fill="#004448"/>
</g>
<g id="Group_41">
<path id="Vector_40" d="M50.6313 71.8572H50.6319L50.6296 71.8583L50.6313 71.8572Z" fill="#004448"/>
</g>
<g id="Group_42">
<path id="Vector_41" d="M50.6367 71.8543C50.6384 71.8537 50.6401 71.8526 50.6417 71.8515L50.644 71.851C50.6401 71.8526 50.6362 71.8549 50.6328 71.8565C50.6339 71.8554 50.635 71.8549 50.6367 71.8543Z" fill="#004448"/>
</g>
<g id="Group_43">
<path id="Vector_42" d="M52.0023 68.4556L52.0012 68.4567L52.0023 68.4556Z" fill="#004448"/>
</g>
<g id="Group_44">
<path id="Vector_43" d="M53.4456 67.413L53.4439 67.4135L53.4434 67.4141L53.4456 67.413Z" fill="#004448"/>
</g>
<g id="Group_45">
<path id="Vector_44" d="M50.5857 69.3091L50.5834 69.3108C50.5823 69.3113 50.5812 69.3119 50.5801 69.3124C50.5818 69.3113 50.584 69.3102 50.5857 69.3091Z" fill="#004448"/>
</g>
<g id="Group_46">
<path id="Vector_45" d="M50.5939 69.3036C50.5928 69.3041 50.5917 69.3053 50.5905 69.3058C50.5889 69.3069 50.5866 69.308 50.585 69.3092C50.5877 69.3075 50.5911 69.3053 50.5939 69.3036Z" fill="#004448"/>
</g>
<g id="Group_47">
<path id="Vector_46" d="M50.5955 69.303L50.5933 69.3041L50.5955 69.303Z" fill="#004448"/>
</g>
<g id="Group_48">
<path id="Vector_47" d="M50.5972 69.3019L50.5988 69.3008V69.3013L50.5972 69.3019Z" fill="#004448"/>
</g>
<g id="Group_49">
<path id="Vector_48" d="M50.6158 69.2913L50.6141 69.2924H50.6135C50.6146 69.2924 50.6158 69.2913 50.6158 69.2913Z" fill="#004448"/>
</g>
<g id="Group_50">
<path id="Vector_49" d="M50.6151 69.2913L50.6146 69.2924H50.614L50.6151 69.2913Z" fill="#004448"/>
</g>
<g id="Group_51">
<path id="Vector_50" d="M50.6155 69.2913C50.6161 69.2913 50.6161 69.2913 50.6161 69.2907C50.6167 69.2907 50.6172 69.2902 50.6178 69.2896C50.6189 69.2885 50.6211 69.2879 50.6222 69.2868C50.6228 69.2868 50.6234 69.2863 50.6239 69.2863C50.6211 69.2879 50.6178 69.2896 50.615 69.2918L50.6155 69.2913Z" fill="#004448"/>
</g>
<g id="Group_52">
<path id="Vector_51" d="M53.2568 67.5411C53.2556 67.5417 53.2545 67.5428 53.2534 67.5434C53.2545 67.5423 53.2556 67.5417 53.2568 67.5411Z" fill="#004448"/>
</g>
<g id="Group_53">
<path id="Vector_52" d="M54.0212 61.5771C53.1732 61.1038 53.4893 59.8839 53.8974 59.2014C54.3323 58.1003 54.7744 57.0019 55.3186 55.9482C56.1264 53.8507 56.5725 51.63 57.038 49.4366C57.7745 44.872 56.4437 39.2664 53.0511 36.0025C51.7866 34.9504 50.4207 33.8822 48.8061 33.4551C46.634 32.9327 44.405 32.4766 42.1609 32.592C39.7301 32.7186 37.2547 32.9115 34.9242 33.653C33.6948 34.1654 32.4962 34.7843 31.3833 35.5169C29.2998 37.0953 27.8469 39.3651 26.4146 41.5166C25.6464 42.8988 24.94 44.3166 24.2241 45.7267C23.7089 46.7698 23.1687 45.9586 23.3527 45.1357C23.7669 42.2833 25.0888 39.6026 26.8066 37.3083C27.9333 35.7605 29.1292 34.2078 30.7645 33.1652C32.3211 32.2341 33.6904 31.4418 35.3702 31.0002C36.0381 30.8452 36.7133 30.7114 37.3913 30.5977C37.5301 30.5843 37.6683 30.5709 37.8066 30.5542C37.8819 30.5453 37.9566 30.5358 38.0313 30.523C38.0792 30.5218 38.1272 30.5207 38.1757 30.5196C38.2889 30.5157 38.4032 30.5129 38.5158 30.504C38.6055 30.4973 38.6959 30.4862 38.7851 30.4761C38.9718 30.4555 39.1592 30.4371 39.3459 30.4126C39.5143 30.3914 39.6833 30.3696 39.8505 30.3462C40.0022 30.325 40.1516 30.2944 40.3027 30.2704C40.3266 30.2676 40.3506 30.2643 40.3746 30.2609C40.5095 30.2553 40.6444 30.2492 40.7794 30.2392C40.9533 30.2269 41.125 30.2013 41.2973 30.1806C41.3202 30.1778 41.3425 30.1756 41.3648 30.1734C42.3226 30.1282 43.281 30.1238 44.2355 30.1611C46.2587 30.4142 48.3093 30.7008 50.2384 31.3844C51.7242 32.0423 53.0868 33.0258 54.2933 34.1063C58.6972 38.347 60.1557 45.9837 58.5695 51.7699C58.0466 54.0798 57.4968 56.412 56.3706 58.5129C55.8376 59.4618 55.6029 61.6028 54.2816 61.6028C54.1991 61.6028 54.1126 61.5944 54.0212 61.5771Z" fill="#004448"/>
</g>
<g id="Group_54">
<path id="Vector_53" d="M40.9478 68.8435C39.7385 68.8296 38.5381 68.6205 37.3857 68.2564C35.713 67.8171 34.1207 67.0912 32.6053 66.2788C32.6315 66.2922 32.6582 66.3056 32.685 66.319C32.6956 66.3246 32.7062 66.3296 32.7619 66.3574C31.6541 65.8077 30.6093 65.1409 29.6241 64.3949C29.149 64.0414 28.6121 63.6829 28.3735 63.1209C28.2129 62.7423 28.2085 62.1073 28.6907 61.9606C29.1596 61.8224 29.6687 61.9696 30.0863 62.1965C30.4827 62.4346 30.8016 62.7747 31.1858 63.0322C31.9741 63.6472 32.9811 64.2655 33.8124 64.6815C35.0685 65.35 36.3626 65.9594 37.7436 66.3223C38.8448 66.6831 39.9939 66.8698 41.1536 66.847C42.5446 66.8057 43.9814 66.8364 45.3 66.3312C47.4053 65.4163 49.4231 64.2131 51.0762 62.608C51.7179 61.9824 52.3814 61.3094 52.925 60.6264C53.2361 60.2033 53.5021 59.75 53.7875 59.3095C54.1667 58.7113 54.4337 58.0522 54.6969 57.3971C55.6035 55.3476 56.2458 53.2083 56.5875 50.9965C57.1049 48.4653 57.0994 45.8777 56.7626 43.3224C56.5468 42.4142 56.3266 41.4943 55.9029 40.6563C55.158 38.9663 54.1193 37.4281 52.925 36.0236C51.9939 34.9687 50.8755 34.1101 49.8463 33.1589C49.5625 32.8785 49.1014 32.7124 48.8706 32.4102H48.8745C48.5567 31.5354 50.5086 32.1782 50.832 32.3527C53.2713 33.3374 55.1875 35.2419 56.6076 37.418C57.0057 37.9416 57.3369 38.5092 57.619 39.1029C58.1576 40.1528 58.6795 41.2222 58.9276 42.3835C59.2621 43.4635 59.2905 44.6081 59.3742 45.7288C59.5537 48.0337 59.2303 50.328 58.7882 52.5855C58.4269 54.363 57.9061 56.1081 57.1858 57.7735C56.8563 58.5451 56.6349 59.1701 56.258 59.8821C55.8599 60.5668 55.4357 61.2381 54.9813 61.887C53.9431 63.1187 52.8102 64.2851 51.5362 65.2747C50.0358 66.4177 48.3074 67.419 46.5824 68.1427C44.7988 68.8497 42.839 68.838 40.9478 68.8435Z" fill="#004448"/>
</g>
<g id="Group_55">
<path id="Vector_54" d="M41.3818 69.0298C34.8161 68.4059 28.9374 65.9153 25.2581 60.2172C24.1982 58.6193 23.5331 56.8101 23.067 54.959C22.3633 52.3096 21.9246 49.4756 22.4732 46.7603C22.7074 44.7398 23.3223 42.9528 24.2668 41.1776C25.5012 39.0021 26.6481 36.7368 28.3224 34.8573C29.8562 33.406 31.6298 32.2385 33.6113 31.5025C34.665 31.0531 35.8158 31.0174 36.8986 30.6746C36.9348 30.6634 36.9716 30.6523 37.0078 30.6422C37.0134 30.6411 37.0184 30.64 37.024 30.6394C37.0257 30.6389 37.0274 30.6394 37.029 30.6394L37.0296 30.6383C37.0324 30.6383 37.0352 30.6383 37.0374 30.6383H37.0357C37.0368 30.6378 37.0391 30.6372 37.0391 30.6372C37.0435 30.6366 37.0474 30.6366 37.0519 30.6361C37.0497 30.6366 37.0474 30.6366 37.0452 30.6372C37.1478 30.6244 37.2509 30.611 37.3541 30.601C37.5052 30.5865 37.6557 30.572 37.8062 30.5541C37.8815 30.5458 37.9568 30.5357 38.0315 30.5229C38.0794 30.5212 38.1274 30.5207 38.1759 30.519C38.2896 30.5151 38.4028 30.5129 38.516 30.5039C38.6058 30.4967 38.6955 30.4861 38.7847 30.4761C38.9721 30.4554 39.16 30.4365 39.3462 30.4125C39.5146 30.3908 39.6829 30.3701 39.8508 30.3462C39.8842 30.3417 39.9171 30.3367 39.95 30.3317C40.7479 30.7537 40.9497 32.2608 39.9706 32.6042C39.301 32.8328 38.5941 32.8406 37.9016 32.9443C37.0898 33.2086 36.1949 33.3742 35.3904 33.4996C33.1569 34.1553 31.0822 35.3685 29.4899 37.0518C28.2806 38.5047 27.3272 40.2649 26.415 41.8963C23.595 46.5607 23.8052 51.398 25.5375 56.4008C26.9034 60.0226 29.8551 62.9302 33.3158 64.5895C34.9862 65.3768 36.7185 65.8306 38.5004 66.2198C40.2076 66.5426 41.9483 66.8147 43.6666 66.4021C45.7279 65.8724 47.6854 64.9664 49.5259 63.9104C51.1266 62.8494 51.3245 65.941 48.1928 67.331C46.2085 68.2336 44.1216 69.0465 41.9204 69.0471C41.7414 69.0471 41.5619 69.0409 41.3818 69.0298Z" fill="#004448"/>
</g>
<g id="Group_56">
<path id="Vector_55" d="M37.0098 30.6417C37.0126 30.6411 37.0165 30.6411 37.0193 30.6405C37.0199 30.6405 37.0199 30.6405 37.0204 30.6405C37.021 30.64 37.0215 30.6394 37.0227 30.6394C37.0249 30.6389 37.0277 30.6389 37.0305 30.6383C37.0299 30.6383 37.0299 30.6383 37.0299 30.6389C37.0293 30.6389 37.0282 30.6389 37.0277 30.6389C37.0266 30.6394 37.0249 30.6394 37.0238 30.6394C37.0193 30.64 37.0137 30.6411 37.0093 30.6417H37.0098Z" fill="#004448"/>
</g>
<g id="Group_57">
<path id="Vector_56" d="M37.0293 30.6389C37.031 30.6384 37.0321 30.6378 37.0338 30.6378H37.0349C37.0332 30.6378 37.031 30.6389 37.0293 30.6389Z" fill="#004448"/>
</g>
<g id="Group_58">
<path id="Vector_57" d="M39.645 68.3897C38.3799 68.3786 37.1667 68.0418 35.9881 67.6086C35.0882 67.3137 34.1682 67.07 33.2923 66.7048C31.8265 66.0893 30.5369 65.1448 29.2947 64.168C25.7326 61.513 24.211 59.3296 22.9961 55.0516C22.1933 51.9494 21.818 48.5657 22.7569 45.4545C23.0407 44.6801 23.3708 43.9246 23.6813 43.1608C23.8854 42.5971 24.1263 42.0485 24.3799 41.506C24.5545 40.9724 25.1577 40.5727 25.6249 41.0611C26.2098 41.7201 25.6049 42.5475 25.5441 43.2829C25.3144 44.6617 24.6024 45.9062 24.342 47.2749C23.8402 50.5399 24.5065 53.9042 25.785 56.921C26.0225 57.444 26.2784 57.9592 26.5811 58.447C27.1142 59.2806 27.8228 59.9825 28.5091 60.6889C30.0446 62.216 31.6186 63.7097 33.5817 64.6408C34.8691 65.2117 36.2629 65.4994 37.5687 66.023C38.3955 66.3129 39.2854 66.3759 40.1457 66.4696C40.6514 66.5549 41.3182 66.5933 41.7949 66.571C42.7751 66.4835 43.7547 66.3157 44.7371 66.4723C45.1647 66.532 45.594 66.406 46.0177 66.4634C46.5396 66.5822 46.3489 67.1704 45.9073 67.2858C45.1686 67.7201 44.3128 67.7447 43.4893 67.8952C42.9217 67.9995 42.3653 68.1561 41.8033 68.2855C41.0918 68.4137 40.3648 68.4399 39.645 68.3897Z" fill="#004448"/>
</g>
<g id="Group_59">
<path id="Vector_58" d="M11.393 84.6996C9.98244 83.7925 9.40874 82.3049 10.8645 81.1079C11.6455 80.4282 12.653 80.1327 13.6209 79.8278C14.5748 79.4765 15.5622 79.2434 16.5663 79.0901C17.3279 79.0511 18.6821 78.4969 19.1711 79.2836C19.4281 79.7358 19.0016 80.2431 18.5539 80.3368C17.988 80.4829 17.6758 83.8281 19.1655 83.8973C22.5536 84.0205 25.9462 84.079 29.332 83.8666C32.5311 83.6458 35.7358 83.4752 38.9282 83.1741C41.8028 82.9009 44.6641 82.4638 47.5058 81.9526C48.4809 81.6989 50.9441 81.4117 51.4174 80.5442C51.5049 80.2855 51.3505 80.0062 51.2764 79.7592C51.0662 79.2446 50.6904 78.8303 50.2589 78.4896C49.475 77.8741 48.5433 77.4604 47.5604 77.2987C47.3045 77.2798 47.1005 77.0512 47.3413 76.8527C47.5844 76.715 47.8888 76.7601 48.1592 76.7345C50.1329 76.7005 52.4237 77.3768 53.3498 79.2713C53.8951 80.2783 53.6615 81.2462 52.8519 82.0239C52.2019 82.6606 51.3031 82.9606 50.4551 83.2332C48.3694 83.8404 42.2767 84.965 33.315 85.5616C29.9475 85.7857 12.2087 85.1746 11.393 84.6996Z" fill="#004448"/>
</g>
<g id="Group_60">
<path id="Vector_59" d="M31.3686 28.1929C30.6962 28.2035 30.3912 27.4191 30.6042 26.8571C30.7196 26.4941 30.9956 26.1841 31.2303 25.9087C32.2194 24.6893 33.1131 23.3941 34.0074 22.1045C35.2335 20.1726 36.4171 18.1995 37.3599 16.112C37.8394 14.9339 38.4131 13.7241 38.4276 12.43C38.4901 11.3171 37.6504 10.3314 36.5164 10.3169C36.2889 10.3375 35.9862 10.5054 35.8228 10.294C35.6968 10.0036 35.9901 9.73315 36.2276 9.6116C36.8531 9.30551 37.6153 9.36907 38.2542 9.60436C42.4169 11.432 38.087 18.9778 36.5693 21.6078C35.5987 23.2843 34.4668 24.8594 33.3294 26.4255C33.0942 26.7383 32.8477 27.0427 32.5952 27.3421C32.2913 27.7452 31.9233 28.2035 31.3686 28.1929Z" fill="#004448"/>
</g>
<g id="Group_61">
<path id="Vector_60" d="M8.49103 99.3062C8.2853 98.9678 8.3154 98.5045 8.26634 98.1371C8.22954 97.7479 8.21059 97.3576 8.17323 96.9768C8.09127 96.1494 8.0199 95.3237 8.02715 94.4918C7.9753 92.1189 7.98199 90.1006 8.18884 87.8147C8.39235 85.7807 8.55961 83.0884 10.1308 81.6142C10.4402 81.3371 10.3092 85.7378 10.1525 87.0731C10.0087 89.1963 9.8782 91.3239 9.97131 93.452C9.99975 94.8024 9.94121 96.3189 9.92337 97.6325C9.88322 98.1683 9.9847 98.7292 9.78732 99.2416C9.52361 99.861 8.8289 99.9101 8.49103 99.3062Z" fill="#004448"/>
</g>
<g id="Group_62">
<path id="Vector_61" d="M9.13522 86.966C8.92614 86.9097 8.96963 86.6465 8.9529 86.4804C8.95123 86.0349 8.92112 85.58 8.94064 85.1401C8.9858 83.7049 9.25509 82.0485 10.5029 81.1581C11.5477 80.4199 14.772 81.7033 14.4687 81.7507C13.6357 81.9141 12.7738 81.9737 11.9887 82.3211C11.5516 82.5341 11.0571 82.635 10.6785 82.9539C10.0702 83.6977 9.91244 84.6778 9.67716 85.5827C9.54948 85.8899 9.54 87.0162 9.13522 86.966Z" fill="#004448"/>
</g>
<g id="Group_63">
<path id="Vector_62" d="M52.8359 96.3106C52.6023 96.0407 52.6464 95.6716 52.6135 95.3404C52.5795 94.9295 52.5666 94.7439 52.5404 94.3798C52.2873 91.4454 52.5973 88.5044 52.6692 85.5683C52.5967 83.8165 52.9134 81.9705 52.1524 80.3274C51.9299 79.6868 51.5458 79.0885 50.9821 78.6988C50.6007 78.3771 50.1987 78.0956 49.7449 77.8848C49.5497 77.7856 49.2922 77.7711 49.1544 77.586C49.068 77.451 49.1539 77.2447 49.2983 77.1918C49.5492 77.1249 49.8302 77.1901 50.0822 77.2302C50.7713 77.3869 51.427 77.6646 52.0749 77.9411C52.3442 78.0593 52.5778 78.2255 52.8002 78.4161C53.7057 79.2803 54.2649 80.4913 54.4545 81.7218C54.7595 84.4923 54.324 95.2852 54.1869 95.8567C54.033 96.407 53.2663 96.8269 52.8359 96.3106Z" fill="#004448"/>
</g>
<g id="Group_64">
<path id="Vector_63" d="M14.2332 95.1971C11.5904 94.2531 12.8025 89.1287 15.7235 89.9795C18.548 90.7451 17.0817 96.165 14.2332 95.1971ZM14.8415 93.1693C15.2078 93.0862 15.3633 92.6474 15.3823 92.3084C14.7846 92.1133 14.6162 92.6948 14.7801 93.1682C14.8002 93.1693 14.8208 93.1693 14.8415 93.1693Z" fill="#004448"/>
</g>
<g id="Group_65">
<path id="Vector_64" d="M76.7286 82.3668C76.7047 84.1198 76.7955 85.871 76.7983 87.6239C76.8251 88.9537 76.9104 90.2818 76.9907 91.6093C76.994 92.6212 77.0498 93.6332 77.1189 94.6434C77.2204 95.9843 78.0505 151.937 79.0836 152.734C81.0946 154.189 83.5132 154.901 85.8994 155.468C91.9046 156.917 98.1372 157.249 104.297 157.13C108.001 157 111.714 156.813 115.366 156.143C117.019 155.856 118.76 155.635 120.258 154.842C121.812 154.027 121.829 97.9915 121.7 96.5703C121.709 96.4298 121.717 96.2893 121.725 96.1488C121.801 94.7566 121.854 93.0829 121.875 91.7643C121.847 88.7513 122.204 84.214 120.632 81.6069C120.405 81.2049 119.572 80.3474 119.091 80.6106C118.615 80.954 119.037 81.5445 119.204 81.947C119.308 82.2626 119.368 82.5887 119.448 82.9104C119.469 83.0153 119.489 83.1206 119.508 83.226C119.116 83.3866 118.704 83.6302 118.439 83.6793C117.63 83.9034 82.082 81.9353 79.5854 81.3516C79.3925 81.3008 79.1974 81.2579 79.0095 81.1887C78.8818 81.143 78.7575 81.1157 78.6393 81.1029C78.6421 80.6496 78.6716 80.198 78.7692 79.7525C78.8528 79.2886 79.0257 78.9285 79.1137 78.4802C79.2509 78.0224 78.8952 77.3512 78.3577 77.5736C77.7829 77.8931 77.43 78.5254 77.1813 79.1136C76.7476 80.1417 76.7286 81.269 76.7286 82.3668Z" fill="#0FFF80"/>
</g>
<g id="Group_66">
<path id="Vector_65" d="M115.894 83.9475C116.992 83.7947 118.276 83.6213 119.026 82.722C119.786 81.5835 119.12 80.3536 117.935 79.8886C116.174 78.963 114.173 78.7278 112.246 78.3514C110.465 78.0899 108.707 77.6952 106.927 77.427C103.187 76.8689 99.5409 75.7237 95.7408 75.6189C92.4046 75.5843 89.0622 75.4388 85.7348 75.7611C83.6954 75.9551 81.5617 76.037 79.6912 76.952C78.6342 77.4894 77.0012 78.9959 77.9791 80.2058C78.531 82.6272 84.1621 82.5051 86.1547 82.5776C87.8339 82.7187 89.5104 82.8642 91.1931 82.9696C95.3171 83.153 99.5794 83.7222 103.648 83.6799C106.089 83.7423 108.524 84.0534 110.971 83.9704C112.611 83.9096 114.259 84.0991 115.894 83.9475ZM116.883 81.7262C116.885 81.7318 116.886 81.7368 116.888 81.7424C116.082 82.0435 115.59 81.5021 115.847 81.3911C115.978 81.3343 116.304 81.3895 116.883 81.7262Z" fill="#004448"/>
</g>
<g id="Group_67">
<path id="Vector_66" d="M114.38 83.2628C114.706 83.25 115.054 83.0928 115.27 82.8369C115.435 82.8118 115.599 82.7594 115.745 82.6796C116.274 82.7242 116.478 82.741 116.943 82.7778C118.167 82.9673 119.288 81.6365 117.914 80.9072C116.085 80.1991 114.191 79.66 112.247 79.3678C111.221 79.2401 109.55 78.8103 109.127 80.1093C108.976 80.2342 108.858 80.3948 108.803 80.5838C108.783 80.6524 108.773 80.7232 108.772 80.7934C107.673 81.1302 107.791 82.4901 108.923 82.6568C110.748 82.7928 112.56 83.1429 114.38 83.2628Z" fill="#004448"/>
</g>
<g id="Group_68">
<path id="Vector_67" d="M101.254 85.3118C103.653 85.2104 106.088 85.236 108.432 84.645C109.268 84.4984 109.864 83.8053 110.03 82.9941C110.43 81.5991 110.835 80.2053 111.192 78.7997C112.281 75.6535 113.51 72.5714 115.031 69.6442C115.642 68.363 116.24 67.0762 116.915 65.8273C117.544 64.5494 118.105 63.238 118.704 61.9468C119.331 60.6377 119.784 59.2616 120.276 57.9001C121.634 54.4907 122.441 50.8343 122.219 47.154C122.234 46.3427 122.164 45.5337 121.991 44.7398C121.852 43.9888 121.778 43.2199 121.576 42.4812C120.299 37.9344 117.251 34.2156 114.326 30.6144C109.822 25.3194 105.204 20.3187 100.455 15.269C99.114 13.8077 97.743 12.3731 96.3224 10.9893C95.8368 10.5444 95.3384 9.99633 94.7826 9.5726C94.6515 9.50179 94.5177 9.43655 94.38 9.38136C94.2897 9.34791 94.196 9.32505 94.1013 9.30441C93.9942 9.281 93.8877 9.25089 93.7801 9.22747C93.7182 9.21632 93.6558 9.21019 93.5928 9.20238C93.5092 9.19123 93.4261 9.1812 93.3419 9.17841C93.2499 9.17785 93.1562 9.18064 93.0654 9.19402C92.9795 9.21075 92.8936 9.23584 92.8083 9.2587C92.7058 9.28602 92.6043 9.31835 92.5045 9.35515C92.4136 9.39306 92.325 9.43767 92.2397 9.48841C92.2096 9.50792 92.18 9.52911 92.1521 9.55308C92.0752 9.62444 92.0055 9.70529 91.938 9.78613C91.9475 9.77443 91.9576 9.76327 91.967 9.75157C91.9498 9.77164 91.933 9.79227 91.9157 9.8129C91.831 9.91381 91.7518 10.0186 91.6771 10.1274C91.5439 10.4084 91.4502 10.71 91.3855 11.0155C91.0321 12.4752 91.4067 13.9577 91.9224 15.3304C92.4939 16.9517 93.2471 18.5073 94.0923 20.0099C92.8212 19.4267 91.4329 19.0737 90.0542 18.8959C87.4544 18.5307 84.7498 18.6935 82.275 19.6067C80.8036 20.1381 79.2465 20.7414 78.1961 21.9496C77.5181 22.7084 76.9974 23.795 77.4233 24.8008C78.2596 26.9335 81.0278 27.0522 82.9557 27.0907C83.4034 27.0951 83.957 27.1074 84.2386 26.7221C85.4122 26.793 86.5919 26.7807 87.7722 26.7684C89.689 26.7483 91.6058 26.7283 93.4919 27.0667C94.8322 27.4665 96.4273 27.7012 97.7174 28.1411C98.7945 28.4728 99.8237 29.1848 100.93 29.4106C101.207 29.6058 101.473 29.8137 101.729 30.0384C102.967 31.1814 103.61 32.7838 104.282 34.2919C106.158 37.969 106.403 42.0446 104.287 45.6843C102.103 49.368 99.4223 52.7534 96.4078 55.7887C91.8622 59.7389 86.176 61.4405 84.466 67.9443C83.8104 70.7237 84.272 80.3876 84.2748 80.537C84.2782 80.6246 84.3005 81.1068 84.3071 81.2602C84.3105 81.3354 84.3189 81.4112 84.3267 81.486C84.3339 81.5596 84.3384 81.6343 84.3467 81.7073C84.3501 81.7274 84.3545 81.7463 84.359 81.7658C84.3701 81.7703 84.3813 81.7759 84.3925 81.7792C84.4253 81.7887 84.4605 81.7948 84.4934 81.8043C84.5631 81.8244 84.6294 81.8495 84.6913 81.8874C84.8056 81.9582 84.8781 82.0669 84.8909 82.2024C84.8998 82.2961 84.873 82.3987 84.8128 82.4723C85.1986 82.8146 85.784 83.138 86.6215 83.3872C88.8622 84.3685 91.3114 84.6634 93.7216 84.9327C95.7186 85.1602 97.723 85.3503 99.7329 85.3503C100.24 85.3503 100.747 85.3386 101.254 85.3118Z" fill="#A3453A"/>
</g>
<g id="Group_69">
<path id="Vector_68" d="M84.2832 80.7589C84.2832 80.7656 84.2832 80.7728 84.2838 80.7795C84.2838 80.7728 84.2832 80.7656 84.2832 80.7589Z" fill="#A3453A"/>
</g>
<g id="Group_70">
<path id="Vector_69" d="M94.3599 9.37354C94.3627 9.37465 94.3654 9.37577 94.3682 9.37744C94.3777 9.38078 94.3877 9.38469 94.3967 9.38803C94.3844 9.38301 94.3727 9.378 94.3599 9.37354Z" fill="#A3453A"/>
</g>
<g id="Group_71">
<path id="Vector_70" d="M67.9309 45.0431C67.9337 45.706 67.9527 46.3684 67.98 47.0296C68.0753 50.3749 68.4555 53.752 69.4831 56.9478C69.9497 58.2363 70.3238 59.5666 70.9566 60.7871C71.266 61.3725 71.6139 61.9423 71.9691 62.5015C72.2969 63.0189 72.6777 63.4884 73.0736 63.9539C73.9154 64.9737 74.725 66.0241 75.6783 66.9452C78.1498 69.3638 81.3701 70.8904 84.7287 71.6174C86.462 72.0735 88.1842 72.776 89.9968 72.7949C91.4776 72.747 92.6484 72.1972 93.9301 71.7741C95.1595 71.3581 96.4351 71.1039 97.6667 70.6941C99.0087 70.2603 100.268 69.6208 101.474 68.896C104.139 67.4648 106.063 66.6028 107.806 63.9545C108.569 62.7078 109.21 61.3708 109.607 59.9608C110.289 58.9221 110.65 57.705 111.087 56.5497C111.714 54.8381 112.235 52.982 112.298 51.1616C112.511 48.4358 112.291 45.6313 111.786 42.9607C111.603 41.9861 111.384 41.0171 111.084 40.0709C110.899 39.5591 110.809 38.9352 110.334 38.604C109.962 37.7532 109.473 36.9682 108.974 36.1876C108.26 35.0257 107.533 33.8643 106.58 32.8791C105.262 31.4641 103.861 30.073 102.135 29.1636C100.73 28.4505 99.2819 27.7859 97.786 27.2842C95.9813 26.7021 94.1308 26.2878 92.2564 26.0046C90.6128 25.7202 88.9559 25.5039 87.2838 25.563C85.7083 25.5273 84.1321 25.6517 82.6023 26.0436C80.9369 26.4172 79.2683 26.8822 77.7847 27.7475C75.8289 28.9401 73.9249 30.2614 72.414 32.0004C71.6624 32.8446 70.9577 33.8749 70.4348 34.8316C69.5812 36.2222 68.9618 37.7565 68.6574 39.3617C68.344 41.2457 67.9315 43.1257 67.9309 45.0431Z" fill="#0FFF80"/>
</g>
<g id="Group_72">
<path id="Vector_71" d="M73.6221 46.8557C73.5323 48.976 73.7375 51.1198 74.2259 53.185C74.3463 53.6907 74.5203 54.1841 74.6251 54.6937C74.6669 54.978 74.7461 55.2574 74.8565 55.5227C75.54 57.1407 76.3378 58.727 77.362 60.1554C77.7389 60.8417 78.1503 61.5091 78.6008 62.1548C80.3582 64.3598 82.2995 65.6071 84.49 66.2477C85.7093 66.8716 86.9632 67.2741 88.4713 67.1063C89.3483 67.0115 90.2342 67.0115 91.1006 66.8398C91.991 66.6882 92.8691 66.4674 93.76 66.3157C94.3833 66.1914 95.0078 66.0626 95.6194 65.8903C96.2059 65.7113 96.7579 65.4432 97.3198 65.2006C97.8445 64.9748 98.3825 64.773 98.8837 64.4981C99.5979 64.0716 100.373 63.402 100.796 62.6136C103.186 60.5011 105.129 57.8126 106.069 54.7723C106.802 51.6735 107.546 48.2752 106.757 45.1262C106.291 43.5255 105.515 42.0619 104.534 40.7266C104.43 40.4289 104.313 40.135 104.177 39.8496C103.715 38.9726 103.079 38.2059 102.478 37.422C101.633 36.2244 100.654 35.1004 99.473 34.2368C99.3816 34.1626 99.289 34.0901 99.1948 34.0193C96.2226 32.1867 92.7364 31.2004 89.2563 31.0476C86.9398 31.0543 84.5653 31.4028 82.3669 32.1939C80.9787 32.6327 79.6551 33.285 78.627 34.1693C78.399 34.3801 78.1838 34.6025 77.9792 34.835C76.2653 36.5444 75.1018 38.8153 74.2945 41.0739C73.8858 42.4583 73.7765 43.9046 73.776 45.3498C73.7113 45.8504 73.6594 46.3522 73.6221 46.8557Z" fill="#D4FFBE"/>
</g>
<g id="Group_73">
<path id="Vector_72" d="M106.278 66.1188C107.275 65.7865 107.91 64.7869 108.62 64.0699C109.815 62.6409 110.721 61.0374 111.459 59.3547C111.514 59.1869 111.584 59.0246 111.654 58.8624C111.728 58.6873 111.802 58.5134 111.871 58.3361C111.951 58.127 112.033 57.9173 112.104 57.7049C112.14 57.5962 112.181 57.4886 112.22 57.3804C112.254 57.2856 112.283 57.1897 112.311 57.0933C112.371 56.8831 112.43 56.6729 112.497 56.4655C112.501 56.4555 112.504 56.446 112.507 56.4359C112.556 56.2954 112.609 56.1572 112.659 56.0178C112.723 55.8332 112.765 55.642 112.811 55.453C112.807 55.4686 112.803 55.4853 112.799 55.5009C112.833 55.3571 112.866 55.2127 112.91 55.0711C112.923 55.0309 112.937 54.9908 112.949 54.9506C112.987 54.8062 113.025 54.6618 113.065 54.5174C113.068 54.5074 113.071 54.4973 113.074 54.4879C113.095 54.3964 113.114 54.3056 113.132 54.213C113.176 53.985 113.219 53.7575 113.266 53.5306C113.268 53.5205 113.271 53.5099 113.273 53.4993C113.298 53.37 113.322 53.2401 113.348 53.1102C113.364 53.0343 113.38 52.9585 113.395 52.8821C113.418 52.7338 113.439 52.5855 113.459 52.4372C113.458 52.4093 113.46 52.3815 113.465 52.3536C113.469 52.3291 113.474 52.304 113.48 52.2789C113.94 48.681 113.685 44.9906 112.929 41.4341C111.856 37.2614 109.575 32.9371 106.152 30.141C104.776 29.0565 103.328 28.0452 101.757 27.2495C100.886 26.6591 99.8929 26.9161 99.9179 28.0652C99.9324 28.7109 100.392 29.2004 101.005 29.3849C101.739 29.7451 102.447 30.1666 103.129 30.6166C104.354 31.4852 105.623 32.341 106.629 33.4561C109.796 37.1426 111.524 41.7875 111.654 46.5612C112.066 50.5968 111.237 54.649 109.677 58.3606C108.961 60.0193 108.03 61.5955 106.944 63.0451C106.464 63.7576 105.704 64.3347 105.433 65.1565C105.327 65.6025 105.656 66.1333 106.139 66.1333C106.184 66.1333 106.23 66.1289 106.278 66.1188Z" fill="#004448"/>
</g>
<g id="Group_74">
<path id="Vector_73" d="M112.497 56.4644L112.497 56.4649C112.497 56.466 112.496 56.4677 112.496 56.4677C112.497 56.4666 112.497 56.4655 112.497 56.4644Z" fill="#004448"/>
</g>
<g id="Group_75">
<path id="Vector_74" d="M73.7776 65.9539C74.2393 65.6773 74.4244 65.1304 74.3441 64.623C74.1713 64.4563 74.0001 64.2862 73.8423 64.1062C73.7403 63.9896 73.6388 63.8714 73.5407 63.7527C73.3929 63.5743 73.2541 63.3897 73.1164 63.2046C73.1203 63.2102 73.1248 63.2163 73.1287 63.2219C72.9107 62.9275 72.7038 62.6253 72.497 62.3231C72.3125 62.0538 72.1285 61.784 71.9489 61.5108C71.7388 61.1919 71.5258 60.8741 71.3306 60.5457C71.1355 60.2162 70.9521 59.8805 70.7737 59.5421C70.6778 59.3603 70.5836 59.1763 70.5027 58.9873C70.4325 58.8251 70.3689 58.66 70.3015 58.4967C70.1281 58.0808 70.0043 57.6492 69.8649 57.2221C69.8655 57.2249 69.8666 57.2277 69.8677 57.2305C69.7322 56.8079 69.6363 56.3747 69.5237 55.9459C69.5282 55.9615 69.5326 55.9771 69.5371 55.9927C69.4785 55.777 69.4217 55.5612 69.3676 55.3438C69.3715 55.3594 69.3754 55.3755 69.3793 55.3906C69.3224 55.1665 69.2695 54.9412 69.2059 54.7193C69.1217 54.4389 69.023 54.1623 68.9494 53.8791C68.9048 53.7057 68.8703 53.5295 68.829 53.3556C68.7945 53.2073 68.7682 53.0589 68.7465 52.9084C68.7309 52.7969 68.717 52.6848 68.7092 52.5722C68.5307 51.6316 68.373 50.6866 68.1879 49.7471C68.0016 48.1955 68.0072 46.6288 68.0786 45.0721C68.1115 44.0267 68.1678 42.9835 68.3568 41.9543C68.4956 40.8805 68.7939 39.8395 69.115 38.8075C69.5165 37.3629 70.0249 35.9417 70.8317 34.6644C71.4104 33.7623 71.9885 32.8351 72.7953 32.1086C73.6215 31.429 74.5364 30.8608 75.4095 30.2397C77.0135 29.206 78.8032 28.4522 80.6046 27.8066C82.1751 27.3243 83.807 27.0584 85.4305 26.7913C86.0996 26.6932 86.7809 26.6396 87.4594 26.6458C88.3046 26.6937 89.152 26.7155 89.9984 26.7188C92.0445 26.8158 94.0773 27.1565 96.0587 27.6761C97.137 27.922 98.2063 28.2197 99.2138 28.6803C99.9659 28.9841 100.723 29.2367 101.415 29.6437C102.058 29.9108 102.678 30.3585 103.249 30.7181C104.021 31.2009 104.891 31.5321 105.569 32.1527C105.82 32.3796 106.046 32.6321 106.304 32.8535C106.626 33.1429 107.039 33.3235 107.371 33.5934C107.558 33.7567 107.753 33.9212 107.917 34.108C108.106 34.3343 108.252 34.6153 108.511 34.7748C108.664 34.8517 108.849 34.7525 108.904 34.6042C108.861 34.7202 108.919 34.5657 108.922 34.5546C108.937 34.5033 108.947 34.4425 108.939 34.389C108.832 33.9184 108.591 33.4802 108.346 33.0637C107.966 32.3612 107.372 31.8717 106.958 31.2076C106.401 30.4187 105.686 29.7429 104.835 29.2618C104.211 28.8866 103.686 28.3775 103.061 28.0045C102.61 27.7408 102.151 27.4944 101.695 27.2373C101.028 26.8933 100.318 26.6402 99.6353 26.3274C98.7427 25.9405 97.8071 25.6556 96.8599 25.4348C95.1215 24.9659 93.3525 24.6319 91.5622 24.4446C90.8202 24.3688 90.077 24.3665 89.3316 24.3548C88.3124 24.3253 87.2899 24.2322 86.2735 24.3465C84.5318 24.5511 82.799 24.8722 81.1002 25.2893C80.0208 25.5803 78.9811 25.9884 77.968 26.4462C76.4688 27.0751 75.0304 27.8412 73.7314 28.8052C72.7323 29.4965 71.6824 30.15 70.9086 31.0933C69.3235 33.0258 68.0652 35.2415 67.4151 37.6489C66.6017 40.0821 66.1122 42.6161 66.0793 45.1864C66.0023 47.0893 65.9806 49.014 66.2951 50.9029C66.4082 51.5447 66.5576 52.1797 66.6714 52.8214C66.7801 53.437 66.8715 54.0564 67.0182 54.6652C67.3532 55.9208 67.7931 57.148 68.1918 58.3863C68.9545 60.6393 70.1743 62.7151 71.6183 64.6202C71.9105 65.0016 72.2327 65.3595 72.5511 65.7208C72.7384 65.9533 73.0183 66.0827 73.3037 66.0827C73.4654 66.0827 73.6282 66.0408 73.7776 65.9539Z" fill="#004448"/>
</g>
<g id="Group_76">
<path id="Vector_75" d="M93.0039 73.1495C94.2171 72.9655 95.3762 72.5518 96.5291 72.1593C97.589 71.7791 98.645 71.3877 99.6703 70.9288C102.411 69.657 104.955 67.9565 106.99 65.7514C107.968 64.7501 108.96 63.7398 109.707 62.5561C110.715 61.053 111.453 59.3893 112.008 57.6765C112.303 56.8898 112.581 56.0964 112.847 55.2986C112.866 55.2227 112.886 55.1464 112.91 55.0705C112.923 55.0304 112.936 54.9903 112.949 54.9501C112.987 54.8057 113.025 54.6607 113.065 54.5169C113.068 54.5069 113.07 54.4974 113.073 54.4868C113.094 54.3959 113.114 54.305 113.131 54.213C113.178 53.9738 113.223 53.7369 113.272 53.4988C113.298 53.3695 113.321 53.2396 113.348 53.1102C113.375 52.9747 113.407 52.8404 113.427 52.7026C113.439 52.6179 113.449 52.5331 113.46 52.4478C113.457 52.4166 113.459 52.3848 113.464 52.3542C113.477 52.2834 113.494 52.2126 113.511 52.1429C113.468 52.0576 113.409 51.9773 113.329 51.9014C112.968 51.5797 112.44 51.665 112.065 51.9014C111.474 52.2365 111.403 52.9273 111.249 53.5139C110.913 54.6836 110.541 55.7262 110.132 56.8513C109.452 58.912 108.604 60.9554 107.207 62.6537C106.346 63.6712 105.38 64.5929 104.443 65.5418C102.15 67.6136 99.3207 69.0421 96.3831 70.049C95.2976 70.4343 94.2015 70.8246 93.0552 71.0046C90.9466 71.2461 88.8007 71.3247 86.6832 71.0994C84.6432 70.8418 82.6874 70.1767 80.8559 69.2601C80.8018 69.2378 80.7472 69.2166 80.6925 69.1954C80.6123 69.1642 80.5309 69.1335 80.4534 69.095C80.3547 69.0471 80.2582 68.9913 80.1635 68.935C80.1534 68.9295 80.1439 68.9239 80.1339 68.9177C80.1462 68.9256 80.1595 68.9328 80.1718 68.94C80.1534 68.9295 80.1356 68.9183 80.1172 68.9077C80.1161 68.9066 80.1144 68.9055 80.1122 68.9044C80.1122 68.9044 80.1122 68.9044 80.1116 68.9038C80.1116 68.9038 80.111 68.9038 80.111 68.9032C80.1083 68.9021 80.1055 68.8999 80.1027 68.8982C80.1032 68.8988 80.1032 68.8988 80.1038 68.8993C80.1032 68.8993 80.1032 68.8988 80.1027 68.8982C80.1021 68.8982 80.1016 68.8982 80.1016 68.8982C80.101 68.8977 80.1004 68.8977 80.0999 68.8971C80.0993 68.8971 80.0999 68.8971 80.0993 68.8971C80.0993 68.8971 80.0988 68.8966 80.0982 68.8966C80.0982 68.8966 80.0988 68.8966 80.0993 68.8971C80.0965 68.8949 80.0943 68.8938 80.0915 68.8921C80.091 68.8921 80.0899 68.8915 80.0893 68.891C80.0882 68.8904 80.0865 68.8893 80.0854 68.8888C80.086 68.8893 80.086 68.8893 80.0865 68.8899C80.0854 68.8893 80.0854 68.8882 80.0843 68.8876H80.0837C80.0832 68.8871 80.0826 68.8871 80.0826 68.8865C80.0826 68.8865 80.0815 68.886 80.0809 68.886C80.0804 68.886 80.0804 68.8854 80.0798 68.8854H80.0804C80.0787 68.8843 80.077 68.8837 80.0759 68.8826C80.0742 68.8815 80.0726 68.8809 80.0703 68.8798C80.0765 68.8837 80.0815 68.886 80.0865 68.8899C79.9728 68.8218 79.8574 68.7566 79.7425 68.6892C79.5675 68.586 79.3929 68.4823 79.2179 68.3803C79.0473 68.281 78.8778 68.1807 78.7172 68.0664C78.7206 68.0686 78.7239 68.0708 78.7267 68.0731C78.7222 68.0697 78.7172 68.0664 78.7128 68.063C78.7105 68.0614 78.7083 68.0597 78.7055 68.058C78.7072 68.0591 78.7083 68.0597 78.71 68.0608C78.705 68.0569 78.7005 68.0541 78.696 68.0508C78.6949 68.0496 78.6932 68.0485 78.6921 68.0474C78.6916 68.0474 78.691 68.048 78.6905 68.0474C78.691 68.0474 78.691 68.0474 78.6916 68.0474C78.6843 68.0418 78.6776 68.0368 78.6709 68.0318C78.6693 68.0307 78.667 68.0301 78.6654 68.029C78.6643 68.0279 78.6631 68.0268 78.6615 68.0257C78.6553 68.0218 78.6509 68.0179 78.6453 68.014C78.6514 68.0184 78.657 68.0229 78.6631 68.0273C78.6091 67.9883 78.555 67.9482 78.5015 67.9091C78.0894 67.6426 77.6858 67.3661 77.2911 67.0812C76.5445 66.5091 75.7913 65.941 75.0955 65.3115C74.9634 65.1961 74.8318 65.0807 74.703 64.962C74.7164 64.9748 74.7298 64.987 74.7426 64.9993C74.6395 64.9045 74.5369 64.8086 74.436 64.7111C74.2319 64.5159 74.0278 64.3174 73.8422 64.1061C73.7396 63.9896 73.6387 63.8725 73.5406 63.7538C73.3945 63.577 73.2573 63.3941 73.1202 63.2113C73.1207 63.2118 73.1213 63.2118 73.1219 63.2118C72.9055 62.9208 72.7015 62.6214 72.4969 62.3231C72.3123 62.0538 72.1283 61.7834 71.9483 61.5107C71.7392 61.1913 71.5257 60.874 71.3305 60.5456C71.1359 60.2156 70.952 59.8805 70.7736 59.5421C70.6777 59.3603 70.5834 59.1757 70.502 58.9873C70.4323 58.8245 70.3688 58.66 70.3013 58.4967C70.1291 58.0835 70.0064 57.6548 69.8676 57.2305C69.7315 56.8079 69.6362 56.3746 69.5236 55.9459C69.5269 55.957 69.5303 55.9682 69.5331 55.9793C69.4779 55.7753 69.4243 55.5695 69.3725 55.3644C69.3747 55.3733 69.3769 55.3822 69.3792 55.3906C69.3223 55.167 69.2688 54.9412 69.2052 54.7187C69.121 54.4383 69.0224 54.1629 68.9493 53.8791C68.9047 53.7051 68.8702 53.5289 68.8289 53.355C68.7949 53.2072 68.7681 53.0589 68.7464 52.9089C68.7341 52.8197 68.7224 52.7316 68.7146 52.6424C68.6667 52.5265 68.617 52.411 68.5663 52.2967C68.3606 51.7649 68.2268 51.2123 68.0651 50.6682C67.9106 50.114 67.7991 49.5453 67.5923 49.0061C67.5254 48.8277 67.536 48.6314 67.4869 48.4491C67.4479 48.3019 67.299 48.2317 67.1535 48.2601C66.7159 48.3789 66.6573 48.923 66.6283 49.2994C66.4639 50.3972 66.451 51.5123 66.6311 52.6134C66.8508 53.6956 67.2327 54.7433 67.4156 55.8349C67.7601 57.1251 68.0166 58.4493 68.5373 59.6865C68.8969 60.51 69.3998 61.2643 69.8408 62.0466C70.3331 62.8238 70.7529 63.6434 71.2486 64.4172C71.7119 65.0913 72.1596 65.7832 72.7327 66.3748C74.0791 67.7475 75.6603 68.8949 77.2637 69.9631C77.8497 70.3177 78.4468 70.659 79.0556 70.9807C79.156 71.0275 79.2564 71.0732 79.3561 71.1223C79.4102 71.149 79.4654 71.1752 79.5206 71.2003C79.5663 71.2165 79.6109 71.2382 79.6533 71.2617C79.6912 71.2801 79.7286 71.299 79.7665 71.3169C79.8228 71.342 79.8802 71.3654 79.9365 71.3916C79.9354 71.391 79.9343 71.391 79.9332 71.3905C79.9388 71.3927 79.9438 71.3949 79.9494 71.3971C79.9505 71.3977 79.951 71.3983 79.9516 71.3988C79.9627 71.4038 79.9739 71.4089 79.9856 71.4144L79.9795 71.4111C79.9845 71.4133 79.9889 71.4161 79.9934 71.4183C80.004 71.4228 80.014 71.4273 80.0241 71.4323C80.0213 71.4312 80.0185 71.4295 80.0157 71.4284C80.0218 71.4312 80.0274 71.4345 80.0341 71.4367C80.0402 71.4401 80.0469 71.4434 80.0531 71.4457C80.0558 71.4473 80.0581 71.4484 80.0603 71.4496C80.062 71.4501 80.0637 71.4507 80.0653 71.4518C80.0659 71.4518 80.0664 71.4512 80.067 71.4518C80.0664 71.4518 80.0664 71.4523 80.0664 71.4518C80.067 71.4523 80.0676 71.4529 80.0681 71.4529C80.0687 71.4535 80.0692 71.4535 80.0698 71.454C80.072 71.4551 80.0748 71.4563 80.077 71.4574C80.0742 71.4563 80.0715 71.454 80.0687 71.4529H80.0681C80.0659 71.4518 80.0631 71.4507 80.0603 71.4496C80.0586 71.4484 80.0564 71.4479 80.0542 71.4468C80.1685 71.5003 80.2794 71.5577 80.3898 71.6174C80.4723 71.6614 80.5526 71.7094 80.6357 71.7529C81.6532 72.2067 82.7019 72.5881 83.7846 72.8585C84.6844 73.0709 85.5971 73.2304 86.5165 73.3346C87.515 73.4104 88.5219 73.4054 89.5238 73.416C90.6862 73.3809 91.852 73.3034 93.0039 73.1495ZM77.4472 68.3201C77.4516 68.3429 77.4343 68.3602 77.412 68.3602C77.3886 68.3602 77.3652 68.3407 77.3602 68.3178C77.3557 68.295 77.373 68.2771 77.3953 68.2771C77.4187 68.2771 77.4427 68.2972 77.4472 68.3201Z" fill="#004448"/>
</g>
<g id="Group_77">
<path id="Vector_76" d="M79.9568 71.401C79.9663 71.4055 79.9752 71.4099 79.9847 71.4144C79.9757 71.4099 79.9663 71.4055 79.9568 71.401Z" fill="#004448"/>
</g>
<g id="Group_78">
<path id="Vector_77" d="M79.9507 71.3971V71.3982H79.9518L79.9507 71.3971Z" fill="#004448"/>
</g>
<g id="Group_79">
<path id="Vector_78" d="M80.1172 68.9071L80.1177 68.9082L80.1172 68.9071Z" fill="#004448"/>
</g>
<g id="Group_80">
<path id="Vector_79" d="M80.1022 68.8988L80.1011 68.8977L80.1022 68.8988Z" fill="#004448"/>
</g>
<g id="Group_81">
<path id="Vector_80" d="M80.0989 68.8966L80.0994 68.8977H80.1L80.0989 68.8966Z" fill="#004448"/>
</g>
<g id="Group_82">
<path id="Vector_81" d="M78.7095 68.0608C78.7106 68.0613 78.7111 68.0619 78.7123 68.063C78.7139 68.0641 78.7162 68.0653 78.7173 68.0664C78.715 68.0647 78.7117 68.0625 78.7095 68.0608Z" fill="#004448"/>
</g>
<g id="Group_83">
<path id="Vector_82" d="M80.1675 68.9366C80.177 68.9417 80.1859 68.9484 80.1954 68.9534C80.1859 68.9478 80.177 68.9417 80.1675 68.9366Z" fill="#004448"/>
</g>
<g id="Group_84">
<path id="Vector_83" d="M80.0854 68.8882C80.0871 68.8893 80.0882 68.8904 80.0894 68.891L80.0905 68.8915C80.0888 68.8904 80.0871 68.8893 80.0854 68.8882Z" fill="#004448"/>
</g>
<g id="Group_85">
<path id="Vector_84" d="M80.0849 68.8882L80.0833 68.8871L80.0849 68.8882Z" fill="#004448"/>
</g>
<g id="Group_86">
<path id="Vector_85" d="M80.0826 68.8865H80.082L80.0831 68.8876L80.0826 68.8865Z" fill="#004448"/>
</g>
<g id="Group_87">
<path id="Vector_86" d="M80.0815 68.886V68.8865L80.0827 68.8871L80.0815 68.886Z" fill="#004448"/>
</g>
<g id="Group_88">
<path id="Vector_87" d="M80.0816 68.8865L80.0811 68.8854L80.0816 68.8865H80.0822H80.0816Z" fill="#004448"/>
</g>
<g id="Group_89">
<path id="Vector_88" d="M80.0806 68.8854L80.0811 68.8865L80.0806 68.8854Z" fill="#004448"/>
</g>
<g id="Group_90">
<path id="Vector_89" d="M80.0793 68.8849L80.0805 68.8854L80.0816 68.886C80.0816 68.886 80.0805 68.8854 80.0793 68.8849Z" fill="#004448"/>
</g>
<g id="Group_91">
<path id="Vector_90" d="M78.6921 68.048C78.6933 68.0485 78.6933 68.0496 78.6944 68.0502C78.6983 68.053 78.7016 68.0552 78.7055 68.058C78.7005 68.0547 78.6966 68.0513 78.6921 68.048Z" fill="#004448"/>
</g>
<g id="Group_92">
<path id="Vector_91" d="M78.6951 68.0496C78.6939 68.049 78.6923 68.0479 78.6912 68.0474H78.6917C78.6928 68.0485 78.6945 68.0496 78.6956 68.0507L78.6951 68.0496Z" fill="#004448"/>
</g>
<g id="Group_93">
<path id="Vector_92" d="M78.6643 68.0273L78.6654 68.0285C78.6671 68.0296 78.6682 68.0307 78.6699 68.0318C78.6677 68.0307 78.6665 68.029 78.6643 68.0273Z" fill="#004448"/>
</g>
<g id="Group_94">
<path id="Vector_93" d="M78.6627 68.0267L78.6616 68.0256L78.6627 68.0267Z" fill="#004448"/>
</g>
<g id="Group_95">
<path id="Vector_94" d="M78.6617 68.0251C78.6567 68.0212 78.6511 68.0173 78.6455 68.0134C78.6505 68.0173 78.6567 68.0212 78.6622 68.0257L78.6617 68.0251Z" fill="#004448"/>
</g>
<g id="Group_96">
<path id="Vector_95" d="M80.0687 71.4529H80.0676C80.0676 71.4529 80.0699 71.4534 80.071 71.454L80.0687 71.4529Z" fill="#004448"/>
</g>
<g id="Group_97">
<path id="Vector_96" d="M80.0665 71.4524H80.0659L80.0676 71.4535L80.0665 71.4524Z" fill="#004448"/>
</g>
<g id="Group_98">
<path id="Vector_97" d="M80.061 71.4495C80.0593 71.449 80.0576 71.4478 80.0559 71.4467L80.0537 71.4462C80.0576 71.4478 80.061 71.4501 80.0643 71.4517C80.0632 71.4506 80.0626 71.4501 80.061 71.4495Z" fill="#004448"/>
</g>
<g id="Group_99">
<path id="Vector_98" d="M78.6956 68.0508L78.6967 68.0519L78.6956 68.0508Z" fill="#004448"/>
</g>
<g id="Group_100">
<path id="Vector_99" d="M78.6626 68.0262L78.6632 68.0274H78.6637L78.6626 68.0262Z" fill="#004448"/>
</g>
<g id="Group_101">
<path id="Vector_100" d="M77.2522 67.0082L77.2539 67.0087V67.0093L77.2522 67.0082Z" fill="#004448"/>
</g>
<g id="Group_102">
<path id="Vector_101" d="M80.1123 68.9043L80.1145 68.906C80.1156 68.9065 80.1168 68.9071 80.1179 68.9076C80.1162 68.9065 80.114 68.9054 80.1123 68.9043Z" fill="#004448"/>
</g>
<g id="Group_103">
<path id="Vector_102" d="M80.1045 68.8988C80.1056 68.8994 80.1067 68.9005 80.1078 68.901C80.1095 68.9021 80.1112 68.9033 80.1129 68.9044C80.1101 68.9027 80.1073 68.9005 80.1045 68.8988Z" fill="#004448"/>
</g>
<g id="Group_104">
<path id="Vector_103" d="M80.1028 68.8982L80.1039 68.8993L80.1028 68.8982Z" fill="#004448"/>
</g>
<g id="Group_105">
<path id="Vector_104" d="M80.1006 68.8971L80.0989 68.896V68.8966L80.1006 68.8971Z" fill="#004448"/>
</g>
<g id="Group_106">
<path id="Vector_105" d="M80.0828 68.8865L80.0844 68.8876H80.085C80.0839 68.8876 80.0828 68.8865 80.0828 68.8865Z" fill="#004448"/>
</g>
<g id="Group_107">
<path id="Vector_106" d="M80.0828 68.8865L80.0833 68.8876H80.0839L80.0828 68.8865Z" fill="#004448"/>
</g>
<g id="Group_108">
<path id="Vector_107" d="M80.0826 68.8865C80.082 68.8865 80.082 68.8865 80.082 68.8859C80.0815 68.8859 80.0809 68.8854 80.0804 68.8848C80.0792 68.8837 80.077 68.8831 80.0759 68.882C80.0753 68.882 80.0748 68.8815 80.0742 68.8815C80.077 68.8831 80.0804 68.8848 80.0831 68.887L80.0826 68.8865Z" fill="#004448"/>
</g>
<g id="Group_109">
<path id="Vector_108" d="M77.4417 67.1364C77.4428 67.1369 77.4439 67.138 77.445 67.1386C77.4439 67.1375 77.4428 67.1369 77.4417 67.1364Z" fill="#004448"/>
</g>
<g id="Group_110">
<path id="Vector_109" d="M76.678 61.1724C77.526 60.699 77.2098 59.4791 76.8017 58.7967C76.3669 57.6955 75.9247 56.5971 75.3806 55.5434C74.5727 53.4459 74.1262 51.2252 73.6606 49.0318C72.9241 44.4666 74.2555 38.8616 77.6481 35.5977C78.9125 34.5456 80.2785 33.4774 81.8931 33.0503C84.0652 32.5279 86.2937 32.0718 88.5377 32.1872C90.9685 32.3138 93.4445 32.5067 95.775 33.2482C97.0043 33.7606 98.2025 34.3795 99.3153 35.1121C101.399 36.6905 102.852 38.9603 104.285 41.1119C105.053 42.494 105.759 43.9119 106.475 45.3219C106.99 46.3645 107.53 45.5538 107.346 44.7309C106.932 41.8785 105.61 39.1978 103.893 36.9035C102.766 35.3558 101.57 33.803 99.9347 32.7604C98.3781 31.8293 97.0082 31.037 95.3284 30.5954C94.6605 30.4404 93.9859 30.3066 93.3079 30.1929C93.1691 30.1795 93.0308 30.1661 92.8926 30.1494C92.8173 30.1405 92.7426 30.131 92.6679 30.1182C92.6199 30.1171 92.5714 30.1159 92.5229 30.1148C92.4097 30.1109 92.296 30.1081 92.1834 30.0992C92.0936 30.0925 92.0033 30.0814 91.9141 30.0713C91.7273 30.0507 91.5394 30.0323 91.3527 30.0078C91.1843 29.9866 91.0159 29.9649 90.8487 29.9414C90.697 29.9202 90.547 29.8896 90.396 29.8656C90.372 29.8628 90.3486 29.8595 90.3246 29.8561C90.1897 29.8506 90.0547 29.8444 89.9198 29.8344C89.7459 29.8221 89.5742 29.7965 89.4019 29.7758C89.379 29.7731 89.3567 29.7708 89.3344 29.7686C88.3766 29.7234 87.4182 29.719 86.4637 29.7563C84.4404 30.0095 82.3893 30.296 80.4602 30.9796C78.9744 31.6369 77.6118 32.621 76.4053 33.7015C72.0014 37.9422 70.5429 45.5789 72.1291 51.3651C72.6521 53.675 73.2018 56.0073 74.328 58.1081C74.861 59.057 75.0957 61.198 76.417 61.198C76.4996 61.198 76.5865 61.1896 76.678 61.1724Z" fill="#004448"/>
</g>
<g id="Group_111">
<path id="Vector_110" d="M89.7508 68.4388C90.9601 68.4248 92.1605 68.2157 93.3129 67.8517C94.9856 67.4123 96.5779 66.6864 98.0933 65.874C98.0671 65.8874 98.0404 65.9008 98.0136 65.9142C98.003 65.9198 97.9924 65.9248 97.9367 65.9527C99.0445 65.4029 100.089 64.7361 101.075 63.9901C101.55 63.6366 102.086 63.2781 102.325 62.7161C102.486 62.3375 102.49 61.7025 102.008 61.5559C101.539 61.4176 101.03 61.5648 100.612 61.7917C100.216 62.0298 99.897 62.3699 99.5128 62.6275C98.7245 63.2424 97.7175 63.8608 96.8862 64.2767C95.6301 64.9452 94.336 65.5546 92.955 65.9175C91.8538 66.2783 90.7047 66.465 89.545 66.4422C88.154 66.4009 86.7172 66.4316 85.3986 65.9265C83.2933 65.0115 81.2755 63.8083 79.6224 62.2032C78.9807 61.5776 78.3172 60.9046 77.7736 60.2217C77.4625 59.7985 77.1965 59.3452 76.911 58.9047C76.5319 58.3065 76.2648 57.6475 76.0017 56.9923C75.0951 54.9428 74.4528 52.8035 74.1111 50.5917C73.5936 48.0605 73.5992 45.4729 73.936 42.9177C74.1518 42.0094 74.372 41.0895 74.7957 40.2515C75.5406 38.5616 76.5793 37.0227 77.7736 35.6188C78.7047 34.564 79.8231 33.7053 80.8523 32.7542C81.1361 32.4737 81.5972 32.3076 81.828 32.0054H81.8241C82.1419 31.1306 80.19 31.7734 79.8666 31.948C77.4273 32.9326 75.511 34.8372 74.091 37.0133C73.6929 37.5368 73.3617 38.1044 73.0796 38.6982C72.541 39.748 72.0191 40.8174 71.771 41.9788C71.4365 43.0587 71.4081 44.2034 71.3244 45.324C71.1449 47.6289 71.4683 49.9232 71.9104 52.1807C72.2717 53.9582 72.7925 55.7033 73.5128 57.3687C73.8423 58.1403 74.0637 58.7653 74.4406 59.4773C74.8386 60.162 75.2629 60.8333 75.7173 61.4823C76.7555 62.7139 77.8884 63.8803 79.1624 64.8699C80.6628 66.0129 82.3912 67.0142 84.1162 67.7379C85.8998 68.4449 87.8596 68.4332 89.7508 68.4388Z" fill="#004448"/>
</g>
<g id="Group_112">
<path id="Vector_111" d="M89.317 68.625C95.8825 68.0011 101.761 65.5106 105.44 59.8124C106.5 58.2145 107.165 56.4053 107.631 54.5542C108.335 51.9048 108.774 49.0708 108.225 46.3555C107.991 44.335 107.376 42.548 106.431 40.7728C105.197 38.5973 104.05 36.332 102.376 34.4525C100.842 33.0012 99.0687 31.8337 97.0873 31.0977C96.0335 30.6483 94.8828 30.6127 93.8001 30.2698C93.7638 30.2586 93.727 30.2475 93.6908 30.2374C93.6852 30.2363 93.6802 30.2352 93.6746 30.2346C93.673 30.2341 93.6713 30.2346 93.6696 30.2346L93.6691 30.2335C93.6663 30.2335 93.6635 30.2335 93.6613 30.2335H93.6629C93.6618 30.233 93.6596 30.2324 93.6596 30.2324C93.6551 30.2319 93.6512 30.2319 93.6468 30.2313C93.649 30.2319 93.6512 30.2319 93.6535 30.2324C93.5509 30.2196 93.4477 30.2062 93.3446 30.1962C93.1935 30.1817 93.043 30.1672 92.8924 30.1493C92.8172 30.141 92.7419 30.1309 92.6672 30.1181C92.6192 30.117 92.5713 30.1159 92.5228 30.1142C92.4091 30.1103 92.2959 30.1081 92.1827 30.0992C92.0929 30.0919 92.0032 30.0813 91.914 30.0713C91.7266 30.0507 91.5387 30.0317 91.3525 30.0077C91.1842 29.986 91.0158 29.9648 90.848 29.9414C90.8145 29.9364 90.7816 29.9319 90.7487 29.9269C89.9509 30.3489 89.7491 31.856 90.7281 32.1994C91.3977 32.428 92.1046 32.4358 92.7971 32.5395C93.6089 32.8038 94.5037 32.9694 95.3082 33.0949C97.5417 33.7505 99.6162 34.9637 101.209 36.647C102.418 38.0999 103.371 39.8601 104.283 41.4915C107.103 46.1559 106.893 50.9932 105.161 55.996C103.795 59.6179 100.843 62.5255 97.3828 64.1847C95.7124 64.972 93.9802 65.4258 92.1983 65.815C90.4912 66.1378 88.7506 66.4099 87.0322 65.9973C84.9711 65.4676 83.0136 64.5616 81.1732 63.5056C79.5725 62.4446 78.2227 61.0836 76.7771 59.8308C76.2864 59.4238 75.9759 58.8563 75.6693 58.3138C75.41 57.9854 75.0175 58.316 75.0381 58.6544C75.0493 59.0285 75.2082 59.3781 75.3024 59.7372C76.4816 63.0373 79.3746 65.5362 82.5062 66.9262C84.4905 67.8288 86.5773 68.6417 88.7784 68.6423C88.9574 68.6423 89.1369 68.6362 89.317 68.625Z" fill="#004448"/>
</g>
<g id="Group_113">
<path id="Vector_112" d="M93.688 30.2369C93.6853 30.2363 93.6819 30.2363 93.6791 30.2358C93.6786 30.2358 93.678 30.2358 93.6774 30.2358C93.6769 30.2352 93.6763 30.2346 93.6752 30.2346C93.673 30.2341 93.6708 30.2341 93.668 30.2335C93.6685 30.2335 93.6685 30.2335 93.6685 30.2341C93.6691 30.2341 93.6702 30.2341 93.6708 30.2341C93.6719 30.2346 93.6735 30.2346 93.6747 30.2346C93.6791 30.2352 93.6841 30.2363 93.6886 30.2369H93.688Z" fill="#004448"/>
</g>
<g id="Group_114">
<path id="Vector_113" d="M93.6687 30.2341C93.667 30.2336 93.6659 30.233 93.6642 30.233H93.6631C93.6648 30.233 93.667 30.2341 93.6687 30.2341Z" fill="#004448"/>
</g>
<g id="Group_115">
<path id="Vector_114" d="M91.0539 67.985C92.319 67.9738 93.5322 67.6371 94.7108 67.2038C95.6107 66.9089 96.5307 66.6653 97.4066 66.3006C98.8724 65.6845 100.162 64.74 101.404 63.7632C104.966 61.1082 106.488 58.9248 107.703 54.6468C108.506 51.5446 108.881 48.1609 107.942 45.0498C107.658 44.2753 107.328 43.5199 107.018 42.756C106.813 42.1923 106.573 41.6437 106.319 41.1012C106.144 40.5677 105.541 40.1679 105.074 40.6563C104.489 41.3153 105.094 42.1427 105.155 42.8781C105.385 44.2569 106.096 45.5014 106.357 46.8701C106.859 50.1351 106.192 53.4994 104.914 56.5162C104.676 57.0392 104.421 57.5544 104.118 58.0422C103.585 58.8758 102.876 59.5777 102.19 60.2841C100.654 61.8113 99.0803 63.3049 97.1172 64.236C95.8298 64.807 94.436 65.0946 93.1302 65.6182C92.3034 65.9081 91.4135 65.9711 90.5532 66.0648C90.0475 66.1501 89.3807 66.1885 88.904 66.1662C87.9238 66.0787 86.9442 65.9109 85.9618 66.0676C85.5342 66.1272 85.1049 66.0012 84.6812 66.0586C84.1593 66.1774 84.35 66.7656 84.7916 66.881C85.5303 67.3153 86.3861 67.3399 87.2096 67.4904C87.7772 67.5947 88.3336 67.7513 88.8956 67.8807C89.6071 68.0089 90.3341 68.0351 91.0539 67.985Z" fill="#004448"/>
</g>
<g id="Group_116">
<path id="Vector_115" d="M97.3828 85.1568C93.7856 84.9215 90.1879 84.6739 86.6264 84.0891C84.4838 83.7545 82.3284 83.4356 80.2427 82.8285C79.3947 82.5564 78.4954 82.2559 77.8453 81.6191C77.0364 80.8419 76.8033 79.874 77.3486 78.8665C78.2741 76.9726 80.565 76.2957 82.5386 76.3297C82.809 76.3554 83.1134 76.3102 83.356 76.4479C83.5974 76.6469 83.3933 76.875 83.1368 76.8939C82.1545 77.0562 81.2229 77.4693 80.439 78.0849C80.0074 78.4255 79.6317 78.8398 79.4215 79.3544C79.3479 79.6014 79.1929 79.8813 79.2804 80.1394C79.7538 81.007 82.2169 81.2941 83.1926 81.5478C86.0338 82.059 88.895 82.4962 91.7691 82.7694C94.962 83.0704 98.1661 83.2416 101.366 83.4618C104.752 83.6743 108.144 83.6157 111.532 83.4925C113.022 83.4234 117.55 83.6023 118.238 82.1683C117.909 81.6989 117.256 81.5879 116.747 81.39C115.775 81.0649 114.801 80.7432 113.819 80.4494C113.254 80.3 112.71 80.0781 112.144 79.932C111.696 79.8389 111.269 79.3315 111.527 78.8794C112.016 78.0927 113.37 78.6463 114.131 78.6859C115.136 78.8387 116.123 79.0717 117.077 79.4235C118.045 79.7279 119.052 80.024 119.833 80.7031C121.289 81.9001 120.715 83.3877 119.305 84.2948C118.489 84.7698 117.548 84.9984 116.628 85.1724C114.67 85.4389 112.69 85.4305 110.718 85.479C109.646 85.5342 108.571 85.5526 107.497 85.5565C107.038 85.5682 106.579 85.5733 106.12 85.5733C103.204 85.5733 100.291 85.3608 97.3828 85.1568Z" fill="#004448"/>
</g>
<g id="Group_117">
<path id="Vector_116" d="M98.1033 26.9373C97.8507 26.6379 97.6043 26.3341 97.369 26.0213C96.2316 24.4551 95.0998 22.8795 94.1291 21.2035C92.612 18.573 88.281 11.0272 92.4448 9.20014C93.0831 8.96429 93.8453 8.90129 94.4709 9.20738C94.7084 9.32893 95.0017 9.59934 94.8757 9.88982C94.7123 10.1011 94.4101 9.93331 94.1821 9.91268C93.048 9.92718 92.2089 10.9124 92.2708 12.0252C92.2859 13.3187 92.859 14.5297 93.3391 15.7073C94.2819 17.7947 95.465 19.7684 96.691 21.6998C97.5848 22.9899 98.4785 24.2851 99.4682 25.5044C99.7023 25.7793 99.9789 26.0888 100.094 26.4523C100.307 27.0148 100.002 27.7993 99.3299 27.7887C99.3238 27.7887 99.3176 27.7893 99.3115 27.7893C98.7668 27.7887 98.4038 27.336 98.1033 26.9373Z" fill="#004448"/>
</g>
<g id="Group_118">
<path id="Vector_117" d="M120.91 98.8362C120.713 98.3238 120.814 97.7629 120.774 97.2271C120.756 95.9135 120.689 88.7909 120.545 86.6678C120.388 85.333 120.335 83.8867 119.579 82.7298C119.229 82.2765 118.704 82.0005 118.263 81.6448C117.84 81.4424 117.415 81.1442 116.997 80.9089C116.723 80.7628 116.431 80.5849 116.377 80.2498C116.309 79.7352 116.801 79.568 117.215 79.7179C117.719 79.8534 118.174 80.1216 118.681 80.2515C119.023 80.3368 119.328 80.5125 119.646 80.6585C119.995 80.7935 120.257 80.9317 120.567 81.2094C122.138 82.683 122.468 97.3431 122.431 97.7322C122.382 98.0991 122.412 98.563 122.206 98.9009C122.045 99.1891 121.803 99.3285 121.565 99.3285C121.304 99.3285 121.048 99.1607 120.91 98.8362Z" fill="#004448"/>
</g>
<g id="Group_119">
<path id="Vector_118" d="M121.021 85.1775C120.786 84.272 120.628 83.2918 120.02 82.5481C119.642 82.2292 119.147 82.1294 118.709 81.9164C117.924 81.569 117.063 81.5094 116.229 81.3455C115.927 81.2981 115.625 81.2395 115.325 81.1793C114.696 81.0533 114.255 80.3352 114.417 79.7157C114.558 79.1515 115.091 79.0105 115.602 79.137C115.96 79.1889 116.32 79.2335 116.674 79.3071C117.959 79.4409 119.15 80.0146 120.196 80.7528C121.443 81.6437 121.712 83.3002 121.758 84.7353C121.778 85.1747 121.747 85.6291 121.745 86.0751C121.729 86.2413 121.772 86.5044 121.563 86.5613C121.554 86.5624 121.546 86.5624 121.537 86.5624C121.158 86.5619 121.146 85.4774 121.021 85.1775Z" fill="#004448"/>
</g>
<g id="Group_120">
<path id="Vector_119" d="M76.5118 95.4519C76.3747 94.8798 76.3741 94.2175 76.3239 93.5908C76.2191 92.3564 76.242 90.9174 76.2113 89.6517C76.1199 86.8752 75.9387 84.088 76.2436 81.3175C76.4332 80.087 76.993 78.8755 77.8984 78.0107C78.1215 77.8206 78.3545 77.6539 78.6232 77.5357C79.2717 77.2586 79.9279 76.9815 80.6165 76.8254C80.8685 76.7853 81.1489 76.7195 81.3998 76.7864C81.5442 76.8393 81.6306 77.0456 81.5437 77.1806C81.4065 77.3657 81.1484 77.3807 80.9538 77.4805C80.4994 77.6913 80.0974 77.9723 79.7166 78.294C79.1524 78.6831 78.7688 79.2814 78.5463 79.922C77.7847 81.5645 78.4114 91.0406 78.1577 93.9744C78.1315 94.3385 78.1187 94.5247 78.0852 94.9356C78.0523 95.2662 78.0958 95.6348 77.8622 95.9052C77.725 96.0702 77.5528 96.1393 77.3777 96.1393C77.0047 96.1393 76.6166 95.826 76.5118 95.4519Z" fill="#004448"/>
</g>
<g id="Group_121">
<path id="Vector_120" d="M114.975 89.5743C117.896 88.724 119.109 93.849 116.465 94.7929C116.233 94.8715 116.01 94.9083 115.798 94.9083C113.407 94.9078 112.381 90.2779 114.975 89.5743ZM115.316 91.9031C115.335 92.2421 115.491 92.682 115.857 92.7651C115.878 92.7651 115.898 92.764 115.918 92.7634C116.06 92.3542 115.953 91.8647 115.536 91.8647C115.47 91.8647 115.397 91.8769 115.316 91.9031Z" fill="#004448"/>
</g>
</g>
<g id="Mask group">
<mask id="mask1_70_371" style="mask-type:alpha" maskUnits="userSpaceOnUse" x="28" y="50" width="24" height="4">
<g id="Group_122">
<g id="__lottie_element_162">
<g id="Group_123">
<g id="Group_124">
<path id="Vector_121" d="M29.1514 52.5576C32.9678 51.9808 36.3174 52.1306 40.7669 51.9563C48.6655 51.6465 50.4078 52.5963 50.4078 52.5963" fill="white"/>
<path id="Vector_122" d="M29.1514 52.5576C32.9678 51.9808 36.3174 52.1306 40.7669 51.9563C48.6655 51.6465 50.4078 52.5963 50.4078 52.5963" stroke="white" stroke-width="2.07531" stroke-linecap="round" stroke-linejoin="round"/>
</g>
</g>
</g>
</g>
</mask>
<g mask="url(#mask1_70_371)">
</g>
</g>
<g id="Group_125">
<g id="Group_126">
<path id="Vector_123" d="M29.1514 52.5576C32.9678 51.9808 36.3174 52.1306 40.7669 51.9563C48.6655 51.6465 50.4078 52.5963 50.4078 52.5963" stroke="#004449" stroke-width="2.07531" stroke-linecap="round" stroke-linejoin="round"/>
</g>
</g>
<g id="Group_127">
<g id="Group_128">
<path id="Vector_124" d="M79.7935 52.5576C84.8364 52.2874 87.1128 52.4373 91.5623 52.2629C99.4609 51.9532 101.05 52.5964 101.05 52.5964" stroke="#004449" stroke-width="2.07531" stroke-linecap="round" stroke-linejoin="round"/>
</g>
</g>
</g>
</g>
</g>
</g>
</svg>
