<svg width="213" height="217" viewBox="0 0 213 217" fill="none" xmlns="http://www.w3.org/2000/svg">
<g id="hand-pointing.1e68e726.svg" clip-path="url(#clip0_70_1000)">
<path id="Vector" d="M108.852 148.645C107.039 146.259 105.07 143.977 103.231 141.59C99.1634 136.922 94.8889 132.072 90.0963 128.052C89.5264 128.519 88.9305 128.985 88.3606 129.452C86.8063 130.749 85.226 132.02 83.5939 133.265C81.081 135.211 78.62 137.233 76.0294 139.075C74.2937 140.397 72.4026 141.798 70.3301 142.499C69.527 142.913 68.6981 143.225 67.8172 143.432C66.0556 143.821 64.2422 143.328 62.5065 143.043C59.5792 142.628 56.6259 143.225 53.9058 144.314C47.3256 147.115 41.6264 150.747 35.4866 153.988C29.4506 157.802 15.7464 164.935 14.1403 171.937C20.6685 173.338 30.9531 165.79 36.6524 162.496C38.8027 160.888 41.4709 160.473 44.0616 161.069C51.8593 162.781 55.5896 162.496 62.9988 159.461C65.7448 158.709 67.04 162.625 64.3199 163.611C56.315 166.957 51.4188 167.138 42.9994 165.298C41.6523 164.935 40.4865 165.298 39.3725 165.894C38.0773 166.983 36.6006 168.047 36.1084 168.487C29.6061 173.623 22.8446 178.395 16.705 183.998C13.7775 186.566 10.8243 189.108 8.20777 191.987C6.80885 193.517 5.2545 195.022 4.42551 196.967C9.76212 197.9 15.6946 193.05 20.0986 190.456C25.9016 186.825 31.6267 183.038 37.1964 179.044C38.6213 178.085 40.0202 177.073 41.4969 176.191C41.9632 175.854 42.5849 175.75 43.1548 175.88C44.2946 176.087 45.0978 177.333 44.8388 178.448C44.3465 180.133 42.3258 180.704 41.0564 181.767C35.7975 185.502 30.3833 188.977 25.2279 192.869C20.9016 196.214 12.534 200.934 11.0056 206.33C11.8345 206.771 12.8708 206.434 13.6998 206.251C21.5493 203.84 28.1812 198.782 35.098 194.528C40.4865 191.235 45.046 187.111 50.4084 183.92C52.4291 183.22 54.1907 185.865 52.7141 187.447C51.8074 188.355 50.7452 189.108 49.7609 189.912C44.476 193.958 39.0099 197.796 33.6215 201.687C30.9791 203.995 23.9067 208.067 24.3212 211.802C29.0621 212.969 36.0048 207.549 40.0202 205.189C43.9839 202.595 47.9993 200.053 51.8851 197.356C54.8902 195.332 57.8176 193.206 60.5895 190.872C65.9261 187.058 71.0037 182.882 75.7703 178.395C86.6249 168.358 96.7282 157.231 108.852 148.723V148.645ZM227.967 89.6388C230.221 88.0047 232.864 91.2209 230.61 93.0883C226.569 96.3305 222.475 99.4689 218.408 102.711C205.818 112.645 193.227 122.631 180.12 131.891C169.679 139.957 158.591 147.245 147.4 154.17C139.629 159.384 132.297 165.245 124.292 170.095C122.789 170.952 121.287 171.859 119.811 172.794C119.24 173.156 118.645 173.467 117.997 173.649C116.831 174.582 115.328 175.128 113.385 175.023C107.531 174.634 99.8887 169.11 97.2205 163.793C90.2518 170.2 83.6716 177.021 76.7029 183.402C66.7292 192.09 56.1078 200.001 44.9423 207.082C39.0099 210.687 30.8236 217.482 23.5958 216.057C19.8395 215.279 19.2437 211.31 20.5649 208.223C17.7152 209.468 14.7361 210.895 11.6015 210.843C5.77262 210.428 5.64309 204.903 8.7777 201.117C5.3063 202.076 -0.937 201.324 0.125141 196.396C1.05775 192.557 4.34779 189.886 6.91248 187.084C10.8502 183.194 15.0729 179.589 19.3473 176.061C17.4043 176.45 15.4096 176.553 13.3631 176.191C5.6172 173.908 12.3268 164.701 16.2127 161.744C26.0569 153.599 37.585 147.841 48.8023 141.824C52.8177 139.853 57.1959 138.245 61.7553 138.583C63.7759 138.583 65.8743 139.697 67.8432 138.893C69.0867 138.245 70.2524 137.467 71.3923 136.662C71.3663 136.636 71.3405 136.585 71.3145 136.559C68.8016 133.732 66.237 130.619 65.7448 126.729C65.5893 124.991 65.8484 123.305 66.4702 121.801C66.4702 121.749 66.4702 121.723 66.4702 121.697C67.3769 117.962 70.7965 115.732 73.5942 113.449C77.2989 110.415 81.107 107.483 84.9151 104.604C88.8788 101.725 92.5574 98.4833 96.5987 95.682C104.474 89.8981 112.09 83.751 120.199 78.2783C125.562 74.5174 130.639 70.3674 136.027 66.6325C141.546 62.8717 147.038 59.1367 152.426 55.1943C163.125 47.0241 174.394 39.6839 185.041 31.4099C193.124 25.5741 201.233 19.7642 209.186 13.7209C215.196 9.25968 221.388 5.03193 227.32 0.441065C229.521 -1.16703 232.267 1.99729 229.963 3.91663C226.775 6.4066 223.512 8.79281 220.195 11.1012C214.729 15.0696 209.237 18.9861 203.927 23.162C197.244 28.09 190.326 32.7587 183.746 37.8423C175.871 44.0154 167.374 49.3325 159.421 55.4017C151.441 61.5489 142.944 66.9697 134.784 72.8575C130.872 75.8402 126.96 78.797 122.971 81.6501C116.236 86.1891 109.836 91.1949 103.386 96.097C95.5106 101.829 87.8684 107.872 80.1225 113.761C78.8791 114.642 77.6873 115.601 76.4957 116.536C88.8269 117.729 100.873 131.891 108.179 140.76C113.385 146.96 118.385 153.678 120.38 161.692C120.976 163.508 121.183 165.634 120.95 167.632C123.256 165.971 125.588 164.363 127.919 162.756C135.509 157.231 143.047 151.576 151.13 146.778C156.701 143.147 162.244 139.542 167.711 135.781C174.239 130.956 180.767 126.106 187.321 121.308C201.181 111.141 214.445 100.195 228.02 89.6388H227.967Z" fill="#004449"/>
</g>
<defs>
<clipPath id="clip0_70_1000">
<rect width="212.99" height="216.25" fill="white" transform="translate(0.00512695)"/>
</clipPath>
</defs>
</svg>
