<svg width="161" height="177" viewBox="0 0 161 177" fill="none" xmlns="http://www.w3.org/2000/svg">
<g id="Group">
<g id="Group_2">
<g id="Group_3">
<g id="Group_4">
<path id="Vector" d="M159.5 112.435C161.132 110.289 160.912 106.951 158.68 105.236H158.705C157.255 104.131 155.416 103.567 153.596 103.224C152.54 103.09 151.458 103.177 150.407 102.968C149.47 102.817 149.294 101.811 149.244 101.072C149.044 99.5723 147.968 98.2637 146.549 97.5603C145.848 97.2057 145.08 96.9669 144.286 96.8447C144.673 96.0133 145.005 95.1586 145.205 94.2748C145.555 92.3386 145.004 90.2855 143.841 88.6631C141.709 86.0057 137.401 85.4479 134.131 86.2502C130.116 87.4946 127.308 90.7215 125.364 94.0768C125.051 94.6116 124.745 95.1526 124.451 95.6991C123.863 96.7806 123.45 97.9322 122.925 99.0314C122.687 99.4964 122.431 99.9498 122.149 100.392C121.837 100.822 121.53 101.398 120.893 101.398C119.873 101.398 119.317 100.363 118.691 99.7582C116.734 97.5078 113.57 97.2577 110.95 98.6474C109.5 99.3976 108.349 100.59 107.648 101.991C107.186 102.898 106.798 103.846 106.123 104.643C105.535 105.218 104.591 105.131 103.815 105.218C102.189 105.323 100.558 105.137 98.9318 105.207C96.3491 105.346 93.7417 105.433 91.2029 105.922C89.3832 106.265 87.6447 107.288 86.8756 108.922C85.4372 111.719 87.4881 114.022 90.6273 113.952C91.7342 114.092 92.8846 114.028 93.9916 114.051C96.5305 114.133 99.0754 113.969 101.608 114.132C104.471 114.132 107.336 114.295 110.2 114.307C113.032 114.307 115.865 114.411 118.698 114.441C121.631 114.458 124.563 114.435 127.496 114.476C132.955 114.423 138.414 114.464 143.879 114.382C146.562 114.353 149.251 114.353 151.927 114.196C153.24 114.156 154.559 114.051 155.866 113.894C157.173 113.725 158.662 113.475 159.5 112.435Z" fill="#B7E8FF"/>
</g>
</g>
<g id="Group_5">
<g id="Group_6">
<path id="Vector_2" d="M89.8209 114.324C96.9495 114.807 104.116 114.551 111.251 114.976V114.981C112.451 115.301 113.639 113.999 112.113 113.505C108.386 113.225 104.623 113.184 100.883 113.138C98.3753 113.167 95.8681 113.045 93.3605 112.952C90.6781 112.853 85.544 113.127 87.2699 109.242C89.0271 106.469 92.9411 106.631 95.974 106.323C99.0191 106.015 102.096 106.771 105.097 106.038C107.911 105.456 108.043 102.514 109.5 100.683C110.807 99.0078 113.307 98.3394 115.421 98.9033C116.959 99.3454 117.754 100.741 118.973 101.607C121.249 103.177 123.188 101.799 124.107 99.6706C125.37 97.525 126.183 95.1875 127.258 92.9605C129.553 89.0704 132.881 85.7559 138.077 86.7619C143.148 87.611 145.268 92.3381 143.235 96.5073C142.791 97.8332 144.974 97.8332 145.486 96.0015C146.068 94.1351 146.199 91.9428 145.424 90.0994C143.629 85.9999 138.383 84.4534 133.981 85.2674C131.823 85.6744 129.979 86.9362 128.44 88.3548C127.096 89.7735 125.92 91.3728 125.032 93.0767C124.194 95.0596 123.375 97.0539 122.325 98.9497C121.9 99.508 121.725 100.462 120.993 100.729C119.505 100.124 118.811 98.502 117.291 97.8856C113.589 96.0596 108.493 97.7457 106.848 101.334C106.304 102.183 106.154 103.241 105.479 104.003C103.853 105.352 101.358 104.666 99.3695 104.712C94.6358 104.84 86.5755 104.492 84.9749 109.742C84.3871 112.912 86.857 114.068 89.8209 114.324Z" fill="#004449"/>
</g>
</g>
</g>
<g id="Group_7">
<g id="Group_8">
<g id="Group_9">
<path id="Vector_3" d="M67.4529 44.5679C67.7751 43.2091 67.111 41.575 65.4307 41.4908L65.4365 41.497C64.1503 41.4113 63.0209 42.1618 62.2192 43.0252C61.2072 44.0288 60.7048 45.3479 60.142 46.5956C59.9933 46.9698 59.5906 47.6809 59.9218 48.114C60.0238 48.2563 60.2089 48.3365 60.3908 48.3178C60.7989 48.2702 61.0783 47.9228 61.3094 47.5216C62.1728 47.7299 64.4059 47.0895 65.3237 46.9446C65.7176 47.5713 66.6621 47.1712 66.863 46.5191C67.0452 45.8664 67.308 45.2332 67.4529 44.5679Z" fill="#FFA97F"/>
</g>
</g>
<g id="Group_10">
<g id="Group_11">
<path id="Vector_4" d="M78.4176 82.518C79.1774 80.3271 79.9282 78.0141 79.6606 75.6744L79.6542 75.6682C79.0778 72.7681 75.7182 72.379 73.3092 73.6488C73.3347 69.659 69.4638 69.8088 66.8682 71.8941C66.8642 69.0959 63.5527 68.33 61.2423 69.4511C61.669 68.153 62.0521 66.8487 62.4478 65.5442C62.6333 64.7811 68.1608 45.599 66.4261 45.8682C65.967 46.1283 60.6262 46.7069 60.6262 46.7069C60.6262 46.7069 54.2401 67.2198 54.1911 67.6108C53.9722 69.2862 53.7475 70.9562 53.5533 72.6323C53.2712 74.9578 53.3011 77.297 53.2438 79.634C53.2118 81.3316 53.6801 87.6435 53.8115 89.1129C53.9706 90.4842 54.2991 91.836 54.6597 93.1717C54.7885 93.6811 54.9109 94.1907 55.0458 94.7002C55.2112 95.2339 55.3048 95.8646 55.558 96.3945C55.4744 96.4738 55.421 96.577 55.4043 96.7162C55.4011 97.0244 55.6312 97.2983 55.9409 97.4051C57.481 97.7496 70.8697 98.1278 71.189 98.1187C71.1642 98.5252 73.083 96.9171 73.4491 96.1821C74.2749 93.8706 75.1389 91.5489 75.9278 89.2248C76.727 86.9768 77.6001 84.7537 78.4176 82.518Z" fill="#FFA97F"/>
</g>
<g id="Group_12">
<path id="Vector_5" d="M58.4206 82.263C66.7367 82.4779 73.301 88.9311 73.0699 96.6644C72.8388 104.398 65.8992 110.502 57.5832 110.287C49.2671 110.072 42.7027 103.619 42.9338 95.8857C43.1649 88.1524 50.1045 82.0481 58.4206 82.263Z" fill="#FFA97F"/>
</g>
</g>
<g id="Group_13">
<g id="Group_14">
<path id="Vector_6" d="M58.2884 73.6903C57.2527 76.5314 53.4905 85.4045 58.1995 86.4975L58.2117 86.5095C59.4807 86.7517 60.6904 86.0441 61.4733 85.1685C61.9584 84.6343 62.6491 83.925 62.2647 83.1822C62.0803 82.8635 61.7067 82.8184 61.3775 82.9438C60.5897 83.3423 60.3346 84.3421 59.4256 84.6152C55.6269 85.2967 58.8689 76.8758 59.4295 75.279C60.3683 72.9648 61.8671 67.6052 65.308 70.94C66.2799 71.6979 65.5552 72.5109 66.3567 72.904C67.2314 73.1534 67.686 72.1709 67.5434 71.4982C67.4891 69.9609 65.9574 68.6648 64.4767 68.1903C60.8716 67.2013 59.2512 71.1963 58.2884 73.6903Z" fill="#004449"/>
</g>
</g>
<g id="Group_15">
<g id="Group_16">
<path id="Vector_7" d="M61.9642 81.9465C61.1927 84.3114 60.4283 87.5025 63.5472 88.642C64.9768 89.3596 69.545 87.0053 68.754 85.42C67.8756 84.2456 66.6828 86.6989 64.9137 86.8683C64.1017 87.0333 63.2102 86.3122 63.0186 85.6091C62.9053 83.5353 63.8653 81.5534 64.5299 79.6159C65.3694 77.6889 66.9612 73.4022 68.5923 72.1995C69.9056 71.5817 71.7991 72.0846 72.4431 73.3462C72.632 73.7174 72.4182 74.1655 72.7021 74.5102C73.0278 74.9084 73.615 74.7436 73.8881 74.3899C75.4732 70.7487 69.1318 68.3917 66.7827 71.635C64.5298 74.8111 63.2299 78.32 61.9642 81.9465Z" fill="#004449"/>
</g>
</g>
<g id="Group_17">
<g id="Group_18">
<path id="Vector_8" d="M68.6057 83.8869C68.0878 85.7232 68.236 87.6761 70.4744 88.3388L70.4677 88.3443C71.4236 88.5958 72.4554 88.3957 73.307 87.9524C74.0178 87.6161 74.8787 87.0681 74.5853 86.2111C74.3159 85.5993 73.6312 85.6978 73.1759 86.0641C72.4169 86.5623 71.3266 86.8311 70.5371 86.2405C69.7719 85.6796 70.1324 84.712 70.2796 83.9652C70.6238 82.4964 71.1355 81.0727 71.8083 79.6999C72.5711 78.0325 74.1738 74.0193 76.6016 74.4137C77.3729 74.5676 78.4679 75.1834 78.7025 75.9166C78.7919 76.2797 79.1154 76.5495 79.527 76.3798C79.9389 76.2044 80.0835 75.7485 80.0327 75.3574C79.9497 73.9534 78.1181 72.6612 76.6747 72.6066C72.8968 72.375 70.948 77.7173 69.7372 80.3501C69.2341 81.4888 68.892 82.6845 68.6057 83.8869Z" fill="#004449"/>
</g>
</g>
<g id="Group_19">
<g id="Group_20">
<path id="Vector_9" d="M65.4636 73.881C65.3026 74.2432 64.9554 74.7697 65.403 75.0662L65.4097 75.0603C65.8485 75.246 66.1315 74.765 66.2474 74.4424C66.4683 73.965 66.6336 73.4572 66.724 72.9419C66.9241 71.8942 66.7462 70.7323 65.8421 69.9992C65.6415 69.8019 65.3837 69.6556 65.151 69.4866C64.9484 69.3534 64.734 69.1966 64.4782 69.1726C64.197 69.1597 64.0682 69.5054 64.263 69.6791C64.4333 69.8465 64.5651 70.0416 64.7158 70.2259C65.188 70.7441 65.8617 71.2328 65.871 71.9659C65.939 72.625 65.7196 73.271 65.4636 73.881Z" fill="#004449"/>
</g>
</g>
<g id="Group_21">
<g id="Group_22">
<path id="Vector_10" d="M60.2421 84.0898C59.9885 84.4149 60.014 85.0261 60.5112 85.1322L60.5173 85.1324C60.9401 85.2131 61.263 84.8784 61.4906 84.5934C61.8597 84.1784 62.1607 83.7205 62.4438 83.2509C63.1526 82.1405 63.6382 80.7456 63.9896 79.4573C64.2134 78.6605 64.5989 77.9138 64.8847 77.1359C65.1011 76.5891 65.3179 76.0419 65.4848 75.4821C65.5131 75.3783 65.4476 75.26 65.3288 75.2569C65.1662 75.2527 65.0994 75.3966 65.0396 75.5113C64.712 76.0032 64.5044 76.4748 64.1946 76.9962C63.6619 77.861 63.2031 78.7796 62.8062 79.706C62.1422 80.9861 61.6039 82.2692 60.7421 83.4744C60.7484 83.4689 60.7548 83.4574 60.7548 83.4574C60.5921 83.6743 60.4172 83.8792 60.2421 84.0898Z" fill="#004449"/>
</g>
</g>
<g id="Group_23">
<g id="Group_24">
<path id="Vector_11" d="M71.022 77.5382C70.8434 77.8653 70.6723 78.3495 71.0711 78.61L71.065 78.6099C71.2489 78.7308 71.4823 78.6731 71.6662 78.5907C71.9517 78.4585 72.0788 78.1704 72.2052 77.9178C72.3845 77.5678 72.5701 77.2235 72.7494 76.8734C73.3455 75.7602 73.9641 74.3279 73.6201 73.0741C73.459 72.3953 73.0778 71.7511 72.3667 71.4708C72.1627 71.3841 71.9173 71.2324 71.6947 71.349C71.1778 71.6847 72.2874 72.2484 72.3684 72.675C72.5124 73.0859 72.5323 73.4649 72.5505 73.9016C72.4791 74.8246 71.9602 75.6489 71.5418 76.4641C71.3559 76.8201 71.1829 77.176 71.022 77.5382Z" fill="#004449"/>
</g>
</g>
<g id="Group_25">
<g id="Group_26">
<path id="Vector_12" d="M64.7209 87.2476C64.511 87.5795 64.4712 88.0671 64.8582 88.3039L64.8645 88.3101C65.2459 88.5294 65.6605 88.2609 66.0151 88.1131C67.064 87.5583 67.9195 86.7544 68.6489 85.7959C69.4737 84.5667 70.0093 83.196 70.4013 81.7982C70.7126 80.8055 71.0171 79.8074 71.3408 78.8211C71.4438 78.5098 71.5717 78.2105 71.6436 77.8923C71.6522 77.811 71.6803 77.7246 71.6261 77.6534C71.4137 77.4268 70.8825 78.4602 70.7455 78.6427C69.7303 80.1753 69.1163 81.8873 68.2612 83.4938C67.7586 84.6152 67.0201 85.6606 65.9721 86.4014C65.7992 86.5366 65.6325 86.6719 65.4357 86.7657C65.1572 86.8807 64.9176 86.9387 64.7209 87.2476Z" fill="#004449"/>
</g>
</g>
</g>
<g id="Group_27">
<g id="Group_28">
<g id="Group_29">
<path id="Vector_13" d="M102.7 27.4689C103.138 26.3874 102.494 25.3407 101.525 24.73L101.506 24.736C100.824 24.2532 100.062 23.8636 99.2364 23.6659C97.4545 23.2472 95.6031 23.1835 93.796 22.8636C93.0834 22.724 92.3702 22.503 91.7886 22.0843C91.357 21.7995 91.4823 21.3925 91.6576 21.0029C92.1516 19.9561 92.7142 18.9267 93.0018 17.8045C93.3957 16.3044 93.6581 14.653 92.9328 13.1992C91.9386 11.2453 89.775 9.93114 87.499 9.65201C85.4603 9.40192 83.3469 10.0998 81.6899 11.1929C81.496 11.3268 81.2024 11.5422 80.877 11.7979C80.9148 11.4317 80.9269 11.0941 80.9143 10.8266C80.8267 8.454 79.5016 6.23869 77.6567 4.63973C75.6996 3.08151 73.3294 1.72054 70.6969 1.58662C68.7961 1.50514 66.8198 1.77863 65.1628 2.69145C63.4056 3.7148 61.8987 5.25608 61.1982 7.09343C60.7666 8.27369 60.7418 9.53584 60.6919 10.7685C60.6108 12.3852 60.3605 14.1411 59.5602 15.6122C58.3847 17.502 56.8899 17.1765 54.895 16.88C53.9008 16.7231 52.8819 16.7057 51.8812 16.8046C50.8432 16.9324 49.8989 17.5024 49.2673 18.264C48.4856 19.1651 48.1169 20.2877 47.5166 21.282C47.1726 21.8866 46.6287 22.3925 45.9034 22.5728C44.2338 22.9334 42.8141 23.2004 41.5887 24.4392C40.4696 25.4742 40.0627 27.2539 41.0508 28.4866C41.7448 29.3821 42.9264 29.754 44.0646 29.8528C44.7899 29.9052 45.5217 29.9052 46.2535 29.8935C47.1978 29.9633 48.054 29.9811 48.5733 29.9984C50.4181 30.0101 52.2564 29.8415 54.1012 29.7891C55.8398 29.7657 57.584 29.7366 59.3225 29.7132C64.8379 29.6781 70.3529 29.5507 75.8683 29.6668C81.8274 29.7774 87.7866 29.8121 93.7457 29.8528C94.3396 29.8471 94.9399 29.8471 95.5342 29.8008C96.3722 29.8064 97.2163 29.7834 98.0544 29.7483C99.8927 29.7657 102.038 29.2598 102.7 27.4689Z" fill="#B7E8FF"/>
</g>
</g>
<g id="Group_30">
<g id="Group_31">
<path id="Vector_14" d="M47.9858 30.4174C50.3369 30.5513 52.6758 30.7022 55.0394 30.7195V30.7078C58.2597 30.5739 61.4804 30.5917 64.7008 30.6324C65.9201 30.5453 67.3021 30.9055 68.4338 30.4287C69.2094 29.847 68.2399 28.9866 67.4834 29.0798C66.389 29.1206 65.2946 29.0798 64.2002 29.0798C61.9242 29.0681 59.6417 29.0157 57.3592 29.0681C54.4325 29.2601 51.5002 29.0742 48.5801 28.8939C46.6602 28.7019 44.6402 29.0798 42.7832 28.5159C41.3261 28.0565 41.9829 26.3062 42.6769 25.4688C43.5462 24.4572 44.9846 24.1196 46.2165 23.6254C49.7118 22.3403 49.1492 18.1013 51.7818 17.6536C53.7953 17.3397 55.8336 18.0839 57.8407 17.5547C59.479 17.2639 60.73 16.0255 61.0488 14.5194C61.4241 13.2633 61.3737 11.9551 61.5052 10.67C61.8617 8.54182 62.1931 6.12281 63.9191 4.53514C69.6032 -0.157669 77.6883 3.94178 79.6329 10.0359C79.9079 10.6466 80.0458 11.298 80.2523 11.9261C80.5026 12.5481 81.5653 12.6933 81.8217 12.0015C82.072 10.5361 81.171 9.06499 80.6397 7.71612C78.0444 2.72118 71.16 -0.593309 65.4321 1.66274C60.2043 3.33753 59.5168 8.36716 59.2856 12.8506C59.0544 15.2579 58.035 16.3398 55.3461 16.2059C52.8636 15.9094 49.5864 15.6298 48.2422 18.0722C46.4225 21.753 46.6789 21.6542 42.6708 23.2475C40.2196 24.2362 38.5374 28.0508 41.3014 29.5627C43.3085 30.7022 45.7536 30.2835 47.9858 30.4174Z" fill="#004449"/>
</g>
</g>
</g>
<g id="Group_32">
<g id="Group_33">
<g id="Group_34">
<path id="Vector_15" d="M131.808 46.7373C135.435 45.9118 139.075 45.1157 142.725 44.3783L142.725 44.4017C144.537 44.047 146.36 43.7507 148.144 43.2908C148.743 43.1376 149.33 42.9438 149.934 42.8254C150.104 43.4347 149.924 44.0175 149.123 44.4504C147.569 45.3759 145.766 45.824 144.041 46.4017C142.09 47.0377 140.081 47.4865 138.083 47.9583C135.355 48.6093 132.633 49.2544 129.889 49.8175C123.639 51.0986 117.411 52.4735 111.177 53.8422C108.522 57.5021 105.75 61.0953 102.997 64.6833C100.546 67.7671 97.9548 70.748 95.3329 73.7111C92.0634 77.4077 91.034 77.5264 85.9563 77.4593C81.3045 77.1704 85.06 72.9219 86.1757 70.9614C87.5207 68.8611 88.829 66.7429 90.1309 64.6184C91.6904 62.2561 93.0716 59.773 94.4653 57.3076C93.7103 57.4511 92.9557 57.5942 92.2007 57.7377C87.706 58.6804 83.2513 59.7521 78.7734 60.759C74.9013 61.5899 71.0411 62.4558 67.1638 63.2571C64.1571 63.8077 61.1506 64.3639 58.1444 64.8972C55.9941 65.2661 53.9872 65.6388 51.8986 66.0327C51.6215 66.101 51.3374 66.1696 51.0604 66.2322C50.1848 66.4307 49.2982 66.5938 48.4113 66.7513C46.1252 67.2624 43.8443 67.8205 41.547 68.2845C37.9298 68.9646 34.3364 70.1105 30.6109 70.0143C30.4795 70.0109 30.342 70.0073 30.2106 70.0039C27.4514 69.8104 24.4449 69.1044 22.4233 67.2548C21.1576 66.2799 20.0296 65.0934 18.9727 63.8269C16.9718 61.2855 15.2067 58.5927 13.5432 55.8566C11.8005 53.0543 9.98742 50.2965 8.20005 47.5221C7.70483 46.7124 6.92438 45.616 6.24619 44.4524C6.20361 44.4106 6.16138 44.3574 6.12522 44.3041C5.9061 43.8969 5.68696 43.4901 5.46133 43.0828C4.98727 42.2038 4.52137 41.2551 4.61385 40.2511C4.64459 39.4259 5.25373 38.7322 6.06329 38.4332C8.30939 37.5897 10.7696 39.1944 12.6993 40.1401C15.0148 41.3576 17.1213 42.8776 19.2547 44.3407C22.5607 46.5377 25.8533 48.7639 29.2311 50.8696C30.1532 51.4055 31.0481 52.0275 32.0962 52.3282C33.519 52.6498 34.9905 52.4026 36.3943 52.1132C44.7769 50.2181 53.1991 48.4637 61.6041 46.6625C70.1826 44.9178 78.7111 42.9631 87.2509 41.0487C94.6265 39.5699 101.953 38.037 109.373 36.7627C113.28 36.0025 117.176 35.2308 121.094 34.5294C123.434 34.1129 125.735 33.515 128.102 33.2215C128.542 33.1574 128.981 33.0989 129.427 33.0463C129.424 33.1394 129.447 33.2385 129.506 33.3506C129.591 34.6791 129.965 35.9745 130.289 37.2685C130.535 38.0601 130.741 38.8854 131.189 39.6067C131.783 40.4537 132.785 41.0325 133.87 41.1537C135.298 41.3185 136.74 40.9894 138.125 40.7052C139.333 40.4628 140.541 40.2269 141.715 39.8848C142.865 39.513 144.033 39.1594 145.13 38.6583C145.523 38.4764 146.012 38.2332 146.137 37.8059C147.356 38.9019 148.426 40.1336 149.306 41.4711C148.124 41.6734 146.973 42.0625 145.785 42.2529C141.445 43.0656 137.115 43.9251 132.825 44.9312C129.343 45.708 125.844 46.3972 122.339 47.0919C120.677 47.4444 119.027 47.8149 117.365 48.1675C116.592 48.2927 115.99 49.173 116.917 49.5577C117.472 49.7989 118.079 49.6108 118.64 49.48C119.464 49.3035 120.289 49.1271 121.108 48.9445C124.659 48.1522 128.256 47.5413 131.808 46.7373Z" fill="#D5FFBF"/>
</g>
</g>
<g id="Group_35">
<g id="Group_36">
<path id="Vector_16" d="M86.0412 75.8797C85.7547 76.2621 85.5936 76.8334 85.9891 77.2043C86.2754 77.4676 86.7533 77.3754 87.0347 77.1676C87.4903 76.7896 87.7069 76.2367 88.0398 75.7683C88.6631 74.7897 89.2991 73.8232 89.9163 72.8444C91.1794 70.7711 92.5098 68.7402 93.8036 66.6854C95.4078 64.074 96.9128 61.4428 98.4374 58.7774C98.4177 58.812 98.3981 58.8461 98.3784 58.8807C98.3653 58.8978 98.3587 58.9153 98.3456 58.9324C99.2292 57.4194 100.119 55.8952 101.07 54.4131C101.728 53.3365 102.522 52.3038 102.982 51.135C103.183 50.2907 102.153 50.0083 101.652 50.6354C101.386 50.9832 101.167 51.3669 100.931 51.7333C98.215 55.7524 95.9118 59.9864 93.4544 64.1402C91.5659 67.2619 89.5539 70.3219 87.6223 73.4191C87.0849 74.2369 86.566 75.0616 86.0412 75.8797Z" fill="#FFFBED"/>
</g>
</g>
<g id="Group_37">
<g id="Group_38">
<path id="Vector_17" d="M20.9086 51.6029C21.1707 51.8364 21.4969 52.0135 21.8578 52.0753L21.8639 52.0755C22.9534 52.255 22.7229 51.1672 22.2499 50.6719C21.6303 50.0627 20.882 49.5604 20.2044 49.0017C16.956 46.5443 13.7076 44.0872 10.5115 41.5673C9.60561 40.8922 8.73184 40.1893 7.81315 39.5372C7.48848 39.3077 7.1574 39.0893 6.82648 38.8657C6.63631 38.7385 6.43971 38.6233 6.20192 38.6228C5.58247 38.6302 5.46303 39.2727 5.7511 39.6817C5.97951 39.9959 6.31658 40.2314 6.62833 40.4723C10.0702 43.1498 13.4149 45.9237 16.9282 48.5216C17.8456 49.2144 18.7698 49.9016 19.6679 50.6169C20.0833 50.9476 20.4993 51.2723 20.9086 51.6029Z" fill="#FFFBED"/>
</g>
</g>
<g id="Group_39">
<g id="Group_40">
<path id="Vector_18" d="M31.0714 66.5362C30.7257 66.8065 30.7521 67.1562 31.1478 67.3178L31.1543 67.318C32.5186 67.929 36.748 66.4388 38.5862 66.2651C44.2306 65.1544 49.8408 63.9265 55.4961 62.8742C67.9153 60.2925 80.4733 58.2959 92.7922 55.3102C94.1345 54.9841 93.6725 53.7039 92.4513 53.9516C89.2319 54.7235 85.9488 55.302 82.6892 55.9506C69.7285 58.6466 56.6735 60.9382 43.7245 63.6636C40.8666 64.2588 37.765 64.8477 34.8701 65.4302C33.6208 65.7934 32.085 65.6956 31.0714 66.5362Z" fill="#FFFBED"/>
</g>
</g>
<g id="Group_41">
<g id="Group_42">
<path id="Vector_19" d="M149.3 41.4658C149.318 41.4897 149.347 41.5369 149.347 41.5369L149.348 41.5312C149.497 41.7619 149.658 42.0275 149.725 42.3028C149.82 42.4683 149.884 42.6326 149.929 42.7968C149.325 42.9151 148.737 43.1094 148.139 43.2626C146.354 43.7225 144.525 44.0182 142.719 44.3731C139.069 45.1104 135.43 45.9009 131.802 46.7321C128.256 47.5419 124.653 48.1469 121.102 48.9393C120.277 49.1218 119.458 49.2983 118.634 49.4747C118.073 49.6055 117.473 49.7998 116.911 49.5525C115.977 49.1737 116.585 48.2936 117.359 48.1622C119.021 47.8097 120.671 47.4391 122.333 47.0866C125.838 46.3976 129.337 45.7084 132.819 44.926C137.11 43.9198 141.439 43.06 145.78 42.2473C146.968 42.0512 148.118 41.6681 149.3 41.4658Z" fill="#FFFBED"/>
</g>
</g>
<g id="Group_43">
<g id="Group_44">
<path id="Vector_20" d="M131.531 39.6919C131.107 39.0062 130.906 38.227 130.678 37.4766L130.672 37.4765C130.364 36.2471 130.013 35.0222 129.932 33.7635C129.878 33.6516 129.857 33.5582 129.859 33.4711C132.552 33.1452 135.309 33.0127 137.939 33.738C140.844 34.5285 143.501 36.0224 145.676 37.9865C145.557 38.3906 145.094 38.6231 144.72 38.7938C143.685 39.2731 142.581 39.6053 141.488 39.9552C140.378 40.2812 139.232 40.5079 138.093 40.7343C136.785 41.0031 135.423 41.3166 134.071 41.1593C133.042 41.0395 132.095 40.4977 131.531 39.6919Z" fill="#B7E8FF"/>
</g>
</g>
<g id="Group_45">
<g id="Group_46">
<path id="Vector_21" d="M2.81616 69.4254C2.81636 69.4189 2.81006 69.4122 2.81006 69.4122C2.81636 69.4189 2.81616 69.4254 2.81616 69.4254Z" fill="#0FFF80"/>
</g>
</g>
<g id="Group_47">
<g id="Group_48">
<path id="Vector_22" d="M2.84046 69.4424C2.84029 69.448 2.84029 69.448 2.84029 69.448L2.86596 69.4313C2.99873 69.5917 3.19332 69.7888 3.45565 69.7956C3.49944 69.7967 3.53673 69.7977 3.58087 69.7871C3.76767 69.8093 3.97519 69.7917 4.16442 69.7324C4.37897 69.6681 4.58833 69.5743 4.80305 69.5044C5.91578 69.1086 7.02834 68.7185 8.15277 68.3521C13.8868 66.5516 19.5494 64.4116 25.2777 62.5876C25.7522 62.4077 26.3076 62.2478 26.5817 61.8594C26.6145 61.8078 26.6347 61.7558 26.6548 61.71C27.0957 60.9825 26.6445 59.9761 26.3498 59.3693C26.2252 59.1393 26.0828 58.8798 25.9408 58.6086C25.9049 58.5435 25.8696 58.4784 25.8339 58.4077C25.7275 58.2072 25.6274 58.0008 25.5393 57.8125C25.4553 57.6881 25.3206 57.3767 25.1473 57.1047C24.905 56.6332 24.53 55.9948 23.7316 56.1255C23.3633 56.0926 22.9646 56.2626 22.604 56.393C22.275 56.5124 21.9523 56.638 21.6174 56.7516C20.4931 57.1124 19.3627 57.4609 18.2503 57.8453C15.9118 58.646 13.5998 59.4123 11.2473 60.2591C8.11856 61.3359 4.98477 62.3776 1.88532 63.5189C1.85376 63.5298 1.82809 63.5465 1.79635 63.5631C1.60096 63.6105 1.39083 63.7447 1.25407 63.9215C0.584633 64.7593 1.06389 65.6679 1.32255 66.4364C1.51852 66.9939 1.72741 67.54 2.04374 68.0486C2.26218 68.4787 2.50939 69.0206 2.83474 69.4305C2.84064 69.4363 2.84064 69.4363 2.84064 69.4363C2.84048 69.442 2.84046 69.4424 2.84046 69.4424Z" fill="#0FFF80"/>
</g>
</g>
<g id="Group_49">
<g id="Group_50">
<path id="Vector_23" d="M2.8523 69.4671C2.846 69.4605 2.84619 69.454 2.84619 69.454C2.85249 69.4606 2.8523 69.4671 2.8523 69.4671Z" fill="#0FFF80"/>
</g>
</g>
<g id="Group_51">
<g id="Group_52">
<path id="Vector_24" d="M38.4801 59.7698C38.6281 60.0472 38.8704 60.3153 39.2129 60.3706C39.3308 60.4027 39.4361 60.4228 39.5363 60.4254C40.5366 60.4512 40.8566 58.9644 40.585 58.2068C40.4584 57.6217 40.1832 56.9867 39.6307 56.6407C39.0838 56.3126 38.4167 56.6501 38.1762 57.1616C37.77 57.9888 37.8002 59.0715 38.4801 59.7698Z" fill="#0FFF80"/>
</g>
</g>
<g id="Group_53">
<g id="Group_54">
<path id="Vector_25" d="M61.6901 55.2977C61.838 55.5751 62.0804 55.8433 62.4228 55.8986C62.5408 55.9307 62.6461 55.9507 62.7462 55.9533C63.7466 55.9792 64.0665 54.4924 63.795 53.7348C63.6684 53.1496 63.3931 52.5146 62.8407 52.1687C62.2937 51.8406 61.6267 52.1781 61.3862 52.6896C60.98 53.5168 61.0101 54.5994 61.6901 55.2977Z" fill="#0FFF80"/>
</g>
</g>
<g id="Group_55">
<g id="Group_56">
<path id="Vector_26" d="M68.6525 53.6453C68.8004 53.9227 69.0428 54.1908 69.3853 54.2461C69.5032 54.2782 69.6085 54.2983 69.7086 54.3009C70.709 54.3267 71.0289 52.8399 70.7574 52.0823C70.6308 51.4972 70.3555 50.8622 69.8031 50.5162C69.2561 50.1881 68.5891 50.5256 68.3486 51.0371C67.9424 51.8643 67.9725 52.947 68.6525 53.6453Z" fill="#0FFF80"/>
</g>
</g>
<g id="Group_57">
<g id="Group_58">
<path id="Vector_27" d="M76.2658 52.1548C76.4137 52.4322 76.6561 52.7004 76.9985 52.7556C77.1165 52.7877 77.2218 52.8078 77.3219 52.8104C78.3222 52.8362 78.6422 51.3494 78.3706 50.5918C78.2441 50.0067 77.9688 49.3717 77.4163 49.0257C76.8694 48.6976 76.2023 49.0351 75.9618 49.5466C75.5557 50.3738 75.5858 51.4565 76.2658 52.1548Z" fill="#0FFF80"/>
</g>
</g>
<g id="Group_59">
<g id="Group_60">
<path id="Vector_28" d="M106.539 45.1478C106.687 45.4252 106.93 45.6934 107.272 45.7487C107.39 45.7808 107.495 45.8008 107.595 45.8034C108.596 45.8293 108.916 44.3425 108.644 43.5849C108.518 42.9997 108.242 42.3647 107.69 42.0188C107.143 41.6907 106.476 42.0282 106.235 42.5397C105.829 43.3669 105.859 44.4495 106.539 45.1478Z" fill="#0FFF80"/>
</g>
</g>
<g id="Group_61">
<g id="Group_62">
<path id="Vector_29" d="M113.507 43.5016C113.655 43.779 113.897 44.0472 114.24 44.1024C114.358 44.1345 114.463 44.1546 114.563 44.1572C115.563 44.183 115.883 42.6962 115.612 41.9387C115.485 41.3535 115.21 40.7185 114.658 40.3725C114.111 40.0444 113.444 40.3819 113.203 40.8934C112.797 41.7206 112.827 42.8033 113.507 43.5016Z" fill="#0FFF80"/>
</g>
</g>
<g id="Group_63">
<g id="Group_64">
<path id="Vector_30" d="M121.121 42.0059C121.269 42.2833 121.512 42.5514 121.854 42.6067C121.972 42.6388 122.077 42.6589 122.177 42.6614C123.178 42.6873 123.498 41.2005 123.226 40.4429C123.1 39.8578 122.824 39.2228 122.272 38.8768C121.725 38.5487 121.058 38.8862 120.817 39.3977C120.411 40.2249 120.441 41.3075 121.121 42.0059Z" fill="#0FFF80"/>
</g>
</g>
<g id="Group_65">
<g id="Group_66">
<path id="Vector_31" d="M86.1574 50.037C86.3053 50.3144 86.5477 50.5826 86.8901 50.6378C87.0081 50.6699 87.1134 50.69 87.2135 50.6926C88.2138 50.7184 88.5338 49.2316 88.2622 48.474C88.1357 47.8889 87.8604 47.2539 87.308 46.9079C86.761 46.5798 86.0939 46.9173 85.8534 47.4288C85.4473 48.256 85.4774 49.3387 86.1574 50.037Z" fill="#0FFF80"/>
</g>
</g>
<g id="Group_67">
<g id="Group_68">
<path id="Vector_32" d="M93.1237 48.3908C93.2716 48.6682 93.514 48.9363 93.8564 48.9916C93.9744 49.0237 94.0797 49.0437 94.1798 49.0463C95.1801 49.0722 95.5001 47.5854 95.2286 46.8278C95.102 46.2427 94.8267 45.6077 94.2743 45.2617C93.7273 44.9336 93.0603 45.2711 92.8198 45.7826C92.4136 46.6098 92.4437 47.6924 93.1237 48.3908Z" fill="#0FFF80"/>
</g>
</g>
<g id="Group_69">
<g id="Group_70">
<path id="Vector_33" d="M55.5873 47.6887C55.0611 48.1347 55.5467 48.845 56.1378 48.9417L56.1441 48.9363C57.5512 48.9553 58.9502 48.4035 60.3397 48.1718C64.2318 47.2951 68.14 46.5059 72.0486 45.7054C82.6347 43.5473 93.2097 41.3598 103.757 39.0381C107.145 38.2823 110.533 37.5321 113.949 36.8932C119.062 35.7571 124.186 34.4824 129.472 34.2755C136.75 33.3349 143.911 36.3293 148.334 41.7548C148.942 42.358 149.089 43.5022 150.066 43.6727C150.502 43.7421 150.949 43.4454 150.924 43.0202C150.628 41.8201 149.764 40.7854 148.948 39.8394C145.354 35.9772 140.169 33.2429 134.681 32.6822C126.408 32.1428 118.403 34.3733 110.411 35.9701C102.806 37.577 95.2415 39.3071 87.6311 40.8904C79.5811 42.5322 71.5367 44.2032 63.4863 45.8566C61.6043 46.2502 59.7456 46.6909 57.8695 47.0903C57.1189 47.3038 56.2441 47.2751 55.5873 47.6887Z" fill="#004449"/>
</g>
</g>
<g id="Group_71">
<g id="Group_72">
<path id="Vector_34" d="M107.762 72.4735C107.763 72.4378 107.706 72.4721 107.706 72.4721C107.705 72.5078 107.761 72.5031 107.762 72.4735Z" fill="#004449"/>
</g>
</g>
<g id="Group_73">
<g id="Group_74">
<path id="Vector_35" d="M83.312 76.5707C84.1542 77.4883 86.2361 77.5365 87.4715 77.6382L87.4655 77.638C91.4574 77.8227 93.4683 77.2988 96.247 74.5318C98.2496 72.6172 99.7874 70.3536 101.558 68.2586C103.775 65.6631 105.722 62.8807 107.608 60.0672C109.502 57.3823 111.359 54.6786 113.223 51.9751C113.749 51.1219 112.865 50.3602 112.093 51.0618C111.745 51.4075 111.47 51.8197 111.177 52.2076C109.689 54.2517 108.301 56.3509 106.813 58.389C104.753 61.4013 102.723 64.4375 100.319 67.2259C98.607 69.2408 97.1341 71.4363 95.2021 73.2829C94.4608 74.0143 93.6644 74.7153 92.7053 75.1965C92.0064 75.5566 91.2129 75.7394 90.417 75.783C88.7439 75.8794 87.0994 75.8603 85.4458 75.5093C85.1982 75.4157 84.8551 75.3952 84.6988 75.1817C84.6237 74.7609 84.9551 74.3563 85.1227 73.9768C85.6119 73.0993 86.1562 72.2522 86.67 71.3814C88.0737 69.0034 89.4893 66.6317 90.9298 64.2724C91.7877 62.7761 92.5842 61.2439 93.473 59.7601C94.862 57.4515 96.2077 55.1248 97.5537 52.7921C97.8236 52.3395 98.0561 51.8798 98.3076 51.4211C98.6657 50.9533 98.8116 50.0496 98.0473 49.8785C96.9671 49.8098 96.7421 51.0667 96.29 51.747C95.9926 52.2744 95.6893 52.7964 95.3919 53.3238C93.5578 56.499 91.6388 59.5965 89.9033 62.8267C88.3547 65.4507 86.7576 68.0445 85.2214 70.6749C84.6545 71.6376 84.0318 72.5811 83.5146 73.5685C83.0245 74.475 82.5822 75.6677 83.312 76.5707Z" fill="#004449"/>
</g>
</g>
<g id="Group_75">
<g id="Group_76">
<path id="Vector_36" d="M111.026 52.8382C110.684 52.9924 110.442 53.3352 110.576 53.6933L110.563 53.6813C110.745 54.0992 111.098 54.2302 111.491 54.2403C111.929 54.2516 112.415 54.1129 112.811 54.0416C114.063 53.8121 115.292 53.4835 116.533 53.2129C120.331 52.3571 124.139 51.5774 127.958 50.815C129.69 50.4235 131.427 50.0786 133.164 49.7103C133.178 49.6933 133.184 49.6761 133.197 49.6591C133.316 49.4583 133.549 49.3946 133.77 49.3305C133.934 49.2823 134.105 49.2346 134.269 49.1864C134.572 49.101 134.88 49.0279 135.183 48.9425C135.498 48.8574 135.814 48.778 136.135 48.7108C136.298 48.6799 136.456 48.6436 136.619 48.6128C136.77 48.5876 136.922 48.5451 137.072 48.52C137.261 48.4897 137.45 48.4543 137.638 48.424C137.997 48.3635 138.349 48.3028 138.707 48.2366C138.877 48.2058 139.047 48.1695 139.217 48.1448C139.28 48.1347 139.349 48.1252 139.411 48.1151C139.661 47.9065 139.758 47.6237 139.448 47.2957C138.997 46.9003 138.353 47.1044 137.813 47.1837C136.6 47.3791 135.415 47.6802 134.219 47.9285C131.992 48.3596 129.769 48.8312 127.553 49.3151C123.28 50.1647 119 51.0371 114.754 52.0153C113.809 52.241 112.858 52.4662 111.896 52.6335C111.607 52.6958 111.299 52.723 111.026 52.8382Z" fill="#004449"/>
</g>
</g>
<g id="Group_77">
<g id="Group_78">
<path id="Vector_37" d="M54.3713 65.1255C53.8509 65.5773 54.2123 66.2614 54.8543 66.3421L54.8606 66.3362C55.3658 66.39 55.8218 66.2041 56.3369 66.1302C57.9289 65.8167 59.5212 65.5027 61.1134 65.1831C64.2491 64.4962 67.4072 63.8918 70.5376 63.1814C74.7057 62.2771 78.8687 61.3371 83.0428 60.4502C85.4545 59.9194 87.818 59.3287 90.2474 58.8274C91.1357 58.6236 92.0297 58.4316 92.9122 58.2042C93.3357 58.0582 93.8443 58.0011 94.1847 57.7016C94.4996 57.4188 94.3934 56.9919 94.0168 56.8309C93.8073 56.7266 93.519 56.7305 93.2871 56.7535C92.703 56.8256 92.1239 56.9624 91.5394 57.0518C88.9534 57.5491 86.3788 58.0878 83.8328 58.7141C79.1233 59.7324 74.419 60.7746 69.7091 61.8046C65.3332 62.7503 60.9519 63.6726 56.5602 64.5247C56.0254 64.6332 55.4905 64.7295 54.9617 64.8381C54.741 64.8905 54.5385 64.9729 54.3713 65.1255Z" fill="#004449"/>
</g>
</g>
<g id="Group_79">
<g id="Group_80">
<path id="Vector_38" d="M14.7402 58.2907C14.9415 58.6683 15.3021 58.9452 15.7501 59.0265L15.7691 59.0153C15.8935 59.0359 16.0441 59.0341 16.1638 59.0082C16.6039 58.9324 16.8112 58.4721 16.666 58.1019C16.514 57.7433 16.2413 57.4453 16.0513 57.1087C15.354 55.9447 14.4597 54.8978 13.6988 53.7729C11.694 50.9404 9.49845 48.2196 7.80596 45.2035C7.16983 44.0991 6.48963 42.988 6.12537 41.7745C5.82206 40.8301 6.17169 39.5999 7.25165 39.2553C8.85426 38.8024 11.3386 40.4432 12.7492 41.1717C16.2342 43.03 19.4707 45.2604 22.617 47.5756C24.5759 49.0107 26.5215 50.4689 28.7087 51.5955C29.9032 52.2373 31.1431 52.8157 32.4773 53.1702C34.8809 53.9538 37.4371 53.4033 39.8138 52.7957C41.0106 52.5183 42.1614 52.1118 43.3181 51.7111C44.6321 51.2738 45.9638 50.8837 47.2897 50.47C47.6382 50.3221 48.0714 50.2751 48.3421 50.0029C48.5819 49.7182 48.4254 49.3069 48.1246 49.1188C47.4369 48.6822 46.6005 49.0504 45.8764 49.206C44.3962 49.5402 42.9567 49.98 41.5286 50.4608C40.3653 50.8786 39.1552 51.1791 37.9519 51.468C36.6861 51.7436 35.4084 52.0128 34.079 51.903C30.7709 51.445 27.3621 49.1291 24.7858 47.2128C21.0277 44.4455 17.1984 41.7519 13.0167 39.5556C11.5148 38.7432 9.97041 37.8713 8.23964 37.5881C6.0484 37.2348 4.17343 38.4373 4.04127 40.5512C3.98812 42.3298 5.186 44.1233 6.0469 45.6641C7.1479 47.5483 8.32532 49.3878 9.67437 51.1328C11.0037 52.9124 12.25 54.7419 13.5793 56.5215C13.9939 57.0963 14.3511 57.7048 14.7402 58.2907Z" fill="#004449"/>
</g>
</g>
<g id="Group_81">
<g id="Group_82">
<path id="Vector_39" d="M1.03363 66.8945C1.47544 67.8074 1.83935 68.8293 2.65059 69.5193L2.65077 69.5132C3.84168 70.2768 5.37022 69.776 6.64313 69.4655C7.5635 69.2334 8.52153 68.9902 9.43106 68.6998C11.8214 67.8367 14.2583 67.0849 16.6605 66.2455C18.9277 65.5245 21.1836 64.7741 23.4571 64.0593C24.196 63.8282 24.9349 63.5858 25.6682 63.3255C26.0792 63.1791 26.5818 63.1163 26.8973 62.8105C27.6492 61.9284 26.4284 61.338 25.585 61.7234C21.6172 63.04 17.6143 64.2691 13.6579 65.6268C10.9363 66.4813 8.30773 67.5481 5.49943 68.1676C5.05845 68.2724 4.61105 68.3892 4.14909 68.3539C3.85044 68.096 3.69297 67.7021 3.49006 67.3768C3.22991 66.8758 3.00134 66.3639 2.80433 65.8411C2.70175 65.5128 2.63005 65.1675 2.74029 64.833C2.83737 64.0967 3.5589 63.8244 4.21062 63.5793C5.12779 63.2366 6.1577 62.8968 7.1811 62.5569C10.7514 61.3578 14.3039 60.1289 17.8743 58.9238C19.9271 58.2614 21.9448 57.5109 23.9684 56.7779C24.3037 56.6526 24.7012 56.535 24.8305 56.1893C25.009 55.6588 24.3029 55.4311 23.8493 55.5356C22.4233 55.7429 21.0698 56.2374 19.7177 56.6855C17.3546 57.4795 14.9913 58.2674 12.6341 59.0676C9.78285 60.0641 6.90878 60.9967 4.05164 61.9873C3.13568 62.2893 2.20515 62.6434 1.49193 63.2766C0.996554 63.7352 0.777384 64.3751 0.658462 65.0004C0.563989 65.6496 0.769762 66.3002 1.03363 66.8945Z" fill="#004449"/>
</g>
</g>
<g id="Group_83">
<g id="Group_84">
<path id="Vector_40" d="M21.0297 67.0038C23.3783 69.2052 26.3737 70.283 29.647 70.6411C31.1561 70.808 32.6728 70.7016 34.1783 70.5661C37.0746 70.3561 39.9329 69.7609 42.7428 69.089C42.9134 69.0292 43.2518 69.0033 43.3999 68.8675C44.028 68.366 43.3992 67.4245 42.7075 67.3368C42.2778 67.2676 41.8712 67.4726 41.4562 67.549C40.0008 67.8951 38.5341 68.2006 37.0505 68.4472C35.6538 68.7194 34.2301 68.8339 32.807 68.9424C31.4781 69.036 30.1443 69.0891 28.8306 68.8748C26.4137 68.5388 24.112 67.671 22.3331 66.0775C21.7524 65.632 21.2229 65.1413 20.6805 64.662C20.4625 64.4179 19.9557 63.9977 19.533 64.1147C18.6496 64.3711 19.2567 65.2011 19.638 65.6241C20.0739 66.1124 20.523 66.5775 21.0297 67.0038Z" fill="#004449"/>
</g>
</g>
<g id="Group_85">
<g id="Group_86">
<path id="Vector_41" d="M128.837 35.027C129.084 38.2559 130.385 41.2042 134.292 41.4795L134.286 41.4854C136.361 41.7541 138.397 41.2365 140.388 40.7646C142.244 40.4054 144.05 39.8589 145.9 39.4935C146.722 39.3751 147.145 38.2053 146.434 37.7273C146.034 37.5019 145.564 37.7335 145.149 37.8043C143.714 38.1106 142.3 38.5163 140.859 38.8281C138.108 39.397 134.88 40.4475 132.32 38.8399C130.821 37.7133 130.629 35.7597 130.347 34.1004C130.24 32.4339 128.491 33.1856 128.837 35.027Z" fill="#004449"/>
</g>
</g>
<g id="Group_87">
<g id="Group_88">
<path id="Vector_42" d="M129.976 48.8075C129.178 48.9439 128.534 49.5382 129.316 50.1516L129.323 50.1344C129.519 50.2674 129.737 50.3194 129.956 50.3251C130.324 50.3346 130.71 50.211 131.062 50.1212C131.78 49.9594 132.485 49.838 133.197 49.6643C133.203 49.6645 133.204 49.6528 133.204 49.6528C133.322 49.4521 133.555 49.3887 133.776 49.3246C133.94 49.2764 134.111 49.2283 134.275 49.1801C134.578 49.0947 134.886 49.0216 135.189 48.9362C135.504 48.8511 135.82 48.7721 136.141 48.7049C136.304 48.674 136.462 48.6378 136.625 48.6069C136.776 48.5817 136.928 48.5392 137.078 48.5141C137.267 48.4838 137.456 48.4484 137.644 48.4181C138.003 48.3576 138.355 48.2965 138.713 48.2303C138.883 48.1996 139.053 48.1636 139.223 48.1389C139.254 48.1341 139.286 48.1232 139.317 48.124C140.269 47.8694 141.228 47.6205 142.185 47.3834C144.176 46.9054 146.208 46.5278 148.107 45.7855C149.465 45.3493 151.274 44.5006 150.946 42.9039C150.383 40.8128 148.331 39.3284 146.51 38.118C146.259 37.9255 145.696 37.7128 145.571 38.1228C145.555 38.262 145.634 38.3456 145.724 38.4468C146.176 39.0343 146.596 39.6383 147.111 40.181C147.674 40.8065 148.148 41.4935 148.583 42.2028C148.957 42.8698 149.17 43.4806 148.326 43.9067C145.719 45.1016 142.753 45.5774 139.954 46.2903C137.628 46.8932 135.411 47.5925 133.032 48.0661C132.022 48.3483 130.974 48.4899 129.976 48.8075Z" fill="#004449"/>
</g>
</g>
<g id="Group_89">
<g id="Group_90">
<path id="Vector_43" d="M127.633 49.3343C126.776 49.7657 127.212 50.6788 128.073 50.7245L128.08 50.7186C128.511 50.7354 128.858 50.6165 129.317 50.5412C130.192 50.366 131.067 50.2026 131.942 50.0214C134.709 49.5054 137.391 48.714 140.114 48.0338C142.038 47.525 143.961 46.9989 145.896 46.5138C146.646 46.3238 147.386 46.058 148.06 45.6856C148.48 45.4406 148.775 45.2037 149.16 44.8763C149.417 44.6562 149.767 44.4675 149.877 44.1386C149.946 43.9019 149.587 43.7994 149.414 43.9289C149.235 44.0466 149.039 44.117 148.837 44.1933C147.897 44.4365 147.093 44.5493 146.114 44.8731C142.169 45.8356 138.208 46.9374 134.268 47.9352C132.511 48.3494 130.737 48.6813 128.968 49.0371C128.609 49.121 128.001 49.1634 127.633 49.3343Z" fill="#004449"/>
</g>
</g>
<g id="Group_91">
<g id="Group_92">
<path id="Vector_44" d="M102.137 65.8306C102.097 65.8993 102.056 65.9971 102.091 66.1086L102.091 66.103C102.119 66.2025 102.206 66.2455 102.299 66.248C102.663 66.2222 102.812 65.8307 103.062 65.6277C103.849 64.8337 104.614 63.9403 105.341 63.0689C106.491 61.6443 107.585 60.1836 108.606 58.6685C109.992 56.6681 111.427 54.6924 112.77 52.6679C113.197 52.0042 113.667 51.353 114.099 50.6894C114.277 50.3974 114.529 50.1304 114.601 49.7949C114.753 48.6879 113.324 48.7733 112.889 49.5356C110.601 53.0597 108.102 56.4679 105.753 59.9558C105.178 60.7726 104.572 61.583 104.059 62.4365C103.534 63.2433 103.139 64.1172 102.651 64.9424C102.499 65.2003 102.315 65.5212 102.137 65.8306Z" fill="#004449"/>
</g>
</g>
</g>
<g id="Group_93">
<g id="Group_94">
<g id="Group_95">
<path id="Vector_45" d="M55.3659 97.8085C56.194 98.5744 56.9978 97.4201 56.6655 96.6028L56.672 96.603C56.0511 94.7719 55.5185 92.9201 55.036 91.0578C54.1607 87.2715 54.5592 83.2571 54.5502 79.3769C54.5933 77.0921 53.9527 74.9748 54.2828 72.7147C54.4719 71.4105 54.6863 70.1018 54.9006 68.7983C55.6504 65.0539 56.314 61.2723 56.4777 57.4664C56.4318 54.8185 57.0553 48.6042 54.0535 47.3225C50.9863 46.5569 49.8915 50.519 48.9999 52.5205C48.0196 54.9732 47.1316 57.4634 46.3126 59.9667C44.5485 64.7784 42.8996 69.727 41.3583 74.6203C39.9148 79.1727 40.9225 81.8688 41.734 86.3282C42.3047 88.7919 42.6682 91.2967 43.308 93.7449C43.6813 95.2787 44.3124 96.7549 44.5602 98.3089C44.7819 99.2685 45.9767 99.0609 46.1573 98.2452C46.2331 98.0143 46.2786 97.7423 46.2364 97.4854L46.2611 97.486C49.2837 97.6513 52.3798 97.2483 55.3659 97.8085ZM55.2919 97.7718C55.3167 97.7842 55.3352 97.7903 55.3602 97.7966L55.36 97.8027L55.2919 97.7718Z" fill="#FFA97F"/>
</g>
</g>
<g id="Group_96">
<g id="Group_97">
<path id="Vector_46" d="M51.1011 75.7566C50.9548 76.4683 50.4715 77.3516 51.0971 77.9787L51.0848 77.984C52.0508 78.5211 52.4935 77.0956 52.6136 76.4296C53.2633 73.9449 54.0059 71.4861 54.7055 69.0144C56.0063 63.993 59.9803 50.344 54.8112 46.8599C53.7434 45.7505 52.4724 47.0436 53.4562 48.029C53.8624 48.464 54.3648 48.8144 54.7391 49.272C55.6419 50.8775 55.7166 52.776 55.6696 54.5547C55.6674 59.2316 54.3401 63.8741 53.172 68.4163C52.4983 70.8652 51.7498 73.301 51.1011 75.7566Z" fill="#004449"/>
</g>
</g>
</g>
<g id="Group_98">
<g id="Group_99">
<g id="Group_100">
<path id="Vector_47" d="M79.9148 106.548C80.1872 103.716 80.6531 100.9 80.682 98.0563L80.6698 98.0443C80.6542 97.4799 80.6577 96.8981 80.4535 96.3582C80.5015 95.0798 78.6798 94.0065 76.9524 94.0349C76.1078 94.0437 74.9547 93.9112 74.6162 94.8339C74.4159 95.3004 74.8006 95.8386 75.3523 95.7994C76.436 95.7438 77.8145 95.6667 78.5143 96.5966C78.182 96.8444 77.7732 96.9396 77.3702 97.0288C76.584 97.1842 75.7879 97.241 74.9917 97.3035C72.6638 97.5677 70.4176 97.3565 68.0239 97.2874C62.6931 97.1072 57.3632 97.1252 52.0346 96.8636C50.7982 96.7932 49.4905 96.8026 48.2409 96.7553C47.2096 96.7189 46.1874 96.5899 45.1644 96.49C43.6566 96.2678 38.6598 96.4681 38.0334 95.1441C38.57 94.7438 39.1967 94.4562 39.8579 94.3034C40.3484 94.2046 40.9148 94.3226 41.3005 93.9482C41.2685 93.9764 41.2362 93.9991 41.2042 94.0274C41.1723 94.05 41.1406 94.0666 41.1087 94.0892C42.012 93.5468 41.646 92.5373 40.5343 92.6911C39.0875 92.7609 37.4937 93.4034 36.5761 94.4632C36.3491 94.7487 36.234 95.0659 36.2127 95.3793C35.8701 95.9994 35.7015 96.6821 35.5637 97.3651C35.083 99.3662 34.6079 101.367 34.1147 103.368C32.7222 109.384 31.5469 115.452 30.2096 121.498C29.3048 126.153 28.5625 130.829 27.6579 135.478C26.4534 141.691 25.1814 147.884 23.8521 154.094C23.0518 157.687 22.4885 161.309 21.7133 164.902C21.2021 167.315 20.698 169.724 20.2369 172.144C20.1977 172.434 20.073 172.861 20.0049 173.284C19.8816 173.676 19.7879 174.116 20.0367 174.39C20.0665 174.443 20.1029 174.491 20.1515 174.538C20.3899 174.736 20.6955 174.778 21.0263 174.803C21.5384 174.833 22.0568 174.869 22.5692 174.887C23.6686 174.937 24.767 175.027 25.8684 175.007C26.5571 174.988 27.2461 174.941 27.9339 174.958C31.558 175.097 35.175 175.038 38.8059 175.166C44.0484 175.373 49.286 175.533 54.5217 175.752C57.4645 175.875 60.4043 175.875 63.3472 175.998C65.0539 176.039 66.7604 176.073 68.4693 176.039C68.7513 176.022 69.262 176.087 69.5917 175.932C70.0555 175.903 70.5063 175.436 70.537 175.001C70.5526 174.891 70.5681 174.786 70.5836 174.682C70.7323 173.604 70.9302 172.538 71.1041 171.461C71.3301 170.07 71.463 168.671 71.7014 167.287C72.9987 159.523 73.7975 151.696 75.0637 143.926C75.7465 139.155 76.4791 134.391 77.0243 129.606C77.3543 126.496 77.8844 123.402 78.233 120.293C78.7355 115.704 79.4746 111.144 79.9148 106.548Z" fill="#0FFF80"/>
</g>
</g>
<g id="Group_101">
<g id="Group_102">
<path id="Vector_48" d="M79.7741 100.343C79.7911 100.401 79.833 100.473 79.9078 100.48L79.9018 100.48C80.2334 100.476 80.3037 99.0644 80.3742 98.7751C80.5602 97.9363 80.6589 97.0836 80.5324 96.2312C80.4827 95.7704 79.9811 94.8917 79.3841 94.9996C79.0003 95.0836 78.857 95.5103 78.9106 95.8316C78.9303 96.0298 79.1368 96.2498 79.2333 96.3861C79.6564 97.1524 79.5429 98.0693 79.6074 98.9024C79.6253 99.3858 79.6371 99.8683 79.7741 100.343Z" fill="#0FFF80"/>
</g>
</g>
<g id="Group_103">
<g id="Group_104">
<path id="Vector_49" d="M41.9381 107.749C44.4765 108.014 46.4761 105.613 46.2564 103.38C46.2382 101.547 44.9787 100.272 43.0053 100.161C41.9208 100.245 40.8732 100.814 40.1518 101.558C38.1851 103.46 38.8849 107.315 41.9381 107.749Z" fill="#FFFBED"/>
</g>
</g>
<g id="Group_105">
<g id="Group_106">
<path id="Vector_50" d="M60.0142 97.898C62.5013 97.9809 64.997 98 67.4839 98.0886L67.5026 98.0891C68.7704 98.1546 70.0457 98.1851 71.3225 98.1632C72.392 98.1655 73.562 98.1584 74.7727 98.0304C75.7138 97.9251 76.6441 97.7674 77.5694 97.5567C78.0232 97.4337 78.5264 97.3469 78.9154 97.0713C79.3378 96.7207 79.1011 96.2437 78.6682 96.0647C78.3226 95.8994 77.9378 96.0068 77.5858 96.0739C77.328 96.1201 77.0638 96.1659 76.8 96.212C74.8826 96.5558 72.9342 96.6544 70.9897 96.6252C69.3186 96.6606 67.5081 96.5418 65.814 96.5012C61.5311 96.4276 57.2632 96.2673 52.9917 96.0197C48.7315 95.8014 44.4583 95.6114 40.2559 94.8885C39.8452 94.8206 39.4405 94.7528 39.0361 94.6733C38.6757 94.5892 38.2759 94.5619 37.9575 94.7637C37.1872 95.2512 37.8276 96.0691 38.5508 96.1506C42.0408 96.8391 45.5985 97.122 49.1513 97.3585C52.7679 97.5496 56.3904 97.747 60.0142 97.898Z" fill="#004449"/>
</g>
</g>
<g id="Group_107">
<g id="Group_108">
<path id="Vector_51" d="M19.4871 172.347C19.4179 172.81 19.2285 173.335 19.5928 173.734L19.6052 173.74C19.8782 174.049 20.3798 174.003 20.6623 173.736C20.9059 173.527 21.0327 173.239 21.0849 172.938C21.1735 172.451 21.2496 171.958 21.3256 171.471C22.0035 167.55 22.7902 163.759 23.6254 159.8C25.2021 152.335 26.4984 144.844 28.0316 137.366C29.2952 131.492 30.4153 125.598 31.6609 119.7C32.8689 114.25 34.27 108.833 35.1234 103.322C35.2817 102.355 35.4776 101.394 35.5671 100.419C35.5798 100.181 35.6303 99.9373 35.5678 99.703C35.4896 99.3638 35.1082 99.1279 34.7544 99.259C34.3257 99.3827 34.1249 99.8661 34.076 100.266C33.9176 101.019 33.784 101.772 33.6381 102.524C33.2063 104.783 32.7957 107.198 32.2939 109.507C31.5279 113.223 30.5253 116.899 29.7778 120.621C29.0099 124.185 28.3608 127.741 27.6114 131.312C26.8421 134.929 26.0601 138.534 25.3902 142.166C24.0416 149.305 22.6197 156.588 21.1083 163.73C20.6595 166.162 20.0962 168.639 19.6909 171.084C19.6228 171.507 19.5553 171.924 19.4871 172.347Z" fill="#004449"/>
</g>
</g>
<g id="Group_109">
<g id="Group_110">
<path id="Vector_52" d="M69.8821 172.682C69.8815 173.613 69.0832 175.112 69.9649 175.802L69.9771 175.802C71.1295 176.196 71.3263 174.746 71.3786 173.986C71.7018 171.795 72.0941 169.617 72.4299 167.426C73.0067 163.537 73.6587 159.662 74.2229 155.772C75.657 146.453 77.0351 137.121 78.0638 127.758C78.2635 125.75 78.6253 123.764 78.9244 121.77C78.9153 120.973 79.4118 119.984 78.994 119.258C77.2772 118.234 77.4424 121.513 77.1726 122.449C76.7654 124.725 76.421 127.009 76.2132 129.307C75.8512 133.335 75.1221 137.319 74.6104 141.332C73.6241 149.382 72.2643 157.383 71.041 165.404C70.6986 167.833 70.2683 170.254 69.8821 172.682Z" fill="#004449"/>
</g>
</g>
<g id="Group_111">
<g id="Group_112">
<path id="Vector_53" d="M41.7682 103.26C41.439 103.851 41.7901 104.726 42.5107 104.901L42.5106 104.907C44.0819 105.311 44.8597 102.764 43.2175 102.428C42.5828 102.314 42.0261 102.754 41.7682 103.26Z" fill="#004449"/>
</g>
</g>
</g>
</g>
</svg>
