<svg width="151" height="154" viewBox="0 0 151 154" fill="none" xmlns="http://www.w3.org/2000/svg">
<g id="Figure &#226;&#134;&#146; SVG">
<g id="Clip path group">
<mask id="mask0_70_735" style="mask-type:luminance" maskUnits="userSpaceOnUse" x="0" y="1" width="151" height="151">
<g id="__lottie_element_129">
<path id="Vector" d="M150.02 1.69495H0V151.715H150.02V1.69495Z" fill="white"/>
</g>
</mask>
<g mask="url(#mask0_70_735)">
<g id="Group">
<g id="Group_2">
<g id="Group_3">
<path id="Vector_2" d="M70.39 107.72C71.0987 109.666 70.4348 110.609 68.7547 111.601C67.0379 112.576 65.2591 113.436 63.5334 114.396C60.1205 116.285 40.9555 125.395 39.5739 126.007C38.0315 126.691 36.4853 127.364 34.9121 128.007C33.1191 128.731 31.3339 129.528 29.4365 129.938C28.9174 130.05 28.4067 130.237 27.8691 130.219C27.3757 130.196 26.8707 130.043 26.4785 129.737C26.1088 129.389 25.7749 129.011 25.4699 128.612C25.295 128.405 25.1322 128.18 24.9778 127.952C24.2364 126.869 23.6449 125.694 23.1329 124.487C22.4351 122.858 21.6841 121.254 20.983 119.627C20.2987 117.936 19.6002 116.252 18.8684 114.581C16.6083 109.429 14.4046 104.252 12.1477 99.0982C11.0763 96.8099 10.1997 94.4389 9.18655 92.1256V92.1244C9.17053 92.0955 9.15515 92.0667 9.13913 92.0385C8.59317 91.0068 8.06772 89.9457 7.5775 88.8896C6.44009 86.436 8.15423 85.5626 10.0081 84.4322C10.0843 84.3835 48.6867 65.6248 49.4236 65.6651C49.5608 65.6562 49.6992 65.6581 49.8376 65.6722C50.9981 65.8676 51.7119 66.9224 52.2848 67.8567C52.891 68.7416 70.2317 107.309 70.39 107.72Z" fill="#D5FFBF"/>
</g>
<g id="Group_4">
<path id="Vector_3" d="M12.8607 99.508C12.4519 99.3984 12.2058 99.005 12.0469 98.6397C11.8746 98.2572 11.6714 97.89 11.4882 97.5126C10.7795 95.9997 10.1227 94.4625 9.41652 92.9483C8.80393 91.7641 8.23491 90.5652 7.71524 89.3381C7.47879 88.7665 7.18659 88.186 7.20325 87.5529C7.17955 87.0762 7.31731 86.6417 7.72165 86.3598C7.95938 86.1342 8.24196 85.908 8.56428 85.835C8.74434 85.8702 8.77445 86.0868 8.67129 86.2175C8.54762 86.4046 8.41369 86.5866 8.3054 86.7833C8.19711 86.9634 8.02922 87.112 7.95233 87.3068C7.79918 88.0841 8.26567 88.7903 8.54121 89.4861C8.86032 90.1987 9.15123 90.9292 9.52225 91.6174C10.4277 93.3475 11.1524 95.1641 11.9835 96.9301C12.3103 97.767 13.035 98.5615 12.8614 99.508H12.8607Z" fill="#B7E8FF"/>
</g>
<g id="Group_5">
<path id="Vector_4" d="M26.8112 131.41C25.206 130.963 24.3941 129.214 23.6822 127.845C22.4486 125.244 14.7936 107.788 12.2625 101.636C11.2519 98.7701 9.98956 96.0076 8.89508 93.174C8.61953 92.4582 8.36834 91.7341 8.12868 91.0055C7.93003 90.3179 7.02522 88.193 8.10241 88.2373C8.8515 88.4494 9.89601 91.3374 10.3471 92.134C11.3346 94.2441 12.3855 96.3293 13.2993 98.4727C14.3476 101.203 15.5716 103.857 16.7135 106.547C19.4926 112.931 22.0975 119.394 25.1586 125.65C25.5334 126.395 25.857 127.186 26.3184 127.884C26.3242 127.894 26.3306 127.903 26.3364 127.914C26.4158 128.042 26.5113 128.162 26.6029 128.284C26.6734 128.385 26.7458 128.485 26.8182 128.585C26.9381 128.75 27.0771 128.896 27.2495 128.994H27.2482C27.2482 128.995 27.2489 128.993 27.2495 128.994C27.2527 128.995 27.2553 128.997 27.2578 128.998C27.2937 129.019 27.3315 129.038 27.3706 129.053C27.3719 129.054 27.3725 129.054 27.3732 129.054L27.3725 129.054C27.3777 129.056 27.3834 129.059 27.3898 129.061C27.5513 129.132 27.7224 129.188 27.8986 129.194C27.9211 129.195 27.9454 129.195 27.9685 129.195C28.1748 129.195 28.3844 129.165 28.5862 129.126C28.7688 129.089 28.9521 129.057 29.1315 129.009C29.409 128.933 29.6833 128.855 29.9479 128.742C30.1889 128.638 30.4285 128.536 30.663 128.42C30.8604 128.323 31.0623 128.235 31.2628 128.147C31.8158 128.802 31.8062 129.997 30.9943 130.416C29.9287 130.868 28.6939 131.483 27.4949 131.483C27.2655 131.483 27.0368 131.46 26.8112 131.41Z" fill="#004448"/>
</g>
<g id="Group_6">
<path id="Vector_5" d="M39.9846 126.355C39.9859 126.355 39.9865 126.353 39.9878 126.352C39.9859 126.353 39.9846 126.356 39.9827 126.357L39.9846 126.355Z" fill="#004448"/>
</g>
<g id="Group_7">
<path id="Vector_6" d="M27.7378 130.931C26.9989 130.898 26.2351 130.647 25.7532 130.062C25.6026 129.914 25.4725 129.749 25.3431 129.582C25.0945 129.317 24.7529 128.974 24.8273 128.582C24.9016 128.319 25.1464 128.139 25.4155 128.108C25.6898 128.076 25.9224 128.161 26.1377 128.294C26.626 128.595 27.0258 129.147 27.6218 129.166C27.6455 129.166 27.6692 129.166 27.6923 129.166C27.7602 129.182 27.8294 129.192 27.8986 129.195C27.9217 129.195 27.9441 129.195 27.9678 129.195C28.1748 129.195 28.3837 129.165 28.5862 129.127C28.7688 129.09 28.9527 129.058 29.1321 129.009C29.409 128.934 29.6839 128.856 29.9479 128.743C30.1895 128.639 31.2795 128.14 31.2795 128.14C31.3154 128.129 31.5255 128.03 31.5979 127.996C31.7126 127.949 64.3261 112.402 65.6731 111.798C66.3921 111.479 67.1181 111.175 67.8666 110.934C68.2889 110.818 69.054 110.903 69.0514 111.488C69.0033 112.142 68.2318 112.277 67.7826 112.589C66.0076 113.655 64.3159 114.861 62.4832 115.83C58.4334 117.984 54.0573 119.893 50.0062 121.775C47.1482 123.165 44.2512 124.474 41.3836 125.846C39.2158 126.82 37.0582 127.815 34.875 128.755C32.6783 129.652 30.4765 130.938 28.0511 130.938C27.9473 130.938 27.8429 130.936 27.7378 130.931Z" fill="#004448"/>
</g>
</g>
<g id="Mask group">
<mask id="mask1_70_735" style="mask-type:alpha" maskUnits="userSpaceOnUse" x="22" y="74" width="30" height="45">
<g id="Group_8">
<g id="__lottie_element_139">
<g id="Group_9">
<g id="Group_10">
<path id="Vector_7" d="M26.2534 104.386L39.2905 113.852L47.1485 78.4908" stroke="#FF0000" stroke-width="8.32232" stroke-linecap="round" stroke-linejoin="round"/>
</g>
</g>
</g>
</g>
</mask>
<g mask="url(#mask1_70_735)">
<g id="Group_11">
<g id="Group_12">
<g id="Group_13">
<path id="Vector_8" d="M37.1305 113.518C33.9362 112.266 30.9137 110.318 28.4268 107.959C27.3778 106.63 28.5152 105.676 29.782 106.749C32.1677 108.177 34.4995 109.73 37.0921 110.769C38.9395 111.704 39.4156 107.332 39.9077 106.184C41.4039 100.443 42.7733 94.6709 44.1785 88.9084C44.504 87.5672 44.6668 86.1703 45.1326 84.8714C45.7805 83.6808 47.3459 84.7381 47.2286 85.8435C46.6628 89.1153 45.7702 92.3289 45.0372 95.5674C43.9927 99.3038 43.2391 103.115 42.1979 106.852C41.3443 109.34 40.8106 114.39 37.1305 113.518Z" fill="#004448"/>
</g>
</g>
</g>
</g>
</g>
<g id="Group_14">
<g id="Group_15">
<path id="Vector_9" d="M90.9604 91.3132C90.7071 91.0815 90.766 90.6994 90.7508 90.3899C90.7134 89.9755 90.7504 89.3807 90.7965 89.0114C90.8847 87.6801 91.6695 86.5547 92.4489 85.5228C93.3285 84.3572 94.4407 83.3838 95.6077 82.5132C97.4007 81.0708 99.372 79.8796 101.322 78.6635C102.551 77.9274 103.762 77.1599 104.992 76.4269C106.256 75.6253 107.468 74.7443 108.75 73.9702C110.635 72.7851 112.585 71.7106 114.437 70.4749C116.353 69.1981 118.438 67.613 120.217 66.2917C120.78 65.8578 121.357 65.4425 121.921 65.0099C122.933 64.2078 123.914 63.3207 125.141 62.8594C126.247 62.4428 127.395 62.0479 128.588 62.025C129.848 61.9424 131.34 61.873 132.298 62.8385C133.084 63.6002 133.231 64.7877 132.932 65.8038C132.325 67.8489 130.446 69.1109 128.837 70.3482C127.724 71.2307 126.577 72.064 125.375 72.8218C124.116 73.751 122.751 74.5145 121.423 75.3369C118.744 77.058 116.223 79.0156 113.494 80.66C110.775 82.2813 108.234 84.1845 105.497 85.7751C104.714 86.2034 103.979 86.7064 103.246 87.2121C102.045 88.0019 100.766 88.6646 99.4798 89.301C98.8305 89.6115 98.1611 89.8709 97.4633 90.047C96.8456 90.2491 96.2338 90.4781 95.5811 90.5445C94.0991 90.7786 92.6844 89.9441 92.5955 88.3578C92.2892 88.8882 92.1298 89.5001 92.0577 90.1065C92.0228 90.5783 91.9792 91.1199 91.5232 91.3747C91.3461 91.4727 91.1115 91.4479 90.9604 91.3132ZM103.082 82.3374C103.643 82.6814 103.795 83.405 103.641 84.0124C106.109 82.6246 108.416 80.9875 110.804 79.4693C112.111 78.6336 113.446 77.8406 114.739 76.9819C116.703 75.6087 118.663 74.2266 120.671 72.9199C122.921 71.5726 125.119 70.1371 127.219 68.5655C128.225 67.7045 130.343 66.4506 130.739 65.2189C130.473 64.4528 128.026 64.7703 127.352 64.8906C126.242 65.1746 125.113 65.5227 124.214 66.2603C123.071 67.2121 121.858 68.0731 120.671 68.9693C117.659 71.1914 114.65 73.4424 111.359 75.2438C109.438 76.374 107.612 77.6582 105.736 78.8587C104.642 79.5072 103.572 80.1954 102.481 80.8471C102.585 81.0242 102.638 81.2304 102.647 81.4431C102.791 81.6765 102.846 81.9602 102.838 82.2319C102.925 82.2547 103.01 82.2845 103.082 82.3374Z" fill="#004448"/>
</g>
<g id="Group_16">
<path id="Vector_10" d="M124.495 70.0265C124.494 70.0252 124.494 70.0246 124.494 70.0226C124.429 69.8281 124.401 69.6314 124.408 69.436C123.665 69.7302 123.02 68.9821 123.086 68.268C121.761 66.1146 123.846 65.0518 125.683 64.5948C126.547 64.2957 127.6 63.3884 128.499 63.9799C128.902 63.9022 129.328 64.1211 129.538 64.4645C130.246 64.2281 131.014 64.6605 131.075 65.4279C131.38 65.9933 131.207 66.6821 130.847 67.1774C130.85 68.1854 129.906 68.6552 129.12 69.038C128.278 69.4735 127.42 69.8809 126.51 70.159C125.873 70.6585 124.879 71.0049 124.495 70.0265Z" fill="#004448"/>
</g>
<g id="Group_17">
<path id="Vector_11" d="M122.664 64.8489C121.548 64.8291 120.825 63.7488 121.853 62.9525C122.57 62.5001 123.441 62.3817 124.232 62.0988C126.093 61.5649 128.093 61.2226 129.99 61.6369C130.604 61.768 131.096 62.0636 131.646 62.3154C131.851 62.4409 132.158 62.5052 132.249 62.7503C132.295 63.1743 131.765 63.1371 131.488 63.0573C131.24 63.0134 130.99 62.988 130.739 62.9575C130.417 62.908 129.867 63.024 129.642 63.0805C128.6 63.2758 127.658 63.5317 126.631 63.748C125.784 63.9625 124.956 64.2416 124.125 64.5111C123.647 64.6602 123.175 64.8689 122.664 64.8489Z" fill="#004448"/>
</g>
</g>
<g id="Group_18">
<g id="Group_19">
<path id="Vector_12" d="M125.106 50.8305C125.039 51.7139 124.056 51.6548 123.683 50.9969C123.441 50.5612 123.46 50.0381 123.309 49.5702C123.073 48.6763 122.859 47.7757 122.638 46.8831C122.304 47.0263 121.986 47.2045 121.652 47.3477C119.987 47.9213 118.387 48.6564 116.754 49.3099C115.611 49.8276 114.405 50.1849 113.255 50.6825C112.438 51.0846 111.56 51.3165 110.692 51.5782C110.106 51.7761 109.55 52.0554 108.982 52.2989C107.51 52.8607 106.011 53.3604 104.496 53.7926C103.646 54.0141 102.835 54.3654 102.007 54.6583C101.954 54.686 101.9 54.7092 101.847 54.7282C102.095 55.9587 102.143 57.2383 101.616 58.3984C101.394 58.9786 101.084 59.5207 100.666 59.9824C100.576 60.0918 100.47 60.1881 100.332 60.2338C99.8579 60.3896 99.4127 60.0009 99.2616 59.5703C99.0323 58.9533 99.366 58.5774 99.7417 58.1386C100.304 57.2799 100.539 56.2341 100.317 55.2249C99.9911 53.4925 99.3614 51.833 98.7472 50.1852C97.8945 47.9218 96.8591 45.755 95.4547 43.7834C94.6134 42.6353 93.5606 41.5219 92.1478 41.1322C92.1276 41.1259 92.108 41.1198 92.0875 41.1148C92.084 41.1152 92.0808 41.115 92.0769 41.1146C90.8608 41.0795 89.6623 41.3179 88.4518 41.3927C87.7208 41.4424 86.9912 41.509 86.3441 41.5751C85.1737 41.6876 84.0055 41.8306 82.8374 41.959C80.8549 42.1672 78.8675 42.3109 76.8767 42.4144C75.2215 42.5395 73.5447 42.6133 71.8819 42.5201C71.2482 42.574 70.5732 42.4808 69.972 42.4506C68.7037 42.3493 67.426 42.145 66.2799 41.5669C65.6754 41.2692 65.1011 40.8761 64.726 40.3059C64.1174 39.4613 63.9041 38.1767 64.7287 37.3998C65.5023 36.6221 66.6331 36.3857 67.6351 36.0306C69.921 35.2507 107.901 28.0774 109.683 28.3146C110.08 28.3594 110.476 28.407 110.869 28.4721C111.435 28.4481 112.016 28.6224 112.557 28.7624C115.13 29.5055 116.857 31.7506 118.219 33.9265C119.184 35.4672 120.111 37.0771 120.962 38.665C121.675 39.9069 122.221 41.2262 122.727 42.5622C122.741 42.5866 122.753 42.6087 122.766 42.6287C123.372 43.5067 123.625 44.5623 123.943 45.5686C124.286 46.824 124.613 48.0834 124.844 49.365C124.936 49.851 125.08 50.3392 125.106 50.8305Z" fill="#C16B27"/>
</g>
<g id="Group_20">
<path id="Vector_13" d="M47.4362 60.4004C47.5458 59.9986 47.6549 59.5959 47.7644 59.1941C48.3608 58.0324 49.3389 57.2699 50.4498 56.6551C54.0373 54.6701 57.8528 53.1861 61.6271 51.6157C71.3499 47.5689 81.2169 43.9103 91.2613 40.734C91.7653 40.5745 92.0116 40.6166 92.1101 41.1509C92.1518 41.3758 92.2511 41.5893 92.2977 41.8129C93.0986 45.6181 94.2252 49.3291 95.5267 52.9893C95.6846 53.4337 95.6771 53.6343 95.1802 53.8163C83.9379 57.9278 72.4541 61.2135 60.7779 63.8326C58.7642 64.2841 56.7312 64.6751 54.6812 64.9618C53.4478 65.134 52.2294 65.0491 51.0221 64.8523C48.5861 64.4561 47.3433 62.8795 47.4362 60.4004Z" fill="#0FFD7E"/>
</g>
<g id="Group_21">
<path id="Vector_14" d="M141.432 31.3036C141.185 32.1433 140.574 32.8557 139.852 33.4801C138.63 34.537 137.285 35.4156 135.871 36.1927C129.682 39.5939 123.211 42.3846 116.71 45.1206C110.567 47.7061 104.571 50.634 98.3183 52.9657C97.6092 53.2301 97.4242 53.1033 97.1887 52.4221C96.0112 49.0208 94.9076 45.5974 93.9465 42.1295C93.7821 41.5378 93.129 40.9002 93.464 40.4163C93.7454 40.0107 94.5575 39.9655 95.1398 39.7752C105.407 36.4291 115.749 33.3242 126.153 30.436C129.536 29.4973 132.957 28.6018 136.488 28.3256C137.79 28.2242 139.093 28.1981 140.311 28.806C141.307 29.3028 141.731 30.1856 141.432 31.3036Z" fill="#0FFD7E"/>
</g>
<g id="Group_22">
<path id="Vector_15" d="M103.402 85.5252C103.262 85.4173 103.154 85.2927 103.073 85.1553C102.874 85.0246 102.709 84.8314 102.633 84.6097C102.397 83.6585 102.555 82.6526 102.492 81.6811C102.492 81.0283 102.548 80.3698 102.398 79.7277C102.305 79.2547 102.267 78.762 102.047 78.3251C101.84 77.8839 101.544 77.5032 101.184 77.1778C99.9197 75.9395 98.427 74.9986 96.903 74.1181C95.4718 73.2413 94.0341 72.3734 92.5699 71.5533C89.8486 69.9457 87.0834 67.9816 84.6004 66.1054C82.4132 64.4749 80.257 62.7999 78.2215 60.9806C76.6109 59.5179 75.0306 58.0203 73.4225 56.5556C72.5408 55.7566 71.6527 54.9493 70.9408 53.9904C70.8336 53.8585 70.7313 53.7113 70.6384 53.554C70.632 53.5436 70.6254 53.5338 70.6193 53.5221C70.4733 53.2851 70.3496 53.0323 70.2593 52.7594C69.9818 51.826 70.2103 50.747 70.7938 49.9741C71.6066 49.0397 72.8647 48.4914 74.1001 48.4878C75.1037 48.4909 76.0916 48.7554 76.9924 49.1888C79.3784 50.2818 81.6377 51.627 83.9298 52.8988C86.5152 54.3147 89.0841 55.7713 91.7867 56.9576C93.6341 57.8462 95.6197 58.6798 97.6957 58.7254C98.5148 58.6549 99.4376 58.409 99.9837 57.7593C100.675 56.7514 100.653 55.503 100.294 54.3676C100.5 54.2835 100.704 54.1951 100.911 54.1125C101.406 53.9147 101.904 53.7257 102.401 53.5338C102.927 53.3292 103.447 53.1098 103.966 52.8873C103.95 52.8936 103.934 52.9012 103.919 52.9081C104.19 52.7923 104.461 52.6736 104.734 52.5614C105.247 52.35 105.764 52.1489 106.278 51.9417C106.774 51.7421 107.273 51.5567 107.768 51.3582C108.286 51.1497 108.805 50.9406 109.32 50.725C109.831 50.5115 110.336 50.2919 110.848 50.085C111.285 49.9124 111.723 49.7415 112.162 49.5727C112.606 49.4018 113.05 49.2332 113.489 49.0546C113.483 49.057 113.477 49.0593 113.47 49.0619C113.546 49.0319 113.623 49.0011 113.699 48.9697C113.692 48.9729 113.686 48.9759 113.679 48.9793C113.883 48.8967 114.087 48.8121 114.291 48.7288C114.292 48.7283 114.292 48.7283 114.292 48.7283C114.291 48.7281 114.291 48.7288 114.291 48.7288C114.291 48.7288 114.291 48.7288 114.29 48.7286C114.29 48.7292 114.289 48.729 114.289 48.7297C114.289 48.7301 114.287 48.7298 114.286 48.7302C114.288 48.7299 114.289 48.7301 114.289 48.7297C114.289 48.729 114.29 48.7292 114.29 48.7286C114.291 48.7288 114.291 48.7288 114.292 48.7283C114.293 48.728 114.294 48.7278 114.297 48.727C114.297 48.7266 114.298 48.7255 114.299 48.7251C114.312 48.7199 114.325 48.7148 114.337 48.7097C114.365 48.6987 114.392 48.6875 114.419 48.6764C114.423 48.6747 114.426 48.6736 114.429 48.6718C114.431 48.6711 114.433 48.671 114.435 48.6696C114.453 48.663 114.469 48.6555 114.486 48.6489C114.48 48.6513 114.474 48.6538 114.468 48.6561C114.482 48.6511 114.495 48.6454 114.507 48.6401C114.507 48.6403 114.507 48.6403 114.508 48.6404C114.508 48.6398 114.509 48.6394 114.51 48.6395C114.511 48.6386 114.512 48.639 114.514 48.6381C114.569 48.6161 114.625 48.5929 114.679 48.5707C114.682 48.5694 114.685 48.5688 114.687 48.5681C114.684 48.5687 114.682 48.5694 114.679 48.5707C114.678 48.571 114.677 48.5721 114.676 48.5724C114.68 48.5701 114.683 48.5685 114.688 48.5671L114.687 48.5681C114.688 48.5677 114.689 48.5668 114.69 48.5663C114.689 48.5668 114.688 48.5671 114.688 48.5671C114.7 48.5618 114.713 48.5562 114.725 48.5513C114.713 48.5568 114.702 48.5616 114.69 48.5663C115.476 48.2513 116.267 47.9524 117.055 47.6433C118.057 47.249 119.059 46.8542 120.067 46.4748C120.564 46.2882 121.062 46.1037 121.561 45.9238C122.063 45.7426 122.567 45.5658 123.068 45.3815C123.196 45.3344 123.324 45.2887 123.452 45.243C123.553 45.5175 123.651 45.7932 123.761 46.0648C124.204 47.1456 124.612 48.2393 124.908 49.3711C125.992 53.2046 126.968 57.0696 127.723 60.9823C128.46 64.4855 128.92 68.0337 129.545 71.5564C129.75 72.7684 129.95 73.9822 130.159 75.1944C130.159 75.1971 130.159 75.2005 130.16 75.2033C130.161 75.2116 130.161 75.2197 130.162 75.228C130.175 75.3492 130.196 75.4687 130.207 75.59C130.205 75.5723 130.204 75.5545 130.203 75.5363C130.219 75.7288 130.257 75.9147 130.294 76.1025C130.323 76.2529 130.348 76.404 130.369 76.5561L130.37 76.5575C130.37 76.5589 130.37 76.5595 130.37 76.561L130.37 76.5622C130.37 76.563 130.37 76.5648 130.37 76.5662C130.371 76.5692 130.372 76.5726 130.372 76.5767C130.372 76.5789 130.373 76.5817 130.373 76.5843C130.373 76.585 130.373 76.585 130.373 76.5856C130.373 76.587 130.373 76.5884 130.374 76.5892C130.373 76.5898 130.373 76.5898 130.374 76.5906C130.374 76.5912 130.374 76.5912 130.374 76.5918L130.374 76.5932C130.374 76.5938 130.374 76.5946 130.374 76.5946C130.374 76.5967 130.375 76.5988 130.375 76.6009C130.375 76.6021 130.375 76.6029 130.376 76.6037C130.376 76.6045 130.376 76.6051 130.376 76.6051C130.376 76.6051 130.376 76.6039 130.376 76.6037C130.376 76.6045 130.376 76.6057 130.376 76.6065C130.376 76.6079 130.376 76.6091 130.376 76.6098C130.376 76.6098 130.376 76.6105 130.377 76.6113C130.377 76.6119 130.377 76.6134 130.377 76.614L130.376 76.6126C130.376 76.6132 130.377 76.614 130.377 76.6154C130.377 76.6162 130.377 76.6168 130.377 76.6168C130.378 76.6176 130.378 76.6182 130.377 76.6188C130.378 76.619 130.378 76.6202 130.378 76.6202C130.378 76.6216 130.378 76.623 130.379 76.6252C130.379 76.6258 130.379 76.6266 130.379 76.6272C130.379 76.6279 130.379 76.6286 130.379 76.6293C130.379 76.6299 130.38 76.63 130.379 76.6307C130.379 76.6307 130.38 76.6315 130.38 76.6321C130.38 76.6327 130.379 76.6333 130.38 76.6341C130.38 76.6347 130.38 76.6349 130.38 76.6355C130.38 76.6361 130.38 76.6361 130.38 76.6369C130.38 76.6375 130.38 76.6381 130.381 76.6383L130.38 76.6396C130.381 76.6403 130.381 76.641 130.381 76.6411C130.381 76.6438 130.381 76.6464 130.382 76.6486C130.382 76.652 130.383 76.6542 130.383 76.6577C130.383 76.6603 130.383 76.6617 130.384 76.6639C130.384 76.6645 130.384 76.6659 130.384 76.6665C130.384 76.6679 130.385 76.6687 130.385 76.6695C130.386 76.6709 130.386 76.6723 130.385 76.6742C130.4 76.7747 130.42 76.8731 130.436 76.9727C130.436 76.9733 130.436 76.9739 130.436 76.9747C130.437 76.9755 130.437 76.9775 130.437 76.9789C130.438 76.9831 130.438 76.9865 130.439 76.9908C130.439 76.9968 130.441 77.0026 130.442 77.0089C130.443 77.0178 130.445 77.0282 130.446 77.0373C130.474 77.217 130.501 77.3974 130.528 77.577C130.388 78.0103 130.083 78.3982 129.631 78.7766C129.285 79.0622 128.862 79.2293 128.441 79.3712C127.529 79.6864 126.588 79.9129 125.656 80.1614C123.948 80.557 122.24 80.9486 120.563 81.4652C117.851 82.143 115.193 82.9942 112.549 83.8973C110.327 84.4862 108.207 85.5062 105.901 85.7367C105.241 85.7852 104.515 85.8962 103.868 85.7176C103.707 85.6731 103.551 85.6109 103.402 85.5252Z" fill="#C16B27"/>
</g>
<g id="Group_23">
<path id="Vector_16" d="M44.7007 64.4969C44.2067 64.3021 44.0011 63.6884 44.2797 63.2354C44.4739 62.8782 44.8427 62.6569 45.2216 62.5414C46.0155 62.2539 46.8215 61.997 47.6439 61.8065C48.1514 61.7065 48.9273 61.7803 49.0433 62.4033C49.1154 63.0527 48.3917 63.4639 47.8685 63.6572C47.306 63.8816 46.7367 64.0875 46.1851 64.3401C45.7843 64.5353 45.3179 64.6838 44.8799 64.563C44.8194 64.5463 44.7596 64.5244 44.7007 64.4969Z" fill="#004448"/>
</g>
<g id="Group_24">
<path id="Vector_17" d="M92.5187 58.4444C87.4426 56.0023 82.6983 52.9213 77.6582 50.4041C76.471 49.802 75.1046 49.4975 73.7947 49.3953C73.3971 49.3787 72.9491 49.5808 72.5795 49.4124C71.5873 48.6069 73.7623 48.279 74.283 48.2877C79.1846 48.2301 83.4657 51.1421 87.6628 53.3271C89.805 54.4798 91.8836 55.7591 94.1325 56.7006C95.0791 57.1027 96.0447 57.5759 97.0916 57.6074C97.8569 57.568 98.6175 57.141 99.0181 56.4864C99.3057 56.0632 99.3557 55.4602 99.8174 55.1841C100.547 54.7916 101.648 55.3847 101.605 56.2455C101.561 57.6501 100.729 59.0544 99.397 59.5849C98.1401 60.1002 96.8476 60.0096 95.59 59.6626C94.5269 59.3693 93.4885 58.8927 92.5187 58.4444Z" fill="#004448"/>
</g>
<g id="Group_25">
<path id="Vector_18" d="M68.1981 42.9696C67.654 42.7563 67.6343 42.0423 68.2038 41.8092C68.4585 41.698 68.729 41.7055 68.9992 41.6996C69.8991 41.676 70.7973 41.5888 71.6948 41.5233C74.4625 41.3077 77.2346 41.1551 79.9998 40.9169C85.3538 40.3187 90.9182 40.1023 96.0881 38.627C99.5663 37.72 102.949 36.4855 106.368 35.3867C108.286 34.7686 110.181 34.0762 112.139 33.5913C113.255 33.3327 114.26 33.0763 115.371 32.885C115.74 32.8152 116.109 32.7502 116.475 32.6664C116.729 32.6094 117.021 32.5193 117.283 32.5756C117.91 32.7646 117.528 33.2694 117.076 33.4253C116.217 33.8063 115.474 34.0985 114.644 34.4221C110.757 36.1457 106.807 37.5613 102.761 38.8253C99.8872 39.7276 97.0016 40.6239 94.0661 41.2745C88.553 42.3121 82.9452 42.6761 77.3501 42.9366C75.2066 43.0319 73.0621 43.1595 70.9155 43.0785C70.4068 43.0671 69.8969 43.0574 69.3872 43.0617C69.0182 43.0403 68.6342 43.0925 68.2778 42.9942C68.2512 42.9869 68.2242 42.9788 68.1981 42.9696Z" fill="#004448"/>
</g>
<g id="Group_26">
<path id="Vector_19" d="M51.5867 65.7955C51.2714 65.6759 50.8863 65.597 50.6933 65.2944C50.3925 64.7102 51.2141 64.4643 51.6621 64.5055C52.9173 64.5553 54.2187 64.4304 55.4317 64.2572C57.937 63.9035 60.4331 63.4455 62.8973 62.8716C66.9649 61.7723 71.0555 60.7319 75.0005 59.2385C74.9937 59.2413 74.9871 59.2435 74.9813 59.2452C75.2121 59.158 75.4273 59.0864 75.6812 59.06C76.627 58.9374 77.5773 59.7985 76.8947 60.7017C76.4929 61.2402 75.7767 61.3425 75.1908 61.5869C73.3544 62.2389 71.505 62.866 69.6218 63.3695C66.1774 64.2844 62.7618 65.3383 59.2183 65.8151C56.8038 66.1267 54.2489 66.5353 51.8633 65.8771C51.7706 65.8516 51.6785 65.8242 51.5867 65.7955Z" fill="#004448"/>
</g>
<g id="Group_27">
<path id="Vector_20" d="M93.66 54.9046C93.5314 54.6936 93.905 54.5202 94.0331 54.6991C94.1617 54.9101 93.7881 55.0835 93.66 54.9046Z" fill="#004448"/>
</g>
<g id="Group_28">
<path id="Vector_21" d="M93.5241 55.113C92.9598 54.7705 93.799 54.3938 94.1032 54.2643C94.5635 54.0417 95.0223 53.8146 95.4805 53.5874C98.3747 52.1709 101.203 50.9238 104.125 49.6095C112.01 46.2175 119.82 42.6547 127.737 39.3385C129.774 38.4878 131.912 37.4797 133.856 36.5343C134.842 36.0656 135.839 35.6209 136.836 35.1781C137.267 34.9831 137.772 34.7362 138.219 35.0197C138.488 35.1983 138.41 35.5583 138.225 35.7639C138.078 35.9428 137.866 36.0325 137.667 36.1386C136.784 36.6339 135.904 37.1384 134.997 37.5928C131.275 39.5521 127.472 41.3479 123.629 43.0521C121.431 44.0419 119.2 44.958 117.023 45.9926C115.233 46.8868 113.413 47.7149 111.601 48.5637C108.375 50.0189 105.205 51.6323 101.821 52.699C100.669 53.1024 99.5393 53.5685 98.3746 53.9351C97.1129 54.3641 95.8436 54.7797 94.5853 55.0421C94.2381 55.1079 93.8718 55.2235 93.5241 55.113Z" fill="#004448"/>
</g>
<g id="Group_29">
<path id="Vector_22" d="M112.782 51.7317C111.846 51.24 111.7 50.0876 111.435 49.1683C111.269 48.5389 111.027 47.8794 111.147 47.2223C111.216 46.9084 111.495 46.5226 111.858 46.549C112.391 46.5885 112.561 47.0947 112.725 47.52C112.994 48.1614 113.224 48.8183 113.496 49.4564C114.212 49.6374 114.902 49.2414 115.562 49.0133C116.401 48.7137 117.18 48.2838 117.967 47.8728C119.213 47.2722 120.473 46.6936 121.69 46.0338C124.25 44.7729 126.694 43.2869 129.262 42.0473C130.363 41.5712 131.164 42.9641 130.738 43.8996C130.572 44.3847 130.158 44.6839 129.691 44.8503C129.165 45.1054 128.652 45.3873 128.139 45.6659C125.087 47.2779 122.063 48.9503 118.898 50.3367C117.962 50.8009 117.03 51.2795 116.027 51.5859C114.993 51.9613 113.813 52.2846 112.782 51.7317Z" fill="#004448"/>
</g>
</g>
<g id="Group_30">
<g id="Group_31">
<path id="Vector_23" d="M142.511 160.361C142.032 162.77 105.552 176.612 103.381 177.708C102.072 177.124 94.665 113.412 94.3446 111.982C94.1486 111.269 94.2607 110.533 94.2382 109.806C94.1116 108.62 94.0574 107.426 93.8905 106.245C93.5956 104.054 92.9549 101.912 92.8637 99.696C92.8453 97.9236 92.6506 96.1563 92.235 94.4321C92.0222 93.5171 91.9004 92.5865 91.8201 91.6512C91.6064 90.1037 93.3991 89.8596 94.5481 90.0549C97.1366 90.4782 126.915 72.9433 127.506 72.9534C127.656 72.8349 127.806 72.7088 127.948 72.5609C128.331 72.1629 131.17 69.0751 132.164 67.9155C132.389 67.6244 132.679 67.2819 133.018 67.0897C132.951 66.4818 132.871 65.874 132.766 65.2713C132.689 64.916 132.635 64.747 132.554 64.4326C132.46 64.0658 132.536 63.5901 132.178 63.3594C131.973 63.2287 132.052 62.8792 132.243 62.783C132.608 62.6414 132.888 62.8961 133.129 63.092C133.541 63.5942 134.043 64.014 134.34 64.6C134.907 65.6886 135.091 66.9356 135.29 68.1351C135.75 71.3734 142.786 159.078 142.511 160.361Z" fill="#0FFE7F"/>
</g>
<g id="Group_32">
<path id="Vector_24" d="M127.118 71.2073L127.119 71.2086L127.118 71.2073Z" fill="#FFD2B6"/>
</g>
<g id="Group_33">
<path id="Vector_25" d="M127.117 71.2059L127.119 71.2072L127.117 71.2059Z" fill="#FFD2B6"/>
</g>
<g id="Group_34">
<path id="Vector_26" d="M104.132 48.7063L104.131 48.7076C104.13 48.7082 104.128 48.7095 104.127 48.7101C104.129 48.7089 104.13 48.7076 104.132 48.7063Z" fill="#FFD2B6"/>
</g>
<g id="Group_35">
<path id="Vector_27" d="M104.241 48.6219C104.239 48.6232 104.237 48.6251 104.235 48.6264C104.234 48.6271 104.232 48.6284 104.232 48.6284C104.235 48.6264 104.239 48.6238 104.241 48.6219Z" fill="#FFD2B6"/>
</g>
<g id="Group_36">
<path id="Vector_28" d="M104.246 48.618L104.244 48.62C104.244 48.62 104.242 48.6212 104.241 48.6219C104.243 48.6206 104.245 48.6193 104.246 48.618Z" fill="#FFD2B6"/>
</g>
<g id="Group_37">
<path id="Vector_29" d="M104.303 48.5736C104.306 48.5717 104.308 48.5698 104.311 48.5678L104.31 48.5685C104.307 48.5704 104.304 48.5736 104.301 48.5756L104.303 48.5736Z" fill="#FFD2B6"/>
</g>
<g id="Group_38">
<path id="Vector_30" d="M104.312 48.5673L104.31 48.5685L104.312 48.5673Z" fill="#FFD2B6"/>
</g>
<g id="Group_39">
<path id="Vector_31" d="M104.333 48.5499C104.33 48.5531 104.326 48.5563 104.321 48.5602C104.325 48.5563 104.329 48.5531 104.333 48.5499Z" fill="#FFD2B6"/>
</g>
<g id="Group_40">
<path id="Vector_32" d="M104.155 48.3819C104.157 48.38 104.159 48.3781 104.161 48.3768C104.157 48.38 104.153 48.3839 104.148 48.3871C104.15 48.3858 104.152 48.3839 104.155 48.3819Z" fill="#FFD2B6"/>
</g>
<g id="Group_41">
<path id="Vector_33" d="M127.271 71.5361C127.274 71.5438 127.278 71.5515 127.282 71.5592C127.278 71.5515 127.274 71.5445 127.271 71.5361Z" fill="#FFD2B6"/>
</g>
<g id="Group_42">
<path id="Vector_34" d="M127.153 71.2846L127.152 71.2827L127.153 71.2853L127.153 71.2846Z" fill="#FFD2B6"/>
</g>
<g id="Group_43">
<path id="Vector_35" d="M127.152 71.2841L127.15 71.2815L127.151 71.2821L127.152 71.2841Z" fill="#FFD2B6"/>
</g>
<g id="Group_44">
<path id="Vector_36" d="M127.151 71.2827C127.15 71.2808 127.15 71.2795 127.149 71.2776C127.15 71.2795 127.151 71.2821 127.152 71.284L127.151 71.2827Z" fill="#FFD2B6"/>
</g>
<g id="Group_45">
<path id="Vector_37" d="M127.15 71.2808L127.15 71.2802L127.151 71.2814L127.15 71.2808Z" fill="#FFD2B6"/>
</g>
<g id="Group_46">
<path id="Vector_38" d="M127.147 71.2732L127.146 71.2726C127.147 71.2739 127.148 71.2751 127.149 71.2764L127.147 71.2732Z" fill="#FFD2B6"/>
</g>
<g id="Group_47">
<path id="Vector_39" d="M127.143 71.2642C127.143 71.2648 127.143 71.2648 127.143 71.2655C127.145 71.268 127.145 71.2706 127.147 71.2725C127.145 71.2699 127.144 71.2674 127.143 71.2642Z" fill="#FFD2B6"/>
</g>
<g id="Group_48">
<path id="Vector_40" d="M127.141 71.2604L127.143 71.2629L127.141 71.2604Z" fill="#FFD2B6"/>
</g>
<g id="Group_49">
<path id="Vector_41" d="M127.142 71.2603L127.141 71.259L127.142 71.2603Z" fill="#FFD2B6"/>
</g>
<g id="Group_50">
<path id="Vector_42" d="M127.139 71.2559L127.139 71.2552L127.139 71.2546L127.137 71.254L127.137 71.2527C127.139 71.2552 127.14 71.2578 127.141 71.2604C127.141 71.2591 127.14 71.2572 127.139 71.2559Z" fill="#FFD2B6"/>
</g>
<g id="Group_51">
<path id="Vector_43" d="M127.139 71.254L127.137 71.2527L127.139 71.2533L127.139 71.254Z" fill="#FFD2B6"/>
</g>
<g id="Group_52">
<path id="Vector_44" d="M127.138 71.2521L127.137 71.2515L127.138 71.2515L127.138 71.2527L127.138 71.2521Z" fill="#FFD2B6"/>
</g>
<g id="Group_53">
<path id="Vector_45" d="M127.138 71.2514L127.138 71.2495L127.136 71.2476C127.136 71.2456 127.134 71.2437 127.134 71.2418C127.133 71.2399 127.132 71.2386 127.131 71.2367C127.134 71.2418 127.136 71.2463 127.139 71.252L127.138 71.2514Z" fill="#FFD2B6"/>
</g>
<g id="Group_54">
<path id="Vector_46" d="M127.135 71.2469L127.137 71.2476L127.137 71.2482L127.135 71.2469Z" fill="#FFD2B6"/>
</g>
<g id="Group_55">
<path id="Vector_47" d="M127.136 71.2463L127.134 71.2437L127.134 71.2424C127.134 71.2424 127.135 71.245 127.136 71.2463Z" fill="#FFD2B6"/>
</g>
<g id="Group_56">
<path id="Vector_48" d="M127.134 71.2438L127.134 71.2444L127.135 71.2451L127.134 71.2438Z" fill="#FFD2B6"/>
</g>
<g id="Group_57">
<path id="Vector_49" d="M127.13 71.2354L127.131 71.2366L127.13 71.2354Z" fill="#FFD2B6"/>
</g>
<g id="Group_58">
<path id="Vector_50" d="M127.128 71.2322L127.128 71.2328L127.13 71.2347L127.128 71.2322Z" fill="#FFD2B6"/>
</g>
<g id="Group_59">
<path id="Vector_51" d="M127.126 71.2259L127.126 71.2252L127.127 71.2278L127.126 71.2259Z" fill="#FFD2B6"/>
</g>
<g id="Group_60">
<path id="Vector_52" d="M127.126 71.2245L127.126 71.2251L127.127 71.227L127.126 71.2245Z" fill="#FFD2B6"/>
</g>
<g id="Group_61">
<path id="Vector_53" d="M127.126 71.2258L127.127 71.2271L127.126 71.2258Z" fill="#FFD2B6"/>
</g>
<g id="Group_62">
<path id="Vector_54" d="M127.125 71.2239L127.125 71.2245L127.127 71.2252L127.125 71.2239Z" fill="#FFD2B6"/>
</g>
<g id="Group_63">
<path id="Vector_55" d="M127.125 71.2219L127.123 71.2194C127.124 71.2206 127.125 71.2219 127.126 71.2232L127.125 71.2219Z" fill="#FFD2B6"/>
</g>
<g id="Group_64">
<path id="Vector_56" d="M127.123 71.2187C127.123 71.2187 127.122 71.2175 127.122 71.2162C127.122 71.2175 127.124 71.2187 127.124 71.2187L127.125 71.2213L127.123 71.2187Z" fill="#FFD2B6"/>
</g>
<g id="Group_65">
<path id="Vector_57" d="M127.121 71.215L127.121 71.2143L127.121 71.2124C127.121 71.2143 127.123 71.2169 127.123 71.2188C127.123 71.2188 127.122 71.2162 127.121 71.215Z" fill="#FFD2B6"/>
</g>
<g id="Group_66">
<path id="Vector_58" d="M127.121 71.2143L127.12 71.213L127.121 71.213L127.122 71.2156L127.123 71.2168L127.121 71.2143Z" fill="#FFD2B6"/>
</g>
<g id="Group_67">
<path id="Vector_59" d="M127.121 71.2136C127.121 71.213 127.121 71.213 127.12 71.213C127.121 71.213 127.121 71.2136 127.121 71.2136Z" fill="#FFD2B6"/>
</g>
<g id="Group_68">
<path id="Vector_60" d="M127.117 71.2047L127.117 71.2041L127.118 71.2067L127.117 71.2047Z" fill="#FFD2B6"/>
</g>
<g id="Group_69">
<path id="Vector_61" d="M127.114 71.1983C127.114 71.197 127.114 71.1963 127.113 71.1951C127.114 71.1983 127.116 71.2015 127.117 71.204C127.116 71.2021 127.115 71.2002 127.114 71.1983Z" fill="#FFD2B6"/>
</g>
<g id="Group_70">
<path id="Vector_62" d="M93.2918 91.7235C92.332 91.5808 91.4705 90.9558 91.0707 90.0672C90.5648 88.911 91.1286 87.6255 91.6446 86.5715C92.3121 85.2433 94.4738 85.6931 93.6707 87.992C92.8314 90.5614 97.3726 88.8779 98.429 88.4307C101.131 87.2254 103.83 85.7875 106.408 84.3551C110.082 82.378 113.535 80.1421 117.029 77.8786C121.114 75.215 125.209 72.5251 128.948 69.3854C129.609 68.741 130.196 68.0263 130.812 67.3404C131.724 66.2426 132.301 64.8475 130.797 63.9307C129.915 63.5122 129.117 63.3702 128.232 63.1952C127.529 63.1317 128.687 61.2699 129.618 61.3813C130.591 61.4688 131.614 61.5754 132.484 62.0536C135.48 63.7507 134.295 67.0256 132.339 69.0542C130.817 70.9852 128.821 72.42 126.876 73.8899C123.983 75.9527 121.062 77.9739 118.064 79.8838C113.168 83.1001 108.147 86.1316 102.962 88.7363C100.97 89.7328 99.0007 90.8202 96.8323 91.3867C96.0136 91.6209 95.1652 91.8245 94.3155 91.8275C93.974 91.8287 93.6323 91.7972 93.2918 91.7235Z" fill="#004448"/>
</g>
<g id="Group_71">
<path id="Vector_63" d="M93.9279 112.618C92.6739 108.289 92.0569 103.8 91.2882 99.3661C90.8895 96.4398 90.4022 93.4772 90.6449 90.5185C90.7139 88.6747 93.32 86.8719 93.0762 87.6801C92.2667 89.9879 92.6914 92.4618 92.9292 94.8382C93.3329 98.2791 93.9865 101.684 94.5913 105.093C94.8494 106.498 95.1145 107.903 95.4328 109.297C95.608 110.272 96.0528 111.204 96.1198 112.19C96.0919 113.003 95.5247 113.524 94.9583 113.526C94.545 113.527 94.1326 113.254 93.9279 112.618Z" fill="#004448"/>
</g>
<g id="Group_72">
<path id="Vector_64" d="M99.956 99.4796C95.7544 99.2971 96.3693 91.997 100.692 92.7295C103.785 93.5278 103.549 99.479 100.222 99.4908C100.135 99.4911 100.046 99.4876 99.956 99.4796ZM99.3444 96.1471C99.2934 96.5683 99.5916 96.9882 100.331 96.9305C101.025 96.8966 101.03 95.5657 100.446 95.3556C100.408 95.3526 100.37 95.3521 100.334 95.3522C99.7472 95.3536 99.3924 95.7509 99.3444 96.1471Z" fill="#004448"/>
</g>
</g>
</g>
</g>
</g>
</g>
</svg>
